<svg width="49" height="49" viewBox="0 0 49 49" fill="none" xmlns="http://www.w3.org/2000/svg">
<circle cx="24.5" cy="24.5" r="24.5" fill="url(#paint0_linear)"/>
<g clip-path="url(#clip0)">
<path d="M32.3256 23.8383L20.6705 12.2154C20.2886 11.8348 19.6703 11.8354 19.2891 12.2173C18.9082 12.5992 18.9092 13.2178 19.2911 13.5987L30.2525 24.5299L19.2907 35.461C18.9088 35.8419 18.9078 36.4601 19.2887 36.842C19.4798 37.0335 19.7302 37.1292 19.9805 37.1292C20.2303 37.1292 20.4796 37.0341 20.6704 36.844L32.3256 25.2213C32.5096 25.0384 32.6128 24.7893 32.6128 24.5299C32.6128 24.2704 32.5093 24.0216 32.3256 23.8383Z" fill="#FAF0F1"/>
</g>
<defs>
<linearGradient id="paint0_linear" x1="7" y1="-2.08616e-07" x2="49" y2="49" gradientUnits="userSpaceOnUse">
<stop stop-color="#9D1931"/>
<stop offset="1" stop-color="#F1547A"/>
</linearGradient>
<clipPath id="clip0">
<rect width="25.1988" height="25.1988" fill="white" transform="translate(13.2087 11.9304)"/>
</clipPath>
</defs>
</svg>
