<svg width="30" height="30" viewBox="0 0 30 30" fill="none" xmlns="http://www.w3.org/2000/svg">
<path d="M15 30C6.72915 30 0 23.2709 0 15C0 6.72915 6.72915 0 15 0C23.2709 0 30 6.72915 30 15C30 23.2709 23.2709 30 15 30ZM15 1.87501C7.76275 1.87501 1.87501 7.76275 1.87501 15C1.87501 22.2372 7.76275 28.125 15 28.125C22.2372 28.125 28.125 22.2372 28.125 15C28.125 7.76275 22.2372 1.87501 15 1.87501Z" fill="#BA2D4A"/>
<path d="M15 22.5001C10.8646 22.5001 7.5 19.1355 7.5 15C7.5 10.8645 10.8645 7.5 15 7.5C17.0334 7.5 18.9359 8.30019 20.3586 9.75311L19.0183 11.0641C17.9518 9.97461 16.5254 9.37494 15 9.37494C11.8982 9.37494 9.37501 11.8981 9.37501 15C9.37501 18.1018 11.8982 20.625 15 20.625C16.5244 20.625 17.9508 20.0253 19.0183 18.9358L20.3568 20.2487C18.9349 21.7008 17.0325 22.5 15 22.5001Z" fill="#BA2D4A"/>
</svg>
