<svg width="30" height="30" viewBox="0 0 30 30" fill="none" xmlns="http://www.w3.org/2000/svg">
<g clip-path="url(#clip0)">
<path d="M26.3377 4.28564H3.66853C1.64494 4.28564 0 5.93059 0 7.95417V23.4477C0 25.4712 1.64494 27.1162 3.66853 27.1162H26.3315C28.3551 27.1162 30 25.4712 30 23.4477V7.96038C30.0062 5.93679 28.3613 4.28564 26.3377 4.28564ZM28.3302 23.4477C28.3302 24.5464 27.4364 25.4402 26.3377 25.4402H3.66853C2.56983 25.4402 1.67598 24.5464 1.67598 23.4477V7.96038C1.67598 6.86168 2.56983 5.96783 3.66853 5.96783H26.3315C27.4302 5.96783 28.324 6.86168 28.324 7.96038V23.4477H28.3302Z" fill="#BA2D4A"/>
<path d="M18.9199 15.5086L26.2569 8.92882C26.5984 8.61846 26.6294 8.09083 26.319 7.74322C26.0087 7.40182 25.481 7.37078 25.1334 7.68115L15.0155 16.7625L13.0416 14.9996C13.0353 14.9934 13.0291 14.9872 13.0291 14.981C12.9857 14.9375 12.9422 14.9003 12.8926 14.863L4.8603 7.67494C4.51269 7.36458 3.98506 7.39561 3.6747 7.74322C3.36433 8.09083 3.39537 8.61846 3.74298 8.92882L11.1669 15.5645L3.77402 22.4856C3.43882 22.8022 3.4202 23.3298 3.73677 23.6712C3.90437 23.845 4.12783 23.9381 4.3513 23.9381C4.55614 23.9381 4.76098 23.8636 4.92237 23.7147L12.427 16.6942L14.463 18.5129C14.6244 18.6557 14.8231 18.724 15.0217 18.724C15.2203 18.724 15.4252 18.6495 15.5803 18.5067L17.6722 16.6321L25.1334 23.7209C25.2948 23.8761 25.5059 23.9505 25.7107 23.9505C25.9342 23.9505 26.1514 23.8636 26.319 23.6898C26.6356 23.3546 26.6232 22.8208 26.288 22.5042L18.9199 15.5086Z" fill="#BA2D4A"/>
</g>
<defs>
<clipPath id="clip0">
<rect width="30" height="30" fill="white"/>
</clipPath>
</defs>
</svg>
