<svg width="56" height="58" viewBox="0 0 56 58" fill="none" xmlns="http://www.w3.org/2000/svg">
<rect width="56" height="58" rx="15" fill="white"/>
<g clip-path="url(#clip0)">
<path d="M43.99 18.8218C43.9909 18.8035 43.9907 18.785 43.9896 18.7667C43.9834 18.7472 43.9759 18.7282 43.9674 18.7097C43.9368 18.6185 43.8842 18.5362 43.8143 18.4702C43.7882 18.4486 43.76 18.4296 43.7302 18.4135C43.7038 18.3963 43.6758 18.3817 43.6466 18.3697C43.6102 18.3582 43.5727 18.3507 43.5347 18.3472C43.5121 18.3409 43.489 18.3363 43.4657 18.3332C43.46 18.3332 43.4553 18.3363 43.4497 18.3364C43.4437 18.3365 43.4384 18.3339 43.4323 18.3342L24.7905 19.4981C24.7203 17.8677 23.6669 16.4432 22.1285 15.8985C22.2009 15.5408 22.3534 15.2042 22.5745 14.914C23.1439 14.301 23.9661 13.9877 24.799 14.0666C25.0936 14.0666 25.3323 13.8279 25.3323 13.5333C25.3323 13.2387 25.0936 13 24.7991 13C23.4298 13 22.4007 13.4203 21.7402 14.2489C21.4145 14.6698 21.1895 15.1597 21.0823 15.681C20.9884 15.6744 20.8947 15.6666 20.799 15.6666C18.8247 15.67 17.1478 17.1125 16.8494 19.0642C16.3215 18.594 15.6394 18.3339 14.9324 18.3333C13.6205 18.3369 12.4711 19.2123 12.1187 20.4759C12.0435 20.567 12.0013 20.6808 11.999 20.7989V38.6702C11.9991 42.1603 15.1093 44.9998 18.9325 44.9998C18.9643 44.9965 18.9957 44.9901 19.0264 44.9809C19.1183 45.0083 19.2166 45.0061 19.3072 44.9748L43.6272 37.2467C43.6353 37.2442 43.6407 37.2378 43.6486 37.2349C43.6834 37.2203 43.7166 37.2019 43.7473 37.18C43.8659 37.1175 43.949 37.0037 43.9722 36.8716C43.9834 36.8361 43.9908 36.7995 43.9942 36.7625C43.9946 36.754 43.9991 36.7469 43.9991 36.7384V18.8667C43.999 18.8507 43.9914 18.8373 43.99 18.8218ZM18.1461 18.4102C18.6306 17.3842 19.6645 16.7307 20.7992 16.7333C20.8562 16.7333 20.9119 16.7386 20.9681 16.7419C20.9638 17.1371 21.0011 17.5317 21.0794 17.9192C21.1349 18.1613 21.3502 18.333 21.5986 18.3333C21.6389 18.3334 21.6791 18.3288 21.7184 18.3197C22.0055 18.2538 22.1848 17.9678 22.119 17.6807C22.119 17.6807 22.119 17.6807 22.119 17.6807C22.0772 17.4604 22.0515 17.2374 22.042 17.0135C23.5036 17.7036 24.1289 19.4479 23.4388 20.9095C22.7487 22.371 21.0044 22.9963 19.5428 22.3062C18.0812 21.6161 17.4559 19.8718 18.1461 18.4102ZM18.3991 43.9118C15.4132 43.6691 13.0658 41.4108 13.0658 38.6702V24.2624C14.2739 26.0619 16.2384 27.2101 18.3991 27.3796V43.9118ZM18.8596 26.3297C15.7988 26.292 13.2199 23.9114 13.0795 21.0428C13.0861 20.9956 13.0926 20.9478 13.1036 20.8963C13.2799 20.0261 14.0446 19.4004 14.9326 19.4C15.7353 19.4017 16.4476 19.915 16.7031 20.676C16.7561 20.8309 16.8785 20.9521 17.0339 21.0036C17.7693 23.0836 20.0517 24.1736 22.1316 23.4381C23.4183 22.9831 24.3838 21.9027 24.6916 20.5731L39.31 19.6604L27.3004 23.5755C27.2928 23.578 27.2878 23.5841 27.2804 23.5869C27.2461 23.6016 27.2135 23.6201 27.1831 23.642C27.0643 23.704 26.9815 23.818 26.9593 23.9501C26.9478 23.9861 26.9403 24.0232 26.937 24.0608C26.9366 24.0686 26.9325 24.0751 26.9325 24.0829V26.8667C26.9325 27.1613 26.6938 27.4 26.3992 27.4C26.1046 27.4 25.8659 27.1613 25.8659 26.8667V24.7812C25.8659 24.4866 25.6271 24.2479 25.3326 24.2479C25.038 24.2479 24.7993 24.4867 24.7993 24.7812V38.0665C24.7993 38.3611 24.5605 38.5999 24.266 38.5999C23.9714 38.5999 23.7327 38.3611 23.7327 38.0665V25.4744C23.7193 25.4201 23.7105 25.3646 23.7063 25.3088C23.7039 25.3014 23.698 25.2964 23.6952 25.2891C23.6807 25.2553 23.6625 25.2231 23.6411 25.1932C23.614 25.1346 23.5692 25.086 23.5129 25.0544C23.4657 25.0085 23.405 24.9787 23.3398 24.9695C23.301 24.9567 23.2608 24.9486 23.22 24.9453C23.2128 24.945 23.2067 24.9411 23.1993 24.9411C23.1716 24.9444 23.1442 24.9499 23.1173 24.9577C23.0893 24.9587 23.0614 24.9621 23.034 24.9677L18.8596 26.3297ZM19.4658 35.7317V33.6533L22.6658 32.6091V34.6876L19.4658 35.7317ZM22.6658 35.8091V37.8887L19.4658 38.9315V36.8532L22.6658 35.8091ZM19.4658 32.5318V27.2533L22.6658 26.2092V31.4876L19.4658 32.5318ZM42.9324 36.3482L19.4658 43.8051V40.0538L22.9216 38.9277C23.3957 39.6715 24.3831 39.8903 25.127 39.4162C25.588 39.1223 25.8667 38.6132 25.8658 38.0665V37.9684L42.9324 32.4018V36.3482ZM42.9324 31.2792L25.8658 36.8459V34.7684L42.9324 29.2018V31.2792ZM42.9324 28.0792L25.8658 33.6459V31.5685L42.9324 26.0019V28.0792ZM42.9324 24.8792L25.8658 30.446V28.3683C26.0366 28.4315 26.217 28.4648 26.3991 28.4666C27.2823 28.4657 27.9981 27.7499 27.9991 26.8666V24.4701L42.9323 19.6016V24.8792H42.9324Z" fill="#BA2D4A"/>
</g>
<defs>
<clipPath id="clip0">
<rect width="32" height="32" fill="white" transform="translate(12 13)"/>
</clipPath>
</defs>
</svg>
