<svg width="56" height="58" viewBox="0 0 56 58" fill="none" xmlns="http://www.w3.org/2000/svg">
<rect width="56" height="58" rx="15" fill="white"/>
<g clip-path="url(#clip0)">
<path d="M47.988 17.0954C47.9891 17.073 47.9889 17.0505 47.9876 17.0281C47.9799 17.0044 47.9709 16.9813 47.9604 16.9587C47.9232 16.8476 47.8591 16.7473 47.7739 16.6668C47.7421 16.6405 47.7077 16.6173 47.6714 16.5977C47.6392 16.5768 47.6051 16.559 47.5695 16.5443C47.5252 16.5303 47.4794 16.5211 47.4331 16.5168C47.4055 16.5092 47.3774 16.5036 47.349 16.4999C47.3421 16.4999 47.3364 16.5036 47.3295 16.5037C47.3222 16.5039 47.3157 16.5007 47.3083 16.5011L24.5887 17.9195C24.503 15.9325 23.2193 14.1964 21.3444 13.5325C21.4326 13.0966 21.6184 12.6864 21.8879 12.3327C22.5818 11.5856 23.5839 11.2038 24.599 11.2999C24.958 11.2999 25.249 11.009 25.249 10.65C25.249 10.291 24.9581 10 24.5991 10C22.9303 10 21.676 10.5123 20.8711 11.5221C20.4741 12.0351 20.1999 12.6321 20.0693 13.2674C19.9548 13.2594 19.8406 13.2499 19.724 13.2499C17.3179 13.2541 15.2741 15.0122 14.9105 17.3908C14.267 16.8176 13.4357 16.5007 12.5741 16.4999C10.9752 16.5044 9.57435 17.5712 9.14489 19.1112C9.05318 19.2222 9.00177 19.3609 8.99902 19.5049V41.2855C8.99918 45.5391 12.7897 48.9998 17.4492 48.9998C17.488 48.9957 17.5263 48.988 17.5636 48.9767C17.6756 49.0101 17.7954 49.0075 17.9059 48.9693L47.5458 39.5507C47.5557 39.5476 47.5623 39.5398 47.572 39.5362C47.6144 39.5185 47.6548 39.4961 47.6922 39.4694C47.8368 39.3933 47.938 39.2545 47.9663 39.0935C47.98 39.0503 47.989 39.0057 47.9931 38.9605C47.9936 38.9502 47.9991 38.9416 47.9991 38.9311V17.15C47.999 17.1306 47.9897 17.1143 47.988 17.0954ZM16.4907 16.5937C17.0812 15.3432 18.3413 14.5467 19.7242 14.5499C19.7937 14.5499 19.8616 14.5564 19.9301 14.5604C19.9248 15.0421 19.9703 15.523 20.0657 15.9953C20.1334 16.2903 20.3958 16.4996 20.6985 16.4999C20.7476 16.5001 20.7966 16.4945 20.8445 16.4834C21.1944 16.4031 21.4129 16.0545 21.3327 15.7046C21.3327 15.7046 21.3327 15.7046 21.3327 15.7046C21.2818 15.4361 21.2504 15.1643 21.2389 14.8914C23.0202 15.7325 23.7823 17.8584 22.9412 19.6396C22.1001 21.4209 19.9743 22.183 18.193 21.3419C16.4117 20.5008 15.6496 18.375 16.4907 16.5937ZM16.7991 47.6738C13.16 47.378 10.2992 44.6256 10.2992 41.2855V23.7261C11.7715 25.9191 14.1658 27.3186 16.7991 27.5251V47.6738ZM17.3604 26.2455C13.63 26.1997 10.487 23.2982 10.3158 19.8022C10.324 19.7447 10.3319 19.6864 10.3453 19.6237C10.5601 18.563 11.4921 17.8005 12.5743 17.8C13.5526 17.8021 14.4207 18.4277 14.7321 19.3551C14.7967 19.5439 14.9459 19.6917 15.1352 19.7544C16.0316 22.2894 18.8132 23.6178 21.3481 22.7215C22.9163 22.1669 24.0929 20.8502 24.4682 19.2297L42.2843 18.1174L27.6476 22.8889C27.6383 22.8919 27.6322 22.8993 27.6232 22.9028C27.5814 22.9207 27.5416 22.9433 27.5046 22.9699C27.3599 23.0455 27.2589 23.1844 27.2318 23.3455C27.2178 23.3893 27.2087 23.4345 27.2046 23.4804C27.2042 23.4898 27.1992 23.4977 27.1992 23.5073V26.9001C27.1992 27.2591 26.9082 27.5501 26.5492 27.5501C26.1902 27.5501 25.8993 27.2591 25.8993 26.9001V24.3583C25.8993 23.9993 25.6082 23.7083 25.2493 23.7083C24.8903 23.7083 24.5993 23.9994 24.5993 24.3583V40.5498C24.5993 40.9088 24.3084 41.1998 23.9494 41.1998C23.5904 41.1998 23.2994 40.9088 23.2994 40.5498V25.2032C23.2832 25.1369 23.2724 25.0694 23.2673 25.0014C23.2643 24.9923 23.2571 24.9863 23.2538 24.9774C23.236 24.9362 23.2139 24.8969 23.1878 24.8604C23.1548 24.789 23.1001 24.7298 23.0316 24.6913C22.974 24.6354 22.9001 24.5991 22.8206 24.5878C22.7733 24.5722 22.7243 24.5623 22.6746 24.5583C22.6658 24.558 22.6584 24.5532 22.6494 24.5532C22.6156 24.5572 22.5822 24.5639 22.5495 24.5734C22.5154 24.5746 22.4813 24.5788 22.4479 24.5856L17.3604 26.2455ZM18.0992 37.7043V35.1712L21.9991 33.8986V36.4318L18.0992 37.7043ZM21.9991 37.7986V40.3331L18.0992 41.6041V39.0711L21.9991 37.7986ZM18.0992 33.8043V27.3712L21.9991 26.0987V32.5318L18.0992 33.8043ZM46.699 38.4557L18.0992 47.5438V42.9719L22.3109 41.5993C22.8887 42.5059 24.0921 42.7725 24.9987 42.1947C25.5605 41.8366 25.9003 41.216 25.8991 40.5498V40.4302L46.699 33.6459V38.4557ZM46.699 32.2778L25.8991 39.0622V36.5303L46.699 29.746V32.2778ZM46.699 28.3778L25.8991 35.1622V32.6303L46.699 25.846V28.3778ZM46.699 24.4778L25.8991 31.2623V28.7301C26.1073 28.8072 26.3272 28.8477 26.5491 28.8499C27.6255 28.8488 28.4979 27.9764 28.4991 26.8999V23.9792L46.699 18.0458V24.4778H46.699Z" fill="#BA2D4A"/>
</g>
<defs>
<clipPath id="clip0">
<rect width="39" height="39" fill="white" transform="translate(9 10)"/>
</clipPath>
</defs>
</svg>
