<svg width="32" height="32" viewBox="0 0 32 32" fill="none" xmlns="http://www.w3.org/2000/svg">
<g clip-path="url(#clip0)">
<path d="M31.99 5.82184C31.9909 5.80347 31.9907 5.78503 31.9896 5.76665C31.9834 5.74722 31.9759 5.72822 31.9674 5.70972C31.9368 5.61853 31.8842 5.53622 31.8143 5.47016C31.7882 5.44859 31.76 5.42959 31.7302 5.41347C31.7038 5.39634 31.6758 5.38172 31.6466 5.36972C31.6102 5.35822 31.5727 5.35066 31.5347 5.34716C31.5121 5.34091 31.489 5.33628 31.4657 5.33322C31.46 5.33322 31.4553 5.33628 31.4497 5.33641C31.4437 5.33653 31.4384 5.33391 31.4323 5.33422L12.7905 6.49809C12.7203 4.86766 11.6669 3.44323 10.1285 2.89848C10.2009 2.5408 10.3534 2.20424 10.5745 1.91399C11.1439 1.30099 11.9661 0.987744 12.799 1.06662C13.0936 1.06662 13.3323 0.82787 13.3323 0.533309C13.3323 0.238749 13.0936 0 12.7991 0C11.4298 0 10.4007 0.42031 9.74023 1.24893C9.41448 1.6698 9.18948 2.15967 9.08229 2.68098C8.98835 2.67436 8.89467 2.66661 8.79904 2.66661C6.82474 2.67005 5.14781 4.11254 4.84944 6.06421C4.3215 5.59397 3.63938 5.33391 2.93238 5.33328C1.62052 5.33691 0.471084 6.21228 0.11871 7.47589C0.0434607 7.56696 0.00127343 7.68077 -0.000976562 7.79889V25.6702C-0.000851563 29.1603 3.10932 31.9998 6.93249 31.9998C6.9643 31.9965 6.99574 31.9901 7.02636 31.9809C7.1183 32.0082 7.21655 32.0061 7.30724 31.9748L31.6272 24.2467C31.6353 24.2442 31.6407 24.2378 31.6486 24.2349C31.6834 24.2203 31.7166 24.2019 31.7473 24.18C31.8659 24.1175 31.949 24.0037 31.9722 23.8716C31.9834 23.8361 31.9908 23.7995 31.9942 23.7625C31.9946 23.754 31.9991 23.7469 31.9991 23.7384V5.86665C31.999 5.85072 31.9914 5.83734 31.99 5.82184ZM6.14606 5.41022C6.63055 4.38416 7.66449 3.73067 8.79917 3.73329C8.85617 3.73329 8.91192 3.7386 8.96811 3.74185C8.96379 4.1371 9.00111 4.53172 9.07935 4.91922C9.13492 5.16128 9.35023 5.33303 9.5986 5.33328C9.63891 5.33341 9.6791 5.32884 9.71841 5.31972C10.0055 5.25384 10.1848 4.96778 10.119 4.68072C10.119 4.68072 10.119 4.68072 10.119 4.68066C10.0772 4.46041 10.0515 4.23741 10.042 4.01348C11.5036 4.7036 12.1289 6.4479 11.4388 7.90945C10.7487 9.37101 9.00435 9.99632 7.5428 9.3062C6.08124 8.61607 5.45587 6.87177 6.14606 5.41022ZM6.39912 30.9118C3.41319 30.6691 1.06583 28.4108 1.06583 25.6702V11.2624C2.27389 13.0619 4.23844 14.2101 6.39912 14.3796V30.9118ZM6.85961 13.3297C3.79882 13.292 1.21989 10.9114 1.07946 8.04283C1.08614 7.99564 1.09264 7.94783 1.10364 7.89633C1.27989 7.02608 2.04464 6.4004 2.93257 6.39996C3.73532 6.40171 4.44756 6.91502 4.70313 7.67602C4.75613 7.83089 4.8785 7.95214 5.03387 8.00364C5.76931 10.0836 8.05167 11.1736 10.1316 10.4381C11.4183 9.98313 12.3838 8.9027 12.6916 7.57308L27.31 6.6604L15.3004 10.5755C15.2928 10.578 15.2878 10.5841 15.2804 10.5869C15.2461 10.6016 15.2134 10.6201 15.1831 10.642C15.0643 10.704 14.9815 10.818 14.9593 10.9501C14.9478 10.9861 14.9403 11.0232 14.937 11.0608C14.9366 11.0686 14.9325 11.0751 14.9325 11.0829V13.8667C14.9325 14.1613 14.6938 14.4 14.3992 14.4C14.1046 14.4 13.8659 14.1613 13.8659 13.8667V11.7812C13.8659 11.4866 13.6271 11.2479 13.3326 11.2479C13.038 11.2479 12.7993 11.4867 12.7993 11.7812V25.0665C12.7993 25.3611 12.5605 25.5999 12.266 25.5999C11.9714 25.5999 11.7327 25.3611 11.7327 25.0665V12.4744C11.7193 12.4201 11.7105 12.3646 11.7063 12.3088C11.7039 12.3014 11.698 12.2964 11.6952 12.2891C11.6807 12.2553 11.6625 12.2231 11.6411 12.1932C11.614 12.1346 11.5692 12.086 11.5129 12.0544C11.4657 12.0085 11.405 11.9787 11.3398 11.9695C11.301 11.9567 11.2608 11.9486 11.22 11.9453C11.2128 11.945 11.2067 11.9411 11.1993 11.9411C11.1716 11.9444 11.1442 11.9499 11.1173 11.9577C11.0893 11.9587 11.0614 11.9621 11.034 11.9677L6.85961 13.3297ZM7.4658 22.7317V20.6533L10.6658 19.6091V21.6876L7.4658 22.7317ZM10.6658 22.8091V24.8887L7.4658 25.9315V23.8532L10.6658 22.8091ZM7.4658 19.5318V14.2533L10.6658 13.2092V18.4876L7.4658 19.5318ZM30.9324 23.3482L7.4658 30.8051V27.0538L10.9216 25.9277C11.3957 26.6715 12.3831 26.8903 13.127 26.4162C13.588 26.1223 13.8667 25.6132 13.8658 25.0665V24.9684L30.9324 19.4018V23.3482ZM30.9324 18.2792L13.8658 23.8459V21.7684L30.9324 16.2018V18.2792ZM30.9324 15.0792L13.8658 20.6459V18.5685L30.9324 13.0019V15.0792ZM30.9324 11.8792L13.8658 17.446V15.3683C14.0366 15.4315 14.217 15.4648 14.3991 15.4666C15.2823 15.4657 15.9981 14.7499 15.9991 13.8666V11.4701L30.9323 6.60165V11.8792H30.9324Z" fill="#673F3E"/>
</g>
<defs>
<clipPath id="clip0">
<rect width="32" height="32" fill="white"/>
</clipPath>
</defs>
</svg>
