<svg width="30" height="30" viewBox="0 0 30 30" fill="none" xmlns="http://www.w3.org/2000/svg">
<path d="M21.8792 0H8.12071C3.64288 0 0 3.64288 0 8.12071V21.8795C0 26.3571 3.64288 29.9999 8.12071 29.9999H21.8795C26.3571 29.9999 29.9999 26.3571 29.9999 21.8795V8.12071C29.9999 3.64288 26.3571 0 21.8792 0V0ZM28.2412 21.8795C28.2412 25.3873 25.3873 28.2412 21.8792 28.2412H8.12071C4.61265 28.2412 1.75872 25.3873 1.75872 21.8795V8.12071C1.75872 4.61265 4.61265 1.75872 8.12071 1.75872H21.8795C25.3873 1.75872 28.2412 4.61265 28.2412 8.12071V21.8795Z" fill="#BA2D4A"/>
<path d="M15 6.79688C10.4768 6.79688 6.79709 10.4766 6.79709 14.9998C6.79709 19.5229 10.4768 23.2026 15 23.2026C19.5231 23.2026 23.2029 19.5229 23.2029 14.9998C23.2029 10.4766 19.5231 6.79688 15 6.79688ZM15 21.4439C11.4468 21.4439 8.55581 18.5531 8.55581 14.9998C8.55581 11.4466 11.4468 8.5556 15 8.5556C18.5534 8.5556 21.4441 11.4466 21.4441 14.9998C21.4441 18.5531 18.5534 21.4439 15 21.4439Z" fill="#BA2D4A"/>
<path d="M23.399 3.88379C22.0623 3.88379 20.9752 4.9712 20.9752 6.30764C20.9752 7.64431 22.0623 8.73173 23.399 8.73173C24.7357 8.73173 25.8231 7.64431 25.8231 6.30764C25.8231 4.97098 24.7357 3.88379 23.399 3.88379ZM23.399 6.97277C23.0323 6.97277 22.7339 6.67431 22.7339 6.30764C22.7339 5.94075 23.0323 5.64251 23.399 5.64251C23.7659 5.64251 24.0644 5.94075 24.0644 6.30764C24.0644 6.67431 23.7659 6.97277 23.399 6.97277Z" fill="#BA2D4A"/>
</svg>
