<svg width="154" height="37" viewBox="0 0 154 37" fill="none" xmlns="http://www.w3.org/2000/svg">
<path d="M16.7638 32.66H15.5638V35H14.8538V29.74H15.5638V32.05H16.7738L18.6238 29.74H19.3938L17.3238 32.29L19.5438 35H18.7038L16.7638 32.66ZM22.3988 35.05C21.8921 35.05 21.4354 34.9367 21.0288 34.71C20.6221 34.4767 20.3021 34.1567 20.0688 33.75C19.8354 33.3433 19.7188 32.8833 19.7188 32.37C19.7188 31.8567 19.8354 31.3967 20.0688 30.99C20.3021 30.5833 20.6221 30.2667 21.0288 30.04C21.4354 29.8133 21.8921 29.7 22.3988 29.7C22.9054 29.7 23.3621 29.8133 23.7688 30.04C24.1754 30.2667 24.4921 30.5833 24.7188 30.99C24.9521 31.3967 25.0688 31.8567 25.0688 32.37C25.0688 32.8833 24.9521 33.3433 24.7188 33.75C24.4921 34.1567 24.1754 34.4767 23.7688 34.71C23.3621 34.9367 22.9054 35.05 22.3988 35.05ZM22.3988 34.42C22.7721 34.42 23.1054 34.3367 23.3988 34.17C23.6988 33.9967 23.9321 33.7533 24.0988 33.44C24.2654 33.1267 24.3488 32.77 24.3488 32.37C24.3488 31.97 24.2654 31.6133 24.0988 31.3C23.9321 30.9867 23.6988 30.7467 23.3988 30.58C23.1054 30.4067 22.7721 30.32 22.3988 30.32C22.0254 30.32 21.6888 30.4067 21.3888 30.58C21.0954 30.7467 20.8621 30.9867 20.6887 31.3C20.5221 31.6133 20.4388 31.97 20.4388 32.37C20.4388 32.77 20.5221 33.1267 20.6887 33.44C20.8621 33.7533 21.0954 33.9967 21.3888 34.17C21.6888 34.3367 22.0254 34.42 22.3988 34.42ZM26.3362 29.74H27.0462V32.07H30.3562V29.74H31.0662V35H30.3562V32.68H27.0462V35H26.3362V29.74ZM37.9642 34.38V36.27H37.2942V35H32.5842V36.27H31.9142V34.38H32.2142C32.5676 34.36 32.8076 34.1 32.9342 33.6C33.0609 33.1 33.1476 32.4 33.1942 31.5L33.2642 29.74H37.1442V34.38H37.9642ZM33.8442 31.54C33.8109 32.2867 33.7476 32.9033 33.6542 33.39C33.5609 33.87 33.3942 34.2 33.1542 34.38H36.4342V30.37H33.9042L33.8442 31.54ZM39.0979 29.74H39.8079V33.92L43.3179 29.74H43.9479V35H43.2379V30.82L39.7379 35H39.0979V29.74ZM49.4327 30.37H47.4427V35H46.7327V30.37H44.7427V29.74H49.4327V30.37ZM54.5651 32.59H50.1651C50.2051 33.1367 50.4151 33.58 50.7951 33.92C51.1751 34.2533 51.6551 34.42 52.2351 34.42C52.5617 34.42 52.8617 34.3633 53.1351 34.25C53.4084 34.13 53.6451 33.9567 53.8451 33.73L54.2451 34.19C54.0117 34.47 53.7184 34.6833 53.3651 34.83C53.0184 34.9767 52.6351 35.05 52.2151 35.05C51.6751 35.05 51.1951 34.9367 50.7751 34.71C50.3617 34.4767 50.0384 34.1567 49.8051 33.75C49.5717 33.3433 49.4551 32.8833 49.4551 32.37C49.4551 31.8567 49.5651 31.3967 49.7851 30.99C50.0117 30.5833 50.3184 30.2667 50.7051 30.04C51.0984 29.8133 51.5384 29.7 52.0251 29.7C52.5117 29.7 52.9484 29.8133 53.3351 30.04C53.7217 30.2667 54.0251 30.5833 54.2451 30.99C54.4651 31.39 54.5751 31.85 54.5751 32.37L54.5651 32.59ZM52.0251 30.31C51.5184 30.31 51.0917 30.4733 50.7451 30.8C50.4051 31.12 50.2117 31.54 50.1651 32.06H53.8951C53.8484 31.54 53.6517 31.12 53.3051 30.8C52.9651 30.4733 52.5384 30.31 52.0251 30.31ZM58.6067 29.7C59.1001 29.7 59.5467 29.8133 59.9467 30.04C60.3467 30.26 60.6601 30.5733 60.8867 30.98C61.1134 31.3867 61.2267 31.85 61.2267 32.37C61.2267 32.8967 61.1134 33.3633 60.8867 33.77C60.6601 34.1767 60.3467 34.4933 59.9467 34.72C59.5534 34.94 59.1067 35.05 58.6067 35.05C58.1801 35.05 57.7934 34.9633 57.4467 34.79C57.1067 34.61 56.8267 34.35 56.6067 34.01V36.94H55.8967V29.74H56.5767V30.78C56.7901 30.4333 57.0701 30.1667 57.4167 29.98C57.7701 29.7933 58.1667 29.7 58.6067 29.7ZM58.5567 34.42C58.9234 34.42 59.2567 34.3367 59.5567 34.17C59.8567 33.9967 60.0901 33.7533 60.2567 33.44C60.4301 33.1267 60.5167 32.77 60.5167 32.37C60.5167 31.97 60.4301 31.6167 60.2567 31.31C60.0901 30.9967 59.8567 30.7533 59.5567 30.58C59.2567 30.4067 58.9234 30.32 58.5567 30.32C58.1834 30.32 57.8467 30.4067 57.5467 30.58C57.2534 30.7533 57.0201 30.9967 56.8467 31.31C56.6801 31.6167 56.5967 31.97 56.5967 32.37C56.5967 32.77 56.6801 33.1267 56.8467 33.44C57.0201 33.7533 57.2534 33.9967 57.5467 34.17C57.8467 34.3367 58.1834 34.42 58.5567 34.42ZM64.7022 35.05C64.1822 35.05 63.7155 34.9367 63.3022 34.71C62.8955 34.4833 62.5755 34.1667 62.3422 33.76C62.1089 33.3467 61.9922 32.8833 61.9922 32.37C61.9922 31.8567 62.1089 31.3967 62.3422 30.99C62.5755 30.5833 62.8955 30.2667 63.3022 30.04C63.7155 29.8133 64.1822 29.7 64.7022 29.7C65.1555 29.7 65.5589 29.79 65.9122 29.97C66.2722 30.1433 66.5555 30.4 66.7622 30.74L66.2322 31.1C66.0589 30.84 65.8389 30.6467 65.5722 30.52C65.3055 30.3867 65.0155 30.32 64.7022 30.32C64.3222 30.32 63.9789 30.4067 63.6722 30.58C63.3722 30.7467 63.1355 30.9867 62.9622 31.3C62.7955 31.6133 62.7122 31.97 62.7122 32.37C62.7122 32.7767 62.7955 33.1367 62.9622 33.45C63.1355 33.7567 63.3722 33.9967 63.6722 34.17C63.9789 34.3367 64.3222 34.42 64.7022 34.42C65.0155 34.42 65.3055 34.3567 65.5722 34.23C65.8389 34.1033 66.0589 33.91 66.2322 33.65L66.7622 34.01C66.5555 34.35 66.2722 34.61 65.9122 34.79C65.5522 34.9633 65.1489 35.05 64.7022 35.05ZM70.147 31.6C70.807 31.6067 71.307 31.7533 71.647 32.04C71.9936 32.3267 72.167 32.74 72.167 33.28C72.167 33.84 71.9803 34.27 71.607 34.57C71.2403 34.87 70.707 35.0167 70.007 35.01L67.887 35V29.74H68.597V31.58L70.147 31.6ZM69.967 34.47C70.4536 34.4767 70.8203 34.38 71.067 34.18C71.3203 33.9733 71.447 33.6733 71.447 33.28C71.447 32.8933 71.3236 32.6067 71.077 32.42C70.8303 32.2333 70.4603 32.1367 69.967 32.13L68.597 32.11V34.45L69.967 34.47ZM75.1817 32.66H73.9817V35H73.2717V29.74H73.9817V32.05H75.1917L77.0417 29.74H77.8117L75.7417 32.29L77.9617 35H77.1217L75.1817 32.66ZM80.5446 29.7C81.2313 29.7 81.7579 29.8733 82.1246 30.22C82.4913 30.56 82.6746 31.0667 82.6746 31.74V35H81.9946V34.18C81.8346 34.4533 81.5979 34.6667 81.2846 34.82C80.9779 34.9733 80.6113 35.05 80.1846 35.05C79.5979 35.05 79.1313 34.91 78.7846 34.63C78.4379 34.35 78.2646 33.98 78.2646 33.52C78.2646 33.0733 78.4246 32.7133 78.7446 32.44C79.0713 32.1667 79.5879 32.03 80.2946 32.03H81.9646V31.71C81.9646 31.2567 81.8379 30.9133 81.5846 30.68C81.3313 30.44 80.9613 30.32 80.4746 30.32C80.1413 30.32 79.8213 30.3767 79.5146 30.49C79.2079 30.5967 78.9446 30.7467 78.7246 30.94L78.4046 30.41C78.6713 30.1833 78.9913 30.01 79.3646 29.89C79.7379 29.7633 80.1313 29.7 80.5446 29.7ZM80.2946 34.49C80.6946 34.49 81.0379 34.4 81.3246 34.22C81.6113 34.0333 81.8246 33.7667 81.9646 33.42V32.56H80.3146C79.4146 32.56 78.9646 32.8733 78.9646 33.5C78.9646 33.8067 79.0813 34.05 79.3146 34.23C79.5479 34.4033 79.8746 34.49 80.2946 34.49ZM92.5619 29.74V35H91.9119V30.84L89.7819 34.36H89.4619L87.3319 30.83V35H86.6819V29.74H87.4019L89.6319 33.53L91.9019 29.74H92.5619ZM96.1423 29.7C96.8289 29.7 97.3556 29.8733 97.7223 30.22C98.0889 30.56 98.2723 31.0667 98.2723 31.74V35H97.5923V34.18C97.4323 34.4533 97.1956 34.6667 96.8823 34.82C96.5756 34.9733 96.2089 35.05 95.7823 35.05C95.1956 35.05 94.7289 34.91 94.3823 34.63C94.0356 34.35 93.8623 33.98 93.8623 33.52C93.8623 33.0733 94.0223 32.7133 94.3423 32.44C94.6689 32.1667 95.1856 32.03 95.8923 32.03H97.5623V31.71C97.5623 31.2567 97.4356 30.9133 97.1823 30.68C96.9289 30.44 96.5589 30.32 96.0723 30.32C95.7389 30.32 95.4189 30.3767 95.1123 30.49C94.8056 30.5967 94.5423 30.7467 94.3223 30.94L94.0023 30.41C94.2689 30.1833 94.5889 30.01 94.9623 29.89C95.3356 29.7633 95.7289 29.7 96.1423 29.7ZM95.8923 34.49C96.2923 34.49 96.6356 34.4 96.9223 34.22C97.2089 34.0333 97.4223 33.7667 97.5623 33.42V32.56H95.9123C95.0123 32.56 94.5623 32.8733 94.5623 33.5C94.5623 33.8067 94.6789 34.05 94.9123 34.23C95.1456 34.4033 95.4723 34.49 95.8923 34.49ZM99.9123 29.74H100.622V33.92L104.132 29.74H104.762V35H104.052V30.82L100.552 35H99.9123V29.74ZM102.302 28.98C101.849 28.98 101.489 28.8667 101.222 28.64C100.956 28.4133 100.819 28.0933 100.812 27.68H101.322C101.329 27.94 101.422 28.15 101.602 28.31C101.782 28.4633 102.016 28.54 102.302 28.54C102.589 28.54 102.822 28.4633 103.002 28.31C103.189 28.15 103.286 27.94 103.292 27.68H103.802C103.796 28.0933 103.656 28.4133 103.382 28.64C103.116 28.8667 102.756 28.98 102.302 28.98ZM108.747 35.05C108.227 35.05 107.76 34.9367 107.347 34.71C106.94 34.4833 106.62 34.1667 106.387 33.76C106.154 33.3467 106.037 32.8833 106.037 32.37C106.037 31.8567 106.154 31.3967 106.387 30.99C106.62 30.5833 106.94 30.2667 107.347 30.04C107.76 29.8133 108.227 29.7 108.747 29.7C109.2 29.7 109.604 29.79 109.957 29.97C110.317 30.1433 110.6 30.4 110.807 30.74L110.277 31.1C110.104 30.84 109.884 30.6467 109.617 30.52C109.35 30.3867 109.06 30.32 108.747 30.32C108.367 30.32 108.024 30.4067 107.717 30.58C107.417 30.7467 107.18 30.9867 107.007 31.3C106.84 31.6133 106.757 31.97 106.757 32.37C106.757 32.7767 106.84 33.1367 107.007 33.45C107.18 33.7567 107.417 33.9967 107.717 34.17C108.024 34.3367 108.367 34.42 108.747 34.42C109.06 34.42 109.35 34.3567 109.617 34.23C109.884 34.1033 110.104 33.91 110.277 33.65L110.807 34.01C110.6 34.35 110.317 34.61 109.957 34.79C109.597 34.9633 109.194 35.05 108.747 35.05ZM115.534 30.37H113.544V35H112.834V30.37H110.844V29.74H115.534V30.37ZM120.667 32.59H116.267C116.307 33.1367 116.517 33.58 116.897 33.92C117.277 34.2533 117.757 34.42 118.337 34.42C118.663 34.42 118.963 34.3633 119.237 34.25C119.51 34.13 119.747 33.9567 119.947 33.73L120.347 34.19C120.113 34.47 119.82 34.6833 119.467 34.83C119.12 34.9767 118.737 35.05 118.317 35.05C117.777 35.05 117.297 34.9367 116.877 34.71C116.463 34.4767 116.14 34.1567 115.907 33.75C115.673 33.3433 115.557 32.8833 115.557 32.37C115.557 31.8567 115.667 31.3967 115.887 30.99C116.113 30.5833 116.42 30.2667 116.807 30.04C117.2 29.8133 117.64 29.7 118.127 29.7C118.613 29.7 119.05 29.8133 119.437 30.04C119.823 30.2667 120.127 30.5833 120.347 30.99C120.567 31.39 120.677 31.85 120.677 32.37L120.667 32.59ZM118.127 30.31C117.62 30.31 117.193 30.4733 116.847 30.8C116.507 31.12 116.313 31.54 116.267 32.06H119.997C119.95 31.54 119.753 31.12 119.407 30.8C119.067 30.4733 118.64 30.31 118.127 30.31ZM124.708 29.7C125.202 29.7 125.648 29.8133 126.048 30.04C126.448 30.26 126.762 30.5733 126.988 30.98C127.215 31.3867 127.328 31.85 127.328 32.37C127.328 32.8967 127.215 33.3633 126.988 33.77C126.762 34.1767 126.448 34.4933 126.048 34.72C125.655 34.94 125.208 35.05 124.708 35.05C124.282 35.05 123.895 34.9633 123.548 34.79C123.208 34.61 122.928 34.35 122.708 34.01V36.94H121.998V29.74H122.678V30.78C122.892 30.4333 123.172 30.1667 123.518 29.98C123.872 29.7933 124.268 29.7 124.708 29.7ZM124.658 34.42C125.025 34.42 125.358 34.3367 125.658 34.17C125.958 33.9967 126.192 33.7533 126.358 33.44C126.532 33.1267 126.618 32.77 126.618 32.37C126.618 31.97 126.532 31.6167 126.358 31.31C126.192 30.9967 125.958 30.7533 125.658 30.58C125.358 30.4067 125.025 30.32 124.658 30.32C124.285 30.32 123.948 30.4067 123.648 30.58C123.355 30.7533 123.122 30.9967 122.948 31.31C122.782 31.6167 122.698 31.97 122.698 32.37C122.698 32.77 122.782 33.1267 122.948 33.44C123.122 33.7533 123.355 33.9967 123.648 34.17C123.948 34.3367 124.285 34.42 124.658 34.42ZM128.604 29.74H129.314V32.07H132.624V29.74H133.334V35H132.624V32.68H129.314V35H128.604V29.74ZM139.142 29.74V35H138.492V33.26H136.842H136.642L135.422 35H134.652L135.962 33.16C135.555 33.0467 135.242 32.8533 135.022 32.58C134.802 32.3067 134.692 31.96 134.692 31.54C134.692 30.9533 134.892 30.5067 135.292 30.2C135.692 29.8933 136.238 29.74 136.932 29.74H139.142ZM135.412 31.56C135.412 32.34 135.908 32.73 136.902 32.73H138.492V30.37H136.952C135.925 30.37 135.412 30.7667 135.412 31.56Z" fill="#8E0821"/>
<path d="M46.2327 20.06L46.2527 20C46.2527 19.8667 46.1393 19.7933 45.9127 19.78C45.6327 19.6067 45.3327 19.3133 45.0127 18.9C44.6927 18.4733 44.4927 18.1467 44.4127 17.92C44.3727 17.8133 44.3527 17.74 44.3527 17.7C44.3527 17.6333 44.3793 17.5867 44.4327 17.56C44.486 17.52 44.5527 17.4867 44.6327 17.46C44.7127 17.42 44.7727 17.3933 44.8127 17.38C45.0527 17.22 45.2327 17.14 45.3527 17.14C45.486 17.14 45.5993 17.2267 45.6927 17.4C45.8793 17.7333 46.1793 18.0133 46.5927 18.24C47.006 18.4533 47.466 18.56 47.9727 18.56C48.426 18.56 48.8327 18.48 49.1927 18.32C49.5393 18.16 49.7127 17.9267 49.7127 17.62C49.7127 17.3933 49.6127 17.12 49.4127 16.8C49.386 16.72 49.3393 16.6467 49.2727 16.58C49.206 16.5133 49.126 16.4467 49.0327 16.38C48.8193 16.22 48.586 16.0133 48.3327 15.76C48.1193 15.68 47.8993 15.5733 47.6727 15.44L47.2527 15.24C46.9193 15.08 46.546 14.8267 46.1327 14.48C45.7193 14.12 45.4327 13.7867 45.2727 13.48C44.9793 13.2 44.8327 12.7733 44.8327 12.2C44.8327 11.5733 44.9793 10.9867 45.2727 10.44C45.4327 10.08 45.8193 9.52667 46.4327 8.78C47.046 8.03333 47.4993 7.56667 47.7927 7.38L48.3127 6.88C48.326 6.82667 48.346 6.8 48.3727 6.8C48.3993 6.78667 48.4193 6.78 48.4327 6.78C48.4727 6.75333 48.6127 6.69333 48.8527 6.6C49.0927 6.49333 49.346 6.31333 49.6127 6.06C50.426 5.66 51.146 5.38 51.7727 5.22C52.4127 5.04667 52.946 4.96 53.3727 4.96C53.8927 4.98667 54.3727 5.17333 54.8127 5.52C55.266 5.86667 55.526 6.26667 55.5927 6.72C55.6193 6.85333 55.6327 6.96 55.6327 7.04C55.6327 7.53333 55.4327 8.08667 55.0327 8.7C54.6327 9.31333 54.206 9.74667 53.7527 10C53.5527 10.0933 53.3593 10.14 53.1727 10.14C52.946 10.14 52.7593 10.08 52.6127 9.96C52.4793 9.84 52.4193 9.68667 52.4327 9.5C52.4327 9.38 52.4727 9.24667 52.5527 9.1C52.646 8.94 52.846 8.68667 53.1527 8.34C53.606 7.67333 53.8327 7.19333 53.8327 6.9C53.8327 6.7 53.7127 6.58 53.4727 6.54C53.326 6.5 52.926 6.56 52.2727 6.72C51.6327 6.86667 51.3127 6.97333 51.3127 7.04C51.3127 7.05333 51.306 7.08 51.2927 7.12C51.2927 7.14667 51.2727 7.15333 51.2327 7.14C51.1793 7.12667 50.7993 7.34667 50.0927 7.8C49.3993 8.25333 49.0393 8.51333 49.0127 8.58C48.9993 8.64667 48.946 8.72 48.8527 8.8C48.7727 8.86667 48.6727 8.92667 48.5527 8.98C48.3127 9.12667 48.0927 9.32667 47.8927 9.58C47.706 9.83333 47.4593 10.2333 47.1527 10.78C46.9927 11.0067 46.8593 11.2533 46.7527 11.52C46.6593 11.7867 46.6127 12.0267 46.6127 12.24C46.6127 12.3867 46.6327 12.5133 46.6727 12.62C46.726 12.82 46.866 13.0067 47.0927 13.18C47.3327 13.34 47.786 13.62 48.4527 14.02C49.1327 14.4067 49.746 14.82 50.2927 15.26C50.8393 15.6867 51.1727 16.0267 51.2927 16.28C51.506 16.5867 51.6127 16.9867 51.6127 17.48C51.6127 17.8667 51.5593 18.2333 51.4527 18.58C51.3327 18.8333 51.1793 19.0667 50.9927 19.28C50.806 19.5067 50.6393 19.6133 50.4927 19.6C50.3593 19.64 50.246 19.6867 50.1527 19.74C50.0593 19.8067 49.9793 19.8533 49.9127 19.88C49.7527 19.9733 49.3393 20.0667 48.6727 20.16C48.0193 20.2667 47.4727 20.3133 47.0327 20.3L46.2327 20.06ZM58.0096 18.4C57.8096 18.4 57.6096 18.2533 57.4096 17.96C57.2096 17.6533 57.0496 17.28 56.9296 16.84C56.8229 16.3867 56.7829 15.9533 56.8096 15.54C56.8096 15.06 56.8429 14.66 56.9096 14.34C56.9762 14.02 57.0162 13.82 57.0296 13.74C57.0562 13.6733 57.0829 13.56 57.1096 13.4C57.1362 13.2267 57.1896 12.9867 57.2696 12.68C57.3629 12.2933 57.4696 12.0067 57.5896 11.82C57.7762 11.5533 58.0229 11.42 58.3296 11.42C58.4896 11.42 58.6296 11.4667 58.7496 11.56C58.8829 11.64 58.9562 11.76 58.9696 11.92C59.0496 12 59.0896 12.1933 59.0896 12.5C59.0896 12.7267 59.0696 12.9467 59.0296 13.16C58.9896 13.3733 58.9362 13.5267 58.8696 13.62C58.8296 13.7 58.7696 14.0867 58.6896 14.78C58.6362 15.2867 58.5962 15.6133 58.5696 15.76C58.5562 15.8133 58.5496 15.8867 58.5496 15.98C58.5496 16.1533 58.5962 16.24 58.6896 16.24C58.8896 16.24 59.2562 15.8467 59.7896 15.06C60.1496 14.5267 60.3829 14.1467 60.4896 13.92C60.6096 13.68 60.7562 13.32 60.9296 12.84C61.0629 12.4267 61.1829 12.16 61.2896 12.04C61.4229 11.8533 61.6096 11.76 61.8496 11.76C62.0762 11.76 62.2896 11.8333 62.4896 11.98C62.6896 12.18 62.7896 12.44 62.7896 12.76C62.7896 13 62.7229 13.2533 62.5896 13.52C62.4296 13.8533 62.2829 14.26 62.1496 14.74C62.0162 15.22 61.9496 15.6133 61.9496 15.92C61.9496 16.16 61.9762 16.3133 62.0296 16.38C62.0962 16.4333 62.1962 16.46 62.3296 16.46C62.4762 16.46 62.6162 16.4067 62.7496 16.3C62.8962 16.1933 63.1229 15.9867 63.4296 15.68C63.6562 15.4533 63.9696 15.0267 64.3696 14.4C64.7696 13.7733 64.9696 13.4 64.9696 13.28C64.9696 13.2 65.0296 13.0867 65.1496 12.94C65.2162 12.8467 65.2762 12.7667 65.3296 12.7C65.3962 12.6333 65.4896 12.5667 65.6096 12.5C65.6896 12.4733 65.7562 12.46 65.8096 12.46C65.9962 12.46 66.1629 12.5333 66.3096 12.68C66.3629 12.7333 66.4096 12.86 66.4496 13.06C66.4896 13.26 66.5096 13.4467 66.5096 13.62C66.2296 14.66 66.0096 15.2667 65.8496 15.44C65.5962 15.64 65.3829 15.8867 65.2096 16.18C64.8896 16.5667 64.6362 16.84 64.4496 17C64.2762 17.1467 64.1629 17.2467 64.1096 17.3C63.8162 17.5933 63.4762 17.8267 63.0896 18C62.7029 18.1733 62.3429 18.26 62.0096 18.26C61.7429 18.26 61.5296 18.2 61.3696 18.08C60.9562 17.8667 60.7496 17.5067 60.7496 17C60.7496 16.9067 60.7362 16.82 60.7096 16.74C60.6829 16.66 60.6629 16.6067 60.6496 16.58C60.4496 16.58 60.2896 16.6867 60.1696 16.9C59.9829 17.22 59.6362 17.5533 59.1296 17.9C58.6362 18.2333 58.2629 18.4 58.0096 18.4ZM73.0016 19C72.2416 19 71.6283 18.7867 71.1616 18.36C70.6949 17.9333 70.4616 17.3267 70.4616 16.54C70.4616 16.2333 70.4816 15.8933 70.5216 15.52C70.5483 15.2 70.6749 14.76 70.9016 14.2C71.1416 13.64 71.4616 13.0933 71.8616 12.56C72.2749 12.0267 72.7549 11.6333 73.3016 11.38C73.5549 11.26 73.7683 11.18 73.9416 11.14C74.1149 11.0867 74.3149 11.06 74.5416 11.06C75.0883 11.06 75.5283 11.16 75.8616 11.36C76.2083 11.56 76.4483 11.7867 76.5816 12.04C76.7283 12.2933 76.8016 12.5133 76.8016 12.7V12.8V12.86C76.8016 13.02 76.7083 13.3133 76.5216 13.74C76.3349 14.1667 76.0349 14.5667 75.6216 14.94C75.2216 15.3133 74.7016 15.52 74.0616 15.56C73.7416 15.56 73.4283 15.5333 73.1216 15.48C72.8283 15.4133 72.6416 15.38 72.5616 15.38C72.3616 15.38 72.2349 15.4533 72.1816 15.6C72.1283 15.7467 72.1016 15.9933 72.1016 16.34C72.1416 16.7133 72.2416 16.9733 72.4016 17.12C72.5749 17.2667 72.8216 17.34 73.1416 17.34C73.3016 17.34 73.4883 17.2933 73.7016 17.2C73.9149 17.0933 74.1683 16.9267 74.4616 16.7C74.6216 16.5667 74.7483 16.4733 74.8416 16.42C74.9349 16.3667 75.0483 16.34 75.1816 16.34C75.3016 16.34 75.4416 16.42 75.6016 16.58C75.7616 16.74 75.8483 16.8933 75.8616 17.04C75.8349 17.2 75.6883 17.44 75.4216 17.76C75.1549 18.08 74.8083 18.3667 74.3816 18.62C73.9549 18.8733 73.4949 19 73.0016 19ZM73.7016 14.18C73.9549 14.18 74.1283 14.1533 74.2216 14.1C74.3549 14.0333 74.5549 13.8667 74.8216 13.6C75.1016 13.32 75.2483 13.1267 75.2616 13.02C75.2616 12.8867 75.2016 12.78 75.0816 12.7C74.9749 12.6067 74.8216 12.5467 74.6216 12.52H74.4016C74.2283 12.52 73.9749 12.6667 73.6416 12.96C73.3216 13.24 73.0416 13.5667 72.8016 13.94C72.8149 14.0067 72.9149 14.0667 73.1016 14.12C73.2883 14.16 73.4883 14.18 73.7016 14.18ZM82.8413 19.36C81.3213 19.36 80.5613 18.4933 80.5613 16.76C80.5613 16.1333 80.7146 15.4267 81.0213 14.64C81.3413 13.84 81.7346 13.1267 82.2013 12.5C82.6813 11.86 83.1546 11.4333 83.6213 11.22C83.8746 11.0867 84.1679 11.02 84.5013 11.02C85.1013 11.02 85.6213 11.1533 86.0613 11.42C86.5146 11.6733 86.7413 12.16 86.7413 12.88C86.7413 13.2933 86.6013 13.7467 86.3213 14.24C86.0413 14.7333 85.6879 15.1533 85.2613 15.5C84.8479 15.8333 84.4413 16 84.0413 16C83.4413 16 82.9346 15.8067 82.5213 15.42C82.2946 15.8733 82.1813 16.3067 82.1813 16.72C82.1813 17.0533 82.2213 17.3133 82.3013 17.5C82.3813 17.6733 82.5679 17.76 82.8613 17.76C83.1413 17.76 83.3679 17.72 83.5413 17.64C83.7146 17.56 83.8746 17.4667 84.0213 17.36C84.1679 17.2533 84.2813 17.1733 84.3613 17.12L84.4413 17.08H84.4213C84.6613 16.9467 84.8346 16.8467 84.9413 16.78C85.0613 16.7 85.1613 16.6467 85.2413 16.62C85.4413 16.62 85.6279 16.68 85.8013 16.8C85.9746 16.92 86.0613 17.0667 86.0613 17.24C86.0613 17.3733 85.9413 17.5933 85.7013 17.9C85.4613 18.1933 85.2146 18.4 84.9613 18.52L84.7213 18.64H84.7413C84.6213 18.8 84.5013 18.88 84.3813 18.88H84.2213C84.1679 18.9867 83.9879 19.0933 83.6813 19.2C83.3879 19.3067 83.1079 19.36 82.8413 19.36ZM83.8813 14.54C84.2546 14.54 84.5613 14.38 84.8013 14.06C85.0546 13.74 85.1813 13.42 85.1813 13.1C85.1813 12.9533 85.1413 12.82 85.0613 12.7C84.9946 12.58 84.9013 12.52 84.7813 12.52C84.5546 12.52 84.3013 12.6267 84.0213 12.84C83.7413 13.0533 83.4946 13.3333 83.2813 13.68L83.0213 14.1C83.0746 14.0733 83.1146 14.06 83.1413 14.06C83.2479 14.06 83.3279 14.1067 83.3813 14.2C83.4346 14.2933 83.4946 14.3733 83.5613 14.44C83.6279 14.5067 83.7346 14.54 83.8813 14.54ZM93.701 19.12C93.4076 19.04 93.0276 18.7933 92.561 18.38C92.3343 18.0867 92.201 17.8267 92.161 17.6C92.121 17.36 92.101 16.8933 92.101 16.2C92.101 15.88 92.261 15.08 92.581 13.8C92.5943 13.7467 92.641 13.5667 92.721 13.26C92.761 13.1133 92.7076 13.02 92.561 12.98C92.4143 12.94 92.2076 12.92 91.941 12.92C91.7143 12.92 91.581 12.9067 91.541 12.88C91.501 12.8667 91.4743 12.8067 91.461 12.7C91.461 12.5933 91.461 12.52 91.461 12.48C91.461 12.44 91.4276 12.4 91.361 12.36C91.3076 12.32 91.2676 12.28 91.241 12.24C91.201 12.1867 91.2343 12.0867 91.341 11.94C91.4476 11.7933 91.5676 11.7067 91.701 11.68C91.781 11.6667 91.9543 11.6467 92.221 11.62C92.4876 11.5933 92.741 11.54 92.981 11.46C93.2343 11.38 93.421 11.2667 93.541 11.12C93.7143 10.6667 93.9143 10.1867 94.141 9.68C94.381 9.17333 94.5476 8.87333 94.641 8.78C94.8543 8.67333 95.0476 8.62 95.221 8.62C95.5143 8.62 95.741 8.74 95.901 8.98C95.941 9.03333 95.9876 9.08667 96.041 9.14C96.0943 9.19333 96.121 9.25333 96.121 9.32C96.121 9.41333 96.0743 9.56 95.981 9.76C95.901 9.96 95.7343 10.2867 95.481 10.74L95.221 11.24C95.261 11.2533 95.3543 11.26 95.501 11.26C95.6476 11.26 95.7676 11.2533 95.861 11.24C96.1543 11.1867 96.381 11.16 96.541 11.16C96.661 11.16 96.7476 11.1667 96.801 11.18C97.361 11.18 97.6676 11.4867 97.721 12.1C97.7476 12.26 97.6876 12.3933 97.541 12.5C97.4076 12.5933 97.1676 12.64 96.821 12.64C95.4476 12.6933 94.7543 12.7533 94.741 12.82C94.6743 12.86 94.5676 13.0667 94.421 13.44C94.2743 13.8133 94.1543 14.1667 94.061 14.5C93.901 15.1933 93.821 15.8467 93.821 16.46C93.821 17.0467 93.9076 17.4267 94.081 17.6C94.1343 17.6533 94.2076 17.68 94.301 17.68C94.541 17.68 94.881 17.5 95.321 17.14C95.4676 17.0067 95.6276 16.94 95.801 16.94C95.9476 16.94 96.061 16.9933 96.141 17.1C96.2343 17.2067 96.281 17.3467 96.281 17.52C96.281 17.72 96.2143 17.9133 96.081 18.1C95.881 18.4067 95.581 18.66 95.181 18.86C94.781 19.06 94.401 19.16 94.041 19.16C93.881 19.16 93.7676 19.1467 93.701 19.12ZM109.906 19.6C109.706 19.5333 109.552 19.4133 109.446 19.24C109.352 19.0667 109.306 18.8133 109.306 18.48C109.306 17.9333 109.359 17.4 109.466 16.88L109.486 16.72C109.499 16.64 109.519 16.5133 109.546 16.34C109.572 16.1533 109.592 16.1 109.606 16.18L109.726 15.64C109.819 15.2667 109.906 14.92 109.986 14.6C110.079 14.28 110.152 14.0467 110.206 13.9L110.426 13.2C110.826 11.9067 111.199 11.0333 111.546 10.58C111.559 10.5267 111.579 10.48 111.606 10.44C111.632 10.3867 111.652 10.3333 111.666 10.28C111.666 10.0667 111.706 9.9 111.786 9.78C111.906 9.58 112.006 9.4 112.086 9.24L112.166 9.02L112.726 7.88C112.766 7.74667 112.846 7.6 112.966 7.44C113.099 7.28 113.232 7.17333 113.366 7.12L113.346 7.1C113.412 6.99333 113.532 6.9 113.706 6.82C113.892 6.74 114.052 6.7 114.186 6.7C114.359 6.7 114.499 6.75333 114.606 6.86C114.712 6.96667 114.766 7.11333 114.766 7.3V7.5C114.766 7.62 114.752 7.71333 114.726 7.78C114.712 7.84667 114.672 7.92667 114.606 8.02H114.626C114.639 8.03333 114.626 8.08 114.586 8.16C114.559 8.22667 114.532 8.29333 114.506 8.36C114.412 8.6 114.346 8.73333 114.306 8.76C114.212 8.88 113.906 9.44667 113.386 10.46C112.866 11.46 112.532 12.1533 112.386 12.54L112.306 12.84L112.266 12.96C112.119 13.28 112.039 13.4533 112.026 13.48L111.706 14.72L111.626 15.14L111.446 15.6L111.326 15.98C111.299 16.0467 111.272 16.1333 111.246 16.24C111.232 16.3467 111.212 16.4133 111.186 16.44L111.166 16.54C111.152 16.5933 111.106 16.7467 111.026 17C110.906 17.3733 110.819 17.6867 110.766 17.94C110.712 18.18 110.679 18.44 110.666 18.72L110.646 18.8C110.606 19.0933 110.519 19.3133 110.386 19.46C110.266 19.6067 110.106 19.6533 109.906 19.6ZM120.26 10.68C120.1 10.68 119.907 10.6067 119.68 10.46C119.454 10.3133 119.254 10.1267 119.08 9.9C118.92 9.66 118.84 9.42 118.84 9.18C118.84 9.1 118.98 8.85333 119.26 8.44C119.447 8.18667 119.54 8.03333 119.54 7.98C119.634 7.98 119.754 8 119.9 8.04C120.047 8.08 120.174 8.12667 120.28 8.18C120.36 8.36667 120.52 8.60667 120.76 8.9C120.92 9.1 121.034 9.26667 121.1 9.4C121.18 9.53333 121.22 9.67333 121.22 9.82C121.22 10.1133 121.14 10.3333 120.98 10.48C120.834 10.6133 120.594 10.68 120.26 10.68ZM117.54 18.34C117.5 18.34 117.4 18.3067 117.24 18.24C117.094 18.1733 116.994 18.1267 116.94 18.1C116.94 18.06 116.92 17.9933 116.88 17.9C116.854 17.7933 116.84 17.7267 116.84 17.7C116.72 17.6467 116.62 17.56 116.54 17.44C116.474 17.3067 116.46 17.1733 116.5 17.04C116.687 16.72 117.02 15.9867 117.5 14.84C117.994 13.68 118.267 13.0133 118.32 12.84C118.32 12.5467 118.414 12.34 118.6 12.22C118.694 12.1533 118.787 12.12 118.88 12.12C119.107 12.12 119.32 12.2733 119.52 12.58C119.72 12.8867 119.82 13.2467 119.82 13.66C119.82 13.82 119.667 14.28 119.36 15.04C119.067 15.7867 118.734 16.54 118.36 17.3C118.147 17.7267 117.987 18.0067 117.88 18.14C117.787 18.2733 117.674 18.34 117.54 18.34ZM125.386 21.42C125.306 21.4733 125.12 21.4067 124.826 21.22C124.546 21.0467 124.313 20.8533 124.126 20.64C124.046 20.56 123.993 20.48 123.966 20.4C123.94 20.3333 123.926 20.24 123.926 20.12L123.966 19.62C124.033 19.42 124.066 19.1867 124.066 18.92C124.066 18.8133 124.113 18.48 124.206 17.92C124.3 17.3467 124.373 16.9333 124.426 16.68L124.486 16.44C124.593 16 124.673 15.5933 124.726 15.22C124.833 14.8867 124.92 14.56 124.986 14.24C125.066 13.9067 125.106 13.68 125.106 13.56C125.106 13.32 125.2 13.1467 125.386 13.04C125.4 12.9333 125.5 12.7133 125.686 12.38C126.006 11.4733 126.24 10.8267 126.386 10.44C126.546 10.04 126.713 9.69333 126.886 9.4C127.126 8.73333 127.32 8.31333 127.466 8.14C127.56 7.91333 127.813 7.58 128.226 7.14C128.64 6.7 129.006 6.34667 129.326 6.08C129.993 5.73333 130.553 5.56 131.006 5.56C131.393 5.56 131.84 5.8 132.346 6.28C132.533 6.48 132.64 6.61333 132.666 6.68C132.693 6.74667 132.706 6.87333 132.706 7.06C132.653 7.31333 132.42 7.76 132.006 8.4C131.593 9.04 131.333 9.36667 131.226 9.38C131.066 9.43333 130.96 9.46 130.906 9.46C130.786 9.46 130.686 9.42 130.606 9.34C130.526 9.26 130.486 9.14 130.486 8.98C130.486 8.72667 130.566 8.43333 130.726 8.1C130.886 7.88667 130.966 7.7 130.966 7.54C130.966 7.31333 130.786 7.2 130.426 7.2C130.32 7.25333 130.106 7.44667 129.786 7.78C129.48 8.1 129.326 8.3 129.326 8.38C129.313 8.40667 129.273 8.48 129.206 8.6C129.153 8.70667 129.066 8.83333 128.946 8.98C128.706 9.31333 128.586 9.52 128.586 9.6C128.586 9.77333 128.546 9.86 128.466 9.86C128.453 9.88667 128.42 9.96667 128.366 10.1C128.326 10.22 128.266 10.3533 128.186 10.5C128.133 10.62 128.066 10.7533 127.986 10.9C127.906 11.0467 127.84 11.1467 127.786 11.2H127.806C127.766 11.2933 127.693 11.4733 127.586 11.74C127.48 11.9933 127.426 12.14 127.426 12.18C127.426 12.2333 127.506 12.26 127.666 12.26C127.96 12.26 128.373 12.1867 128.906 12.04C129.08 11.9867 129.206 11.96 129.286 11.96C129.38 11.96 129.513 11.9867 129.686 12.04C129.833 12.1333 129.953 12.34 130.046 12.66C130.14 12.98 130.16 13.18 130.106 13.26C130.093 13.3133 129.946 13.3867 129.666 13.48C129.4 13.5733 129.12 13.6467 128.826 13.7L128.006 13.88C127.246 14.04 126.866 14.1467 126.866 14.2C126.813 14.2 126.766 14.2267 126.726 14.28C126.686 14.3333 126.666 14.3867 126.666 14.44C126.666 14.6267 126.64 14.7667 126.586 14.86C126.52 15.0467 126.406 15.4933 126.246 16.2C126.1 16.9067 126.026 17.34 126.026 17.5C125.92 17.6333 125.866 17.8733 125.866 18.22C125.786 18.3667 125.746 18.5333 125.746 18.72C125.746 18.8 125.74 18.8667 125.726 18.92C125.726 18.9867 125.713 19.1467 125.686 19.4C125.66 19.6533 125.646 19.8867 125.646 20.1L125.586 20.68C125.573 20.84 125.553 20.9867 125.526 21.12C125.5 21.2533 125.453 21.3533 125.386 21.42ZM136.502 19C135.742 19 135.129 18.7867 134.662 18.36C134.196 17.9333 133.962 17.3267 133.962 16.54C133.962 16.2333 133.982 15.8933 134.022 15.52C134.049 15.2 134.176 14.76 134.402 14.2C134.642 13.64 134.962 13.0933 135.362 12.56C135.776 12.0267 136.256 11.6333 136.802 11.38C137.056 11.26 137.269 11.18 137.442 11.14C137.616 11.0867 137.816 11.06 138.042 11.06C138.589 11.06 139.029 11.16 139.362 11.36C139.709 11.56 139.949 11.7867 140.082 12.04C140.229 12.2933 140.302 12.5133 140.302 12.7V12.8V12.86C140.302 13.02 140.209 13.3133 140.022 13.74C139.836 14.1667 139.536 14.5667 139.122 14.94C138.722 15.3133 138.202 15.52 137.562 15.56C137.242 15.56 136.929 15.5333 136.622 15.48C136.329 15.4133 136.142 15.38 136.062 15.38C135.862 15.38 135.736 15.4533 135.682 15.6C135.629 15.7467 135.602 15.9933 135.602 16.34C135.642 16.7133 135.742 16.9733 135.902 17.12C136.076 17.2667 136.322 17.34 136.642 17.34C136.802 17.34 136.989 17.2933 137.202 17.2C137.416 17.0933 137.669 16.9267 137.962 16.7C138.122 16.5667 138.249 16.4733 138.342 16.42C138.436 16.3667 138.549 16.34 138.682 16.34C138.802 16.34 138.942 16.42 139.102 16.58C139.262 16.74 139.349 16.8933 139.362 17.04C139.336 17.2 139.189 17.44 138.922 17.76C138.656 18.08 138.309 18.3667 137.882 18.62C137.456 18.8733 136.996 19 136.502 19ZM137.202 14.18C137.456 14.18 137.629 14.1533 137.722 14.1C137.856 14.0333 138.056 13.8667 138.322 13.6C138.602 13.32 138.749 13.1267 138.762 13.02C138.762 12.8867 138.702 12.78 138.582 12.7C138.476 12.6067 138.322 12.5467 138.122 12.52H137.902C137.729 12.52 137.476 12.6667 137.142 12.96C136.822 13.24 136.542 13.5667 136.302 13.94C136.316 14.0067 136.416 14.0667 136.602 14.12C136.789 14.16 136.989 14.18 137.202 14.18Z" fill="#8E0821"/>
<path d="M39.3661 5.82058C39.3668 5.80852 39.3667 5.79643 39.3658 5.78437C39.3608 5.77161 39.3549 5.75914 39.3481 5.747C39.3238 5.68716 39.2819 5.63314 39.2263 5.58979C39.2055 5.57564 39.1831 5.56317 39.1594 5.55259C39.1383 5.54135 39.1161 5.53175 39.0928 5.52388C39.0639 5.51633 39.034 5.51137 39.0038 5.50907C38.9858 5.50497 38.9674 5.50193 38.9489 5.49992C38.9443 5.49992 38.9406 5.50193 38.9361 5.50202C38.9313 5.5021 38.9271 5.50038 38.9223 5.50058L24.0878 6.26437C24.0319 5.1944 23.1936 4.25962 21.9694 3.90213C22.027 3.6674 22.1484 3.44653 22.3243 3.25606C22.7774 2.85378 23.4317 2.64821 24.0945 2.69997C24.3289 2.69997 24.5189 2.54329 24.5189 2.34998C24.5189 2.15668 24.329 2 24.0946 2C23.005 2 22.186 2.27583 21.6604 2.81961C21.4012 3.09581 21.2222 3.41729 21.1369 3.7594C21.0621 3.75505 20.9876 3.74996 20.9115 3.74996C19.3404 3.75222 18.0059 4.69885 17.7685 5.97964C17.3484 5.67104 16.8056 5.50038 16.243 5.49997C15.199 5.50234 14.2843 6.07681 14.0039 6.90606C13.9441 6.96581 13.9105 7.0405 13.9087 7.11802V18.846C13.9088 21.1364 16.3838 22.9999 19.4261 22.9999C19.4514 22.9977 19.4765 22.9935 19.5008 22.9874C19.574 23.0054 19.6522 23.004 19.7243 22.9835L39.0774 17.9119C39.0838 17.9102 39.0881 17.9061 39.0944 17.9041C39.1221 17.8946 39.1485 17.8825 39.173 17.8682C39.2674 17.8271 39.3335 17.7524 39.3519 17.6657C39.3609 17.6424 39.3667 17.6185 39.3694 17.5941C39.3697 17.5886 39.3733 17.5839 39.3733 17.5783V5.84999C39.3732 5.83953 39.3672 5.83076 39.3661 5.82058ZM18.8003 5.55046C19.1859 4.87711 20.0086 4.44825 20.9116 4.44997C20.9569 4.44997 21.0013 4.45346 21.046 4.45559C21.0426 4.71497 21.0723 4.97394 21.1345 5.22824C21.1787 5.38709 21.3501 5.4998 21.5477 5.49997C21.5798 5.50005 21.6118 5.49705 21.6431 5.49107C21.8715 5.44784 22.0142 5.26011 21.9618 5.07172C21.9618 5.07172 21.9618 5.07172 21.9618 5.07168C21.9286 4.92715 21.9081 4.7808 21.9006 4.63384C23.0637 5.08674 23.5613 6.23143 23.0121 7.19058C22.4629 8.14972 21.0748 8.56008 19.9118 8.10719C18.7487 7.6543 18.2511 6.5096 18.8003 5.55046ZM19.0017 22.2859C16.6256 22.1266 14.7576 20.6446 14.7576 18.846V9.39097C15.719 10.5718 17.2823 11.3254 19.0017 11.4366V22.2859ZM19.3681 10.7476C16.9324 10.7229 14.8802 9.16059 14.7685 7.27811C14.7738 7.24714 14.779 7.21576 14.7877 7.18197C14.928 6.61087 15.5365 6.20026 16.2431 6.19998C16.8819 6.20112 17.4487 6.53798 17.6521 7.03739C17.6942 7.13902 17.7916 7.21859 17.9153 7.25239C18.5005 8.61738 20.3167 9.33265 21.9719 8.85002C22.9958 8.55143 23.7641 7.8424 24.0091 6.96983L35.6419 6.37089L26.0851 8.94017C26.079 8.94181 26.075 8.94579 26.0691 8.94764C26.0418 8.95732 26.0158 8.96946 25.9917 8.98381C25.8972 9.0245 25.8313 9.09931 25.8136 9.18602C25.8044 9.2096 25.7985 9.23397 25.7958 9.25866C25.7956 9.26374 25.7923 9.26801 25.7923 9.27314V11.1C25.7923 11.2933 25.6023 11.45 25.3679 11.45C25.1335 11.45 24.9435 11.2933 24.9435 11.1V9.7314C24.9435 9.53809 24.7535 9.38142 24.5191 9.38142C24.2847 9.38142 24.0947 9.53814 24.0947 9.7314V18.4499C24.0947 18.6432 23.9047 18.7999 23.6703 18.7999C23.4359 18.7999 23.2459 18.6432 23.2459 18.4499V10.1863C23.2353 10.1507 23.2283 10.1143 23.225 10.0777C23.2231 10.0728 23.2183 10.0695 23.2161 10.0647C23.2046 10.0425 23.1901 10.0214 23.1731 10.0018C23.1515 9.9633 23.1158 9.93143 23.0711 9.91072C23.0335 9.88057 22.9852 9.86105 22.9334 9.85498C22.9025 9.84657 22.8704 9.84124 22.838 9.83911C22.8322 9.8389 22.8274 9.83636 22.8215 9.83636C22.7995 9.83849 22.7777 9.8421 22.7563 9.84723C22.734 9.84788 22.7118 9.8501 22.6899 9.85379L19.3681 10.7476ZM19.8505 16.9177V15.5537L22.397 14.8685V16.2325L19.8505 16.9177ZM22.397 16.9685V18.3332L19.8505 19.0176V17.6537L22.397 16.9685ZM19.8505 14.8177V11.3537L22.397 10.6685V14.1325L19.8505 14.8177ZM38.5245 17.3223L19.8505 22.2159V19.7541L22.6005 19.015C22.9778 19.5032 23.7635 19.6467 24.3555 19.3356C24.7223 19.1428 24.9442 18.8086 24.9434 18.4499V18.3855L38.5245 14.7324V17.3223ZM38.5245 13.9957L24.9434 17.6489V16.2855L38.5245 12.6325V13.9957ZM38.5245 11.8957L24.9434 15.5489V14.1855L38.5245 10.5325V11.8957ZM38.5245 9.79575L24.9434 13.4489V12.0854C25.0793 12.1269 25.2229 12.1488 25.3678 12.15C26.0707 12.1493 26.6403 11.6796 26.641 11.1V9.52727L38.5244 6.33233V9.79575H38.5245Z" fill="#8E0821"/>
</svg>
