<svg width="239" height="58" viewBox="0 0 239 58" fill="none" xmlns="http://www.w3.org/2000/svg">
<path d="M75.5104 51.958H73.9504V55H73.0274V48.162H73.9504V51.165H75.5234L77.9284 48.162H78.9294L76.2384 51.477L79.1244 55H78.0324L75.5104 51.958ZM82.9009 55.065C82.2422 55.065 81.6485 54.9177 81.1199 54.623C80.5912 54.3197 80.1752 53.9037 79.8719 53.375C79.5685 52.8463 79.4169 52.2483 79.4169 51.581C79.4169 50.9137 79.5685 50.3157 79.8719 49.787C80.1752 49.2583 80.5912 48.8467 81.1199 48.552C81.6485 48.2573 82.2422 48.11 82.9009 48.11C83.5595 48.11 84.1532 48.2573 84.6819 48.552C85.2105 48.8467 85.6222 49.2583 85.9169 49.787C86.2202 50.3157 86.3719 50.9137 86.3719 51.581C86.3719 52.2483 86.2202 52.8463 85.9169 53.375C85.6222 53.9037 85.2105 54.3197 84.6819 54.623C84.1532 54.9177 83.5595 55.065 82.9009 55.065ZM82.9009 54.246C83.3862 54.246 83.8195 54.1377 84.2009 53.921C84.5909 53.6957 84.8942 53.3793 85.1109 52.972C85.3275 52.5647 85.4359 52.101 85.4359 51.581C85.4359 51.061 85.3275 50.5973 85.1109 50.19C84.8942 49.7827 84.5909 49.4707 84.2009 49.254C83.8195 49.0287 83.3862 48.916 82.9009 48.916C82.4155 48.916 81.9779 49.0287 81.5879 49.254C81.2065 49.4707 80.9032 49.7827 80.6779 50.19C80.4612 50.5973 80.3529 51.061 80.3529 51.581C80.3529 52.101 80.4612 52.5647 80.6779 52.972C80.9032 53.3793 81.2065 53.6957 81.5879 53.921C81.9779 54.1377 82.4155 54.246 82.9009 54.246ZM88.0845 48.162H89.0075V51.191H93.3105V48.162H94.2335V55H93.3105V51.984H89.0075V55H88.0845V48.162ZM103.266 54.194V56.651H102.395V55H96.272V56.651H95.401V54.194H95.791C96.2503 54.168 96.5623 53.83 96.727 53.18C96.8917 52.53 97.0043 51.62 97.065 50.45L97.156 48.162H102.2V54.194H103.266ZM97.91 50.502C97.8667 51.4727 97.7843 52.2743 97.663 52.907C97.5417 53.531 97.325 53.96 97.013 54.194H101.277V48.981H97.988L97.91 50.502ZM104.805 48.162H105.728V53.596L110.291 48.162H111.11V55H110.187V49.566L105.637 55H104.805V48.162ZM118.305 48.981H115.718V55H114.795V48.981H112.208V48.162H118.305V48.981ZM125.042 51.867H119.322C119.374 52.5777 119.647 53.154 120.141 53.596C120.635 54.0293 121.259 54.246 122.013 54.246C122.438 54.246 122.828 54.1723 123.183 54.025C123.538 53.869 123.846 53.6437 124.106 53.349L124.626 53.947C124.323 54.311 123.941 54.5883 123.482 54.779C123.031 54.9697 122.533 55.065 121.987 55.065C121.285 55.065 120.661 54.9177 120.115 54.623C119.578 54.3197 119.157 53.9037 118.854 53.375C118.551 52.8463 118.399 52.2483 118.399 51.581C118.399 50.9137 118.542 50.3157 118.828 49.787C119.123 49.2583 119.521 48.8467 120.024 48.552C120.535 48.2573 121.107 48.11 121.74 48.11C122.373 48.11 122.94 48.2573 123.443 48.552C123.946 48.8467 124.34 49.2583 124.626 49.787C124.912 50.307 125.055 50.905 125.055 51.581L125.042 51.867ZM121.74 48.903C121.081 48.903 120.527 49.1153 120.076 49.54C119.634 49.956 119.383 50.502 119.322 51.178H124.171C124.11 50.502 123.855 49.956 123.404 49.54C122.962 49.1153 122.407 48.903 121.74 48.903ZM130.361 48.11C131.003 48.11 131.583 48.2573 132.103 48.552C132.623 48.838 133.031 49.2453 133.325 49.774C133.62 50.3027 133.767 50.905 133.767 51.581C133.767 52.2657 133.62 52.8723 133.325 53.401C133.031 53.9297 132.623 54.3413 132.103 54.636C131.592 54.922 131.011 55.065 130.361 55.065C129.807 55.065 129.304 54.9523 128.853 54.727C128.411 54.493 128.047 54.155 127.761 53.713V57.522H126.838V48.162H127.722V49.514C128 49.0633 128.364 48.7167 128.814 48.474C129.274 48.2313 129.789 48.11 130.361 48.11ZM130.296 54.246C130.773 54.246 131.206 54.1377 131.596 53.921C131.986 53.6957 132.29 53.3793 132.506 52.972C132.732 52.5647 132.844 52.101 132.844 51.581C132.844 51.061 132.732 50.6017 132.506 50.203C132.29 49.7957 131.986 49.4793 131.596 49.254C131.206 49.0287 130.773 48.916 130.296 48.916C129.811 48.916 129.373 49.0287 128.983 49.254C128.602 49.4793 128.299 49.7957 128.073 50.203C127.857 50.6017 127.748 51.061 127.748 51.581C127.748 52.101 127.857 52.5647 128.073 52.972C128.299 53.3793 128.602 53.6957 128.983 53.921C129.373 54.1377 129.811 54.246 130.296 54.246ZM138.35 55.065C137.674 55.065 137.068 54.9177 136.53 54.623C136.002 54.3283 135.586 53.9167 135.282 53.388C134.979 52.8507 134.827 52.2483 134.827 51.581C134.827 50.9137 134.979 50.3157 135.282 49.787C135.586 49.2583 136.002 48.8467 136.53 48.552C137.068 48.2573 137.674 48.11 138.35 48.11C138.94 48.11 139.464 48.227 139.923 48.461C140.391 48.6863 140.76 49.02 141.028 49.462L140.339 49.93C140.114 49.592 139.828 49.3407 139.481 49.176C139.135 49.0027 138.758 48.916 138.35 48.916C137.856 48.916 137.41 49.0287 137.011 49.254C136.621 49.4707 136.314 49.7827 136.088 50.19C135.872 50.5973 135.763 51.061 135.763 51.581C135.763 52.1097 135.872 52.5777 136.088 52.985C136.314 53.3837 136.621 53.6957 137.011 53.921C137.41 54.1377 137.856 54.246 138.35 54.246C138.758 54.246 139.135 54.1637 139.481 53.999C139.828 53.8343 140.114 53.583 140.339 53.245L141.028 53.713C140.76 54.155 140.391 54.493 139.923 54.727C139.455 54.9523 138.931 55.065 138.35 55.065ZM145.494 50.58C146.352 50.5887 147.002 50.7793 147.444 51.152C147.894 51.5247 148.12 52.062 148.12 52.764C148.12 53.492 147.877 54.051 147.392 54.441C146.915 54.831 146.222 55.0217 145.312 55.013L142.556 55V48.162H143.479V50.554L145.494 50.58ZM145.26 54.311C145.892 54.3197 146.369 54.194 146.69 53.934C147.019 53.6653 147.184 53.2753 147.184 52.764C147.184 52.2613 147.023 51.8887 146.703 51.646C146.382 51.4033 145.901 51.2777 145.26 51.269L143.479 51.243V54.285L145.26 54.311ZM152.104 51.958H150.544V55H149.621V48.162H150.544V51.165H152.117L154.522 48.162H155.523L152.832 51.477L155.718 55H154.626L152.104 51.958ZM159.14 48.11C160.033 48.11 160.718 48.3353 161.194 48.786C161.671 49.228 161.909 49.8867 161.909 50.762V55H161.025V53.934C160.817 54.2893 160.51 54.5667 160.102 54.766C159.704 54.9653 159.227 55.065 158.672 55.065C157.91 55.065 157.303 54.883 156.852 54.519C156.402 54.155 156.176 53.674 156.176 53.076C156.176 52.4953 156.384 52.0273 156.8 51.672C157.225 51.3167 157.897 51.139 158.815 51.139H160.986V50.723C160.986 50.1337 160.822 49.6873 160.492 49.384C160.163 49.072 159.682 48.916 159.049 48.916C158.616 48.916 158.2 48.9897 157.801 49.137C157.403 49.2757 157.06 49.4707 156.774 49.722L156.358 49.033C156.705 48.7383 157.121 48.513 157.606 48.357C158.092 48.1923 158.603 48.11 159.14 48.11ZM158.815 54.337C159.335 54.337 159.782 54.22 160.154 53.986C160.527 53.7433 160.804 53.3967 160.986 52.946V51.828H158.841C157.671 51.828 157.086 52.2353 157.086 53.05C157.086 53.4487 157.238 53.765 157.541 53.999C157.845 54.2243 158.269 54.337 158.815 54.337ZM174.893 48.162V55H174.048V49.592L171.279 54.168H170.863L168.094 49.579V55H167.249V48.162H168.185L171.084 53.089L174.035 48.162H174.893ZM179.612 48.11C180.505 48.11 181.19 48.3353 181.666 48.786C182.143 49.228 182.381 49.8867 182.381 50.762V55H181.497V53.934C181.289 54.2893 180.982 54.5667 180.574 54.766C180.176 54.9653 179.699 55.065 179.144 55.065C178.382 55.065 177.775 54.883 177.324 54.519C176.874 54.155 176.648 53.674 176.648 53.076C176.648 52.4953 176.856 52.0273 177.272 51.672C177.697 51.3167 178.369 51.139 179.287 51.139H181.458V50.723C181.458 50.1337 181.294 49.6873 180.964 49.384C180.635 49.072 180.154 48.916 179.521 48.916C179.088 48.916 178.672 48.9897 178.273 49.137C177.875 49.2757 177.532 49.4707 177.246 49.722L176.83 49.033C177.177 48.7383 177.593 48.513 178.078 48.357C178.564 48.1923 179.075 48.11 179.612 48.11ZM179.287 54.337C179.807 54.337 180.254 54.22 180.626 53.986C180.999 53.7433 181.276 53.3967 181.458 52.946V51.828H179.313C178.143 51.828 177.558 52.2353 177.558 53.05C177.558 53.4487 177.71 53.765 178.013 53.999C178.317 54.2243 178.741 54.337 179.287 54.337ZM184.579 48.162H185.502V53.596L190.065 48.162H190.884V55H189.961V49.566L185.411 55H184.579V48.162ZM187.686 47.174C187.096 47.174 186.628 47.0267 186.282 46.732C185.935 46.4373 185.757 46.0213 185.749 45.484H186.412C186.42 45.822 186.542 46.095 186.776 46.303C187.01 46.5023 187.313 46.602 187.686 46.602C188.058 46.602 188.362 46.5023 188.596 46.303C188.838 46.095 188.964 45.822 188.973 45.484H189.636C189.627 46.0213 189.445 46.4373 189.09 46.732C188.743 47.0267 188.275 47.174 187.686 47.174ZM196.129 55.065C195.453 55.065 194.846 54.9177 194.309 54.623C193.78 54.3283 193.364 53.9167 193.061 53.388C192.757 52.8507 192.606 52.2483 192.606 51.581C192.606 50.9137 192.757 50.3157 193.061 49.787C193.364 49.2583 193.78 48.8467 194.309 48.552C194.846 48.2573 195.453 48.11 196.129 48.11C196.718 48.11 197.242 48.227 197.702 48.461C198.17 48.6863 198.538 49.02 198.807 49.462L198.118 49.93C197.892 49.592 197.606 49.3407 197.26 49.176C196.913 49.0027 196.536 48.916 196.129 48.916C195.635 48.916 195.188 49.0287 194.79 49.254C194.4 49.4707 194.092 49.7827 193.867 50.19C193.65 50.5973 193.542 51.061 193.542 51.581C193.542 52.1097 193.65 52.5777 193.867 52.985C194.092 53.3837 194.4 53.6957 194.79 53.921C195.188 54.1377 195.635 54.246 196.129 54.246C196.536 54.246 196.913 54.1637 197.26 53.999C197.606 53.8343 197.892 53.583 198.118 53.245L198.807 53.713C198.538 54.155 198.17 54.493 197.702 54.727C197.234 54.9523 196.709 55.065 196.129 55.065ZM205.017 48.981H202.43V55H201.507V48.981H198.92V48.162H205.017V48.981ZM211.754 51.867H206.034C206.086 52.5777 206.359 53.154 206.853 53.596C207.347 54.0293 207.971 54.246 208.725 54.246C209.15 54.246 209.54 54.1723 209.895 54.025C210.25 53.869 210.558 53.6437 210.818 53.349L211.338 53.947C211.035 54.311 210.653 54.5883 210.194 54.779C209.743 54.9697 209.245 55.065 208.699 55.065C207.997 55.065 207.373 54.9177 206.827 54.623C206.29 54.3197 205.869 53.9037 205.566 53.375C205.263 52.8463 205.111 52.2483 205.111 51.581C205.111 50.9137 205.254 50.3157 205.54 49.787C205.835 49.2583 206.233 48.8467 206.736 48.552C207.247 48.2573 207.819 48.11 208.452 48.11C209.085 48.11 209.652 48.2573 210.155 48.552C210.658 48.8467 211.052 49.2583 211.338 49.787C211.624 50.307 211.767 50.905 211.767 51.581L211.754 51.867ZM208.452 48.903C207.793 48.903 207.239 49.1153 206.788 49.54C206.346 49.956 206.095 50.502 206.034 51.178H210.883C210.822 50.502 210.567 49.956 210.116 49.54C209.674 49.1153 209.119 48.903 208.452 48.903ZM217.073 48.11C217.715 48.11 218.295 48.2573 218.815 48.552C219.335 48.838 219.743 49.2453 220.037 49.774C220.332 50.3027 220.479 50.905 220.479 51.581C220.479 52.2657 220.332 52.8723 220.037 53.401C219.743 53.9297 219.335 54.3413 218.815 54.636C218.304 54.922 217.723 55.065 217.073 55.065C216.519 55.065 216.016 54.9523 215.565 54.727C215.123 54.493 214.759 54.155 214.473 53.713V57.522H213.55V48.162H214.434V49.514C214.712 49.0633 215.076 48.7167 215.526 48.474C215.986 48.2313 216.501 48.11 217.073 48.11ZM217.008 54.246C217.485 54.246 217.918 54.1377 218.308 53.921C218.698 53.6957 219.002 53.3793 219.218 52.972C219.444 52.5647 219.556 52.101 219.556 51.581C219.556 51.061 219.444 50.6017 219.218 50.203C219.002 49.7957 218.698 49.4793 218.308 49.254C217.918 49.0287 217.485 48.916 217.008 48.916C216.523 48.916 216.085 49.0287 215.695 49.254C215.314 49.4793 215.011 49.7957 214.785 50.203C214.569 50.6017 214.46 51.061 214.46 51.581C214.46 52.101 214.569 52.5647 214.785 52.972C215.011 53.3793 215.314 53.6957 215.695 53.921C216.085 54.1377 216.523 54.246 217.008 54.246ZM222.202 48.162H223.125V51.191H227.428V48.162H228.351V55H227.428V51.984H223.125V55H222.202V48.162ZM235.967 48.162V55H235.122V52.738H232.977H232.717L231.131 55H230.13L231.833 52.608C231.304 52.4607 230.897 52.2093 230.611 51.854C230.325 51.4987 230.182 51.048 230.182 50.502C230.182 49.7393 230.442 49.1587 230.962 48.76C231.482 48.3613 232.192 48.162 233.094 48.162H235.967ZM231.118 50.528C231.118 51.542 231.763 52.049 233.055 52.049H235.122V48.981H233.12C231.785 48.981 231.118 49.4967 231.118 50.528Z" fill="#673F3E"/>
<path d="M77.04 40.12L77.08 40C77.08 39.7333 76.8533 39.5867 76.4 39.56C75.84 39.2133 75.24 38.6267 74.6 37.8C73.96 36.9467 73.56 36.2933 73.4 35.84C73.32 35.6267 73.28 35.48 73.28 35.4C73.28 35.2667 73.3333 35.1733 73.44 35.12C73.5467 35.04 73.68 34.9733 73.84 34.92C74 34.84 74.12 34.7867 74.2 34.76C74.68 34.44 75.04 34.28 75.28 34.28C75.5467 34.28 75.7733 34.4533 75.96 34.8C76.3333 35.4667 76.9333 36.0267 77.76 36.48C78.5867 36.9067 79.5067 37.12 80.52 37.12C81.4267 37.12 82.24 36.96 82.96 36.64C83.6533 36.32 84 35.8533 84 35.24C84 34.7867 83.8 34.24 83.4 33.6C83.3467 33.44 83.2533 33.2933 83.12 33.16C82.9867 33.0267 82.8267 32.8933 82.64 32.76C82.2133 32.44 81.7467 32.0267 81.24 31.52C80.8133 31.36 80.3733 31.1467 79.92 30.88L79.08 30.48C78.4133 30.16 77.6667 29.6533 76.84 28.96C76.0133 28.24 75.44 27.5733 75.12 26.96C74.5333 26.4 74.24 25.5467 74.24 24.4C74.24 23.1467 74.5333 21.9733 75.12 20.88C75.44 20.16 76.2133 19.0533 77.44 17.56C78.6667 16.0667 79.5733 15.1333 80.16 14.76L81.2 13.76C81.2267 13.6533 81.2667 13.6 81.32 13.6C81.3733 13.5733 81.4133 13.56 81.44 13.56C81.52 13.5067 81.8 13.3867 82.28 13.2C82.76 12.9867 83.2667 12.6267 83.8 12.12C85.4267 11.32 86.8667 10.76 88.12 10.44C89.4 10.0933 90.4667 9.92 91.32 9.92C92.36 9.97333 93.32 10.3467 94.2 11.04C95.1067 11.7333 95.6267 12.5333 95.76 13.44C95.8133 13.7067 95.84 13.92 95.84 14.08C95.84 15.0667 95.44 16.1733 94.64 17.4C93.84 18.6267 92.9867 19.4933 92.08 20C91.68 20.1867 91.2933 20.28 90.92 20.28C90.4667 20.28 90.0933 20.16 89.8 19.92C89.5333 19.68 89.4133 19.3733 89.44 19C89.44 18.76 89.52 18.4933 89.68 18.2C89.8667 17.88 90.2667 17.3733 90.88 16.68C91.7867 15.3467 92.24 14.3867 92.24 13.8C92.24 13.4 92 13.16 91.52 13.08C91.2267 13 90.4267 13.12 89.12 13.44C87.84 13.7333 87.2 13.9467 87.2 14.08C87.2 14.1067 87.1867 14.16 87.16 14.24C87.16 14.2933 87.12 14.3067 87.04 14.28C86.9333 14.2533 86.1733 14.6933 84.76 15.6C83.3733 16.5067 82.6533 17.0267 82.6 17.16C82.5733 17.2933 82.4667 17.44 82.28 17.6C82.12 17.7333 81.92 17.8533 81.68 17.96C81.2 18.2533 80.76 18.6533 80.36 19.16C79.9867 19.6667 79.4933 20.4667 78.88 21.56C78.56 22.0133 78.2933 22.5067 78.08 23.04C77.8933 23.5733 77.8 24.0533 77.8 24.48C77.8 24.7733 77.84 25.0267 77.92 25.24C78.0267 25.64 78.3067 26.0133 78.76 26.36C79.24 26.68 80.1467 27.24 81.48 28.04C82.84 28.8133 84.0667 29.64 85.16 30.52C86.2533 31.3733 86.92 32.0533 87.16 32.56C87.5867 33.1733 87.8 33.9733 87.8 34.96C87.8 35.7333 87.6933 36.4667 87.48 37.16C87.24 37.6667 86.9333 38.1333 86.56 38.56C86.1867 39.0133 85.8533 39.2267 85.56 39.2C85.2933 39.28 85.0667 39.3733 84.88 39.48C84.6933 39.6133 84.5333 39.7067 84.4 39.76C84.08 39.9467 83.2533 40.1333 81.92 40.32C80.6133 40.5333 79.52 40.6267 78.64 40.6L77.04 40.12ZM97.3938 36.8C96.9938 36.8 96.5938 36.5067 96.1938 35.92C95.7938 35.3067 95.4738 34.56 95.2338 33.68C95.0204 32.7733 94.9404 31.9067 94.9938 31.08C94.9938 30.12 95.0604 29.32 95.1938 28.68C95.3271 28.04 95.4071 27.64 95.4338 27.48C95.4871 27.3467 95.5404 27.12 95.5938 26.8C95.6471 26.4533 95.7538 25.9733 95.9138 25.36C96.1004 24.5867 96.3138 24.0133 96.5538 23.64C96.9271 23.1067 97.4204 22.84 98.0338 22.84C98.3538 22.84 98.6338 22.9333 98.8738 23.12C99.1404 23.28 99.2871 23.52 99.3138 23.84C99.4738 24 99.5538 24.3867 99.5538 25C99.5538 25.4533 99.5138 25.8933 99.4338 26.32C99.3538 26.7467 99.2471 27.0533 99.1138 27.24C99.0338 27.4 98.9138 28.1733 98.7538 29.56C98.6471 30.5733 98.5671 31.2267 98.5138 31.52C98.4871 31.6267 98.4738 31.7733 98.4738 31.96C98.4738 32.3067 98.5671 32.48 98.7538 32.48C99.1538 32.48 99.8871 31.6933 100.954 30.12C101.674 29.0533 102.14 28.2933 102.354 27.84C102.594 27.36 102.887 26.64 103.234 25.68C103.5 24.8533 103.74 24.32 103.954 24.08C104.22 23.7067 104.594 23.52 105.074 23.52C105.527 23.52 105.954 23.6667 106.354 23.96C106.754 24.36 106.954 24.88 106.954 25.52C106.954 26 106.82 26.5067 106.554 27.04C106.234 27.7067 105.94 28.52 105.674 29.48C105.407 30.44 105.274 31.2267 105.274 31.84C105.274 32.32 105.327 32.6267 105.434 32.76C105.567 32.8667 105.767 32.92 106.034 32.92C106.327 32.92 106.607 32.8133 106.874 32.6C107.167 32.3867 107.62 31.9733 108.234 31.36C108.687 30.9067 109.314 30.0533 110.114 28.8C110.914 27.5467 111.314 26.8 111.314 26.56C111.314 26.4 111.434 26.1733 111.674 25.88C111.807 25.6933 111.927 25.5333 112.034 25.4C112.167 25.2667 112.354 25.1333 112.594 25C112.754 24.9467 112.887 24.92 112.994 24.92C113.367 24.92 113.7 25.0667 113.994 25.36C114.1 25.4667 114.194 25.72 114.274 26.12C114.354 26.52 114.394 26.8933 114.394 27.24C113.834 29.32 113.394 30.5333 113.074 30.88C112.567 31.28 112.14 31.7733 111.794 32.36C111.154 33.1333 110.647 33.68 110.274 34C109.927 34.2933 109.7 34.4933 109.594 34.6C109.007 35.1867 108.327 35.6533 107.554 36C106.78 36.3467 106.06 36.52 105.394 36.52C104.86 36.52 104.434 36.4 104.114 36.16C103.287 35.7333 102.874 35.0133 102.874 34C102.874 33.8133 102.847 33.64 102.794 33.48C102.74 33.32 102.7 33.2133 102.674 33.16C102.274 33.16 101.954 33.3733 101.714 33.8C101.34 34.44 100.647 35.1067 99.6338 35.8C98.6471 36.4667 97.9004 36.8 97.3938 36.8ZM124.178 38C122.658 38 121.431 37.5733 120.498 36.72C119.564 35.8667 119.098 34.6533 119.098 33.08C119.098 32.4667 119.138 31.7867 119.218 31.04C119.271 30.4 119.524 29.52 119.978 28.4C120.458 27.28 121.098 26.1867 121.898 25.12C122.724 24.0533 123.684 23.2667 124.778 22.76C125.284 22.52 125.711 22.36 126.058 22.28C126.404 22.1733 126.804 22.12 127.258 22.12C128.351 22.12 129.231 22.32 129.898 22.72C130.591 23.12 131.071 23.5733 131.338 24.08C131.631 24.5867 131.778 25.0267 131.778 25.4V25.6V25.72C131.778 26.04 131.591 26.6267 131.218 27.48C130.844 28.3333 130.244 29.1333 129.418 29.88C128.618 30.6267 127.578 31.04 126.298 31.12C125.658 31.12 125.031 31.0667 124.418 30.96C123.831 30.8267 123.458 30.76 123.298 30.76C122.898 30.76 122.644 30.9067 122.538 31.2C122.431 31.4933 122.378 31.9867 122.378 32.68C122.458 33.4267 122.658 33.9467 122.978 34.24C123.324 34.5333 123.818 34.68 124.458 34.68C124.778 34.68 125.151 34.5867 125.578 34.4C126.004 34.1867 126.511 33.8533 127.098 33.4C127.418 33.1333 127.671 32.9467 127.858 32.84C128.044 32.7333 128.271 32.68 128.538 32.68C128.778 32.68 129.058 32.84 129.378 33.16C129.698 33.48 129.871 33.7867 129.898 34.08C129.844 34.4 129.551 34.88 129.018 35.52C128.484 36.16 127.791 36.7333 126.938 37.24C126.084 37.7467 125.164 38 124.178 38ZM125.578 28.36C126.084 28.36 126.431 28.3067 126.618 28.2C126.884 28.0667 127.284 27.7333 127.818 27.2C128.378 26.64 128.671 26.2533 128.698 26.04C128.698 25.7733 128.578 25.56 128.338 25.4C128.124 25.2133 127.818 25.0933 127.418 25.04H126.978C126.631 25.04 126.124 25.3333 125.458 25.92C124.818 26.48 124.258 27.1333 123.778 27.88C123.804 28.0133 124.004 28.1333 124.378 28.24C124.751 28.32 125.151 28.36 125.578 28.36ZM140.657 38.72C137.617 38.72 136.097 36.9867 136.097 33.52C136.097 32.2667 136.404 30.8533 137.017 29.28C137.657 27.68 138.444 26.2533 139.377 25C140.337 23.72 141.284 22.8667 142.217 22.44C142.724 22.1733 143.311 22.04 143.977 22.04C145.177 22.04 146.217 22.3067 147.097 22.84C148.004 23.3467 148.457 24.32 148.457 25.76C148.457 26.5867 148.177 27.4933 147.617 28.48C147.057 29.4667 146.351 30.3067 145.497 31C144.671 31.6667 143.857 32 143.057 32C141.857 32 140.844 31.6133 140.017 30.84C139.564 31.7467 139.337 32.6133 139.337 33.44C139.337 34.1067 139.417 34.6267 139.577 35C139.737 35.3467 140.111 35.52 140.697 35.52C141.257 35.52 141.711 35.44 142.057 35.28C142.404 35.12 142.724 34.9333 143.017 34.72C143.311 34.5067 143.537 34.3467 143.697 34.24L143.857 34.16H143.817C144.297 33.8933 144.644 33.6933 144.857 33.56C145.097 33.4 145.297 33.2933 145.457 33.24C145.857 33.24 146.231 33.36 146.577 33.6C146.924 33.84 147.097 34.1333 147.097 34.48C147.097 34.7467 146.857 35.1867 146.377 35.8C145.897 36.3867 145.404 36.8 144.897 37.04L144.417 37.28H144.457C144.217 37.6 143.977 37.76 143.737 37.76H143.417C143.311 37.9733 142.951 38.1867 142.337 38.4C141.751 38.6133 141.191 38.72 140.657 38.72ZM142.737 29.08C143.484 29.08 144.097 28.76 144.577 28.12C145.084 27.48 145.337 26.84 145.337 26.2C145.337 25.9067 145.257 25.64 145.097 25.4C144.964 25.16 144.777 25.04 144.537 25.04C144.084 25.04 143.577 25.2533 143.017 25.68C142.457 26.1067 141.964 26.6667 141.537 27.36L141.017 28.2C141.124 28.1467 141.204 28.12 141.257 28.12C141.471 28.12 141.631 28.2133 141.737 28.4C141.844 28.5867 141.964 28.7467 142.097 28.88C142.231 29.0133 142.444 29.08 142.737 29.08ZM159.177 38.24C158.59 38.08 157.83 37.5867 156.897 36.76C156.443 36.1733 156.177 35.6533 156.097 35.2C156.017 34.72 155.977 33.7867 155.977 32.4C155.977 31.76 156.297 30.16 156.937 27.6C156.963 27.4933 157.057 27.1333 157.217 26.52C157.297 26.2267 157.19 26.04 156.897 25.96C156.603 25.88 156.19 25.84 155.657 25.84C155.203 25.84 154.937 25.8133 154.857 25.76C154.777 25.7333 154.723 25.6133 154.697 25.4C154.697 25.1867 154.697 25.04 154.697 24.96C154.697 24.88 154.63 24.8 154.497 24.72C154.39 24.64 154.31 24.56 154.257 24.48C154.177 24.3733 154.243 24.1733 154.457 23.88C154.67 23.5867 154.91 23.4133 155.177 23.36C155.337 23.3333 155.683 23.2933 156.217 23.24C156.75 23.1867 157.257 23.08 157.737 22.92C158.243 22.76 158.617 22.5333 158.857 22.24C159.203 21.3333 159.603 20.3733 160.057 19.36C160.537 18.3467 160.87 17.7467 161.057 17.56C161.483 17.3467 161.87 17.24 162.217 17.24C162.803 17.24 163.257 17.48 163.577 17.96C163.657 18.0667 163.75 18.1733 163.857 18.28C163.963 18.3867 164.017 18.5067 164.017 18.64C164.017 18.8267 163.923 19.12 163.737 19.52C163.577 19.92 163.243 20.5733 162.737 21.48L162.217 22.48C162.297 22.5067 162.483 22.52 162.777 22.52C163.07 22.52 163.31 22.5067 163.497 22.48C164.083 22.3733 164.537 22.32 164.857 22.32C165.097 22.32 165.27 22.3333 165.377 22.36C166.497 22.36 167.11 22.9733 167.217 24.2C167.27 24.52 167.15 24.7867 166.857 25C166.59 25.1867 166.11 25.28 165.417 25.28C162.67 25.3867 161.283 25.5067 161.257 25.64C161.123 25.72 160.91 26.1333 160.617 26.88C160.323 27.6267 160.083 28.3333 159.897 29C159.577 30.3867 159.417 31.6933 159.417 32.92C159.417 34.0933 159.59 34.8533 159.937 35.2C160.043 35.3067 160.19 35.36 160.377 35.36C160.857 35.36 161.537 35 162.417 34.28C162.71 34.0133 163.03 33.88 163.377 33.88C163.67 33.88 163.897 33.9867 164.057 34.2C164.243 34.4133 164.337 34.6933 164.337 35.04C164.337 35.44 164.203 35.8267 163.937 36.2C163.537 36.8133 162.937 37.32 162.137 37.72C161.337 38.12 160.577 38.32 159.857 38.32C159.537 38.32 159.31 38.2933 159.177 38.24ZM185.186 39.2C184.786 39.0667 184.48 38.8267 184.266 38.48C184.08 38.1333 183.986 37.6267 183.986 36.96C183.986 35.8667 184.093 34.8 184.306 33.76L184.346 33.44C184.373 33.28 184.413 33.0267 184.466 32.68C184.52 32.3067 184.56 32.2 184.586 32.36L184.826 31.28C185.013 30.5333 185.186 29.84 185.346 29.2C185.533 28.56 185.68 28.0933 185.786 27.8L186.226 26.4C187.026 23.8133 187.773 22.0667 188.466 21.16C188.493 21.0533 188.533 20.96 188.586 20.88C188.64 20.7733 188.68 20.6667 188.706 20.56C188.706 20.1333 188.786 19.8 188.946 19.56C189.186 19.16 189.386 18.8 189.546 18.48L189.706 18.04L190.826 15.76C190.906 15.4933 191.066 15.2 191.306 14.88C191.573 14.56 191.84 14.3467 192.106 14.24L192.066 14.2C192.2 13.9867 192.44 13.8 192.786 13.64C193.16 13.48 193.48 13.4 193.746 13.4C194.093 13.4 194.373 13.5067 194.586 13.72C194.8 13.9333 194.906 14.2267 194.906 14.6V15C194.906 15.24 194.88 15.4267 194.826 15.56C194.8 15.6933 194.72 15.8533 194.586 16.04H194.626C194.653 16.0667 194.626 16.16 194.546 16.32C194.493 16.4533 194.44 16.5867 194.386 16.72C194.2 17.2 194.066 17.4667 193.986 17.52C193.8 17.76 193.186 18.8933 192.146 20.92C191.106 22.92 190.44 24.3067 190.146 25.08L189.986 25.68L189.906 25.92C189.613 26.56 189.453 26.9067 189.426 26.96L188.786 29.44L188.626 30.28L188.266 31.2L188.026 31.96C187.973 32.0933 187.92 32.2667 187.866 32.48C187.84 32.6933 187.8 32.8267 187.746 32.88L187.706 33.08C187.68 33.1867 187.586 33.4933 187.426 34C187.186 34.7467 187.013 35.3733 186.906 35.88C186.8 36.36 186.733 36.88 186.706 37.44L186.666 37.6C186.586 38.1867 186.413 38.6267 186.146 38.92C185.906 39.2133 185.586 39.3067 185.186 39.2ZM202.696 21.36C202.376 21.36 201.989 21.2133 201.536 20.92C201.082 20.6267 200.682 20.2533 200.336 19.8C200.016 19.32 199.856 18.84 199.856 18.36C199.856 18.2 200.136 17.7067 200.696 16.88C201.069 16.3733 201.256 16.0667 201.256 15.96C201.442 15.96 201.682 16 201.976 16.08C202.269 16.16 202.522 16.2533 202.736 16.36C202.896 16.7333 203.216 17.2133 203.696 17.8C204.016 18.2 204.242 18.5333 204.376 18.8C204.536 19.0667 204.616 19.3467 204.616 19.64C204.616 20.2267 204.456 20.6667 204.136 20.96C203.842 21.2267 203.362 21.36 202.696 21.36ZM197.256 36.68C197.176 36.68 196.976 36.6133 196.656 36.48C196.362 36.3467 196.162 36.2533 196.056 36.2C196.056 36.12 196.016 35.9867 195.936 35.8C195.882 35.5867 195.856 35.4533 195.856 35.4C195.616 35.2933 195.416 35.12 195.256 34.88C195.122 34.6133 195.096 34.3467 195.176 34.08C195.549 33.44 196.216 31.9733 197.176 29.68C198.162 27.36 198.709 26.0267 198.816 25.68C198.816 25.0933 199.002 24.68 199.376 24.44C199.562 24.3067 199.749 24.24 199.936 24.24C200.389 24.24 200.816 24.5467 201.216 25.16C201.616 25.7733 201.816 26.4933 201.816 27.32C201.816 27.64 201.509 28.56 200.896 30.08C200.309 31.5733 199.642 33.08 198.896 34.6C198.469 35.4533 198.149 36.0133 197.936 36.28C197.749 36.5467 197.522 36.68 197.256 36.68ZM209.747 42.84C209.587 42.9467 209.214 42.8133 208.627 42.44C208.067 42.0933 207.601 41.7067 207.227 41.28C207.067 41.12 206.961 40.96 206.907 40.8C206.854 40.6667 206.827 40.48 206.827 40.24L206.907 39.24C207.041 38.84 207.107 38.3733 207.107 37.84C207.107 37.6267 207.201 36.96 207.387 35.84C207.574 34.6933 207.721 33.8667 207.827 33.36L207.947 32.88C208.161 32 208.321 31.1867 208.427 30.44C208.641 29.7733 208.814 29.12 208.947 28.48C209.107 27.8133 209.187 27.36 209.187 27.12C209.187 26.64 209.374 26.2933 209.747 26.08C209.774 25.8667 209.974 25.4267 210.347 24.76C210.987 22.9467 211.454 21.6533 211.747 20.88C212.067 20.08 212.401 19.3867 212.747 18.8C213.227 17.4667 213.614 16.6267 213.907 16.28C214.094 15.8267 214.601 15.16 215.427 14.28C216.254 13.4 216.987 12.6933 217.627 12.16C218.961 11.4667 220.081 11.12 220.987 11.12C221.761 11.12 222.654 11.6 223.667 12.56C224.041 12.96 224.254 13.2267 224.307 13.36C224.361 13.4933 224.387 13.7467 224.387 14.12C224.281 14.6267 223.814 15.52 222.987 16.8C222.161 18.08 221.641 18.7333 221.427 18.76C221.107 18.8667 220.894 18.92 220.787 18.92C220.547 18.92 220.347 18.84 220.187 18.68C220.027 18.52 219.947 18.28 219.947 17.96C219.947 17.4533 220.107 16.8667 220.427 16.2C220.747 15.7733 220.907 15.4 220.907 15.08C220.907 14.6267 220.547 14.4 219.827 14.4C219.614 14.5067 219.187 14.8933 218.547 15.56C217.934 16.2 217.627 16.6 217.627 16.76C217.601 16.8133 217.521 16.96 217.387 17.2C217.281 17.4133 217.107 17.6667 216.867 17.96C216.387 18.6267 216.147 19.04 216.147 19.2C216.147 19.5467 216.067 19.72 215.907 19.72C215.881 19.7733 215.814 19.9333 215.707 20.2C215.627 20.44 215.507 20.7067 215.347 21C215.241 21.24 215.107 21.5067 214.947 21.8C214.787 22.0933 214.654 22.2933 214.547 22.4H214.587C214.507 22.5867 214.361 22.9467 214.147 23.48C213.934 23.9867 213.827 24.28 213.827 24.36C213.827 24.4667 213.987 24.52 214.307 24.52C214.894 24.52 215.721 24.3733 216.787 24.08C217.134 23.9733 217.387 23.92 217.547 23.92C217.734 23.92 218.001 23.9733 218.347 24.08C218.641 24.2667 218.881 24.68 219.067 25.32C219.254 25.96 219.294 26.36 219.187 26.52C219.161 26.6267 218.867 26.7733 218.307 26.96C217.774 27.1467 217.214 27.2933 216.627 27.4L214.987 27.76C213.467 28.08 212.707 28.2933 212.707 28.4C212.601 28.4 212.507 28.4533 212.427 28.56C212.347 28.6667 212.307 28.7733 212.307 28.88C212.307 29.2533 212.254 29.5333 212.147 29.72C212.014 30.0933 211.787 30.9867 211.467 32.4C211.174 33.8133 211.027 34.68 211.027 35C210.814 35.2667 210.707 35.7467 210.707 36.44C210.547 36.7333 210.467 37.0667 210.467 37.44C210.467 37.6 210.454 37.7333 210.427 37.84C210.427 37.9733 210.401 38.2933 210.347 38.8C210.294 39.3067 210.267 39.7733 210.267 40.2L210.147 41.36C210.121 41.68 210.081 41.9733 210.027 42.24C209.974 42.5067 209.881 42.7067 209.747 42.84ZM228.779 38C227.259 38 226.033 37.5733 225.099 36.72C224.166 35.8667 223.699 34.6533 223.699 33.08C223.699 32.4667 223.739 31.7867 223.819 31.04C223.873 30.4 224.126 29.52 224.579 28.4C225.059 27.28 225.699 26.1867 226.499 25.12C227.326 24.0533 228.286 23.2667 229.379 22.76C229.886 22.52 230.313 22.36 230.659 22.28C231.006 22.1733 231.406 22.12 231.859 22.12C232.953 22.12 233.833 22.32 234.499 22.72C235.193 23.12 235.673 23.5733 235.939 24.08C236.233 24.5867 236.379 25.0267 236.379 25.4V25.6V25.72C236.379 26.04 236.193 26.6267 235.819 27.48C235.446 28.3333 234.846 29.1333 234.019 29.88C233.219 30.6267 232.179 31.04 230.899 31.12C230.259 31.12 229.633 31.0667 229.019 30.96C228.433 30.8267 228.059 30.76 227.899 30.76C227.499 30.76 227.246 30.9067 227.139 31.2C227.033 31.4933 226.979 31.9867 226.979 32.68C227.059 33.4267 227.259 33.9467 227.579 34.24C227.926 34.5333 228.419 34.68 229.059 34.68C229.379 34.68 229.753 34.5867 230.179 34.4C230.606 34.1867 231.113 33.8533 231.699 33.4C232.019 33.1333 232.273 32.9467 232.459 32.84C232.646 32.7333 232.873 32.68 233.139 32.68C233.379 32.68 233.659 32.84 233.979 33.16C234.299 33.48 234.473 33.7867 234.499 34.08C234.446 34.4 234.153 34.88 233.619 35.52C233.086 36.16 232.393 36.7333 231.539 37.24C230.686 37.7467 229.766 38 228.779 38ZM230.179 28.36C230.686 28.36 231.033 28.3067 231.219 28.2C231.486 28.0667 231.886 27.7333 232.419 27.2C232.979 26.64 233.273 26.2533 233.299 26.04C233.299 25.7733 233.179 25.56 232.939 25.4C232.726 25.2133 232.419 25.0933 232.019 25.04H231.579C231.233 25.04 230.726 25.3333 230.059 25.92C229.419 26.48 228.859 27.1333 228.379 27.88C228.406 28.0133 228.606 28.1333 228.979 28.24C229.353 28.32 229.753 28.36 230.179 28.36Z" fill="url(#paint0_linear)"/>
<rect width="56" height="58" rx="15" fill="url(#paint1_linear)"/>
<g clip-path="url(#clip0)">
<path d="M43.99 18.8218C43.9909 18.8035 43.9907 18.785 43.9896 18.7667C43.9834 18.7472 43.9759 18.7282 43.9674 18.7097C43.9368 18.6185 43.8842 18.5362 43.8143 18.4702C43.7882 18.4486 43.76 18.4296 43.7302 18.4135C43.7038 18.3963 43.6758 18.3817 43.6466 18.3697C43.6102 18.3582 43.5727 18.3507 43.5347 18.3472C43.5121 18.3409 43.489 18.3363 43.4657 18.3332C43.46 18.3332 43.4553 18.3363 43.4497 18.3364C43.4437 18.3365 43.4384 18.3339 43.4323 18.3342L24.7905 19.4981C24.7203 17.8677 23.6669 16.4432 22.1285 15.8985C22.2009 15.5408 22.3534 15.2042 22.5745 14.914C23.1439 14.301 23.9661 13.9877 24.799 14.0666C25.0936 14.0666 25.3323 13.8279 25.3323 13.5333C25.3323 13.2387 25.0936 13 24.7991 13C23.4298 13 22.4007 13.4203 21.7402 14.2489C21.4145 14.6698 21.1895 15.1597 21.0823 15.681C20.9884 15.6744 20.8947 15.6666 20.799 15.6666C18.8247 15.67 17.1478 17.1125 16.8494 19.0642C16.3215 18.594 15.6394 18.3339 14.9324 18.3333C13.6205 18.3369 12.4711 19.2123 12.1187 20.4759C12.0435 20.567 12.0013 20.6808 11.999 20.7989V38.6702C11.9991 42.1603 15.1093 44.9998 18.9325 44.9998C18.9643 44.9965 18.9957 44.9901 19.0264 44.9809C19.1183 45.0083 19.2166 45.0061 19.3072 44.9748L43.6272 37.2467C43.6353 37.2442 43.6407 37.2378 43.6486 37.2349C43.6834 37.2203 43.7166 37.2019 43.7473 37.18C43.8659 37.1175 43.949 37.0037 43.9722 36.8716C43.9834 36.8361 43.9908 36.7995 43.9942 36.7625C43.9946 36.754 43.9991 36.7469 43.9991 36.7384V18.8667C43.999 18.8507 43.9914 18.8373 43.99 18.8218ZM18.1461 18.4102C18.6306 17.3842 19.6645 16.7307 20.7992 16.7333C20.8562 16.7333 20.9119 16.7386 20.9681 16.7419C20.9638 17.1371 21.0011 17.5317 21.0794 17.9192C21.1349 18.1613 21.3502 18.333 21.5986 18.3333C21.6389 18.3334 21.6791 18.3288 21.7184 18.3197C22.0055 18.2538 22.1848 17.9678 22.119 17.6807C22.119 17.6807 22.119 17.6807 22.119 17.6807C22.0772 17.4604 22.0515 17.2374 22.042 17.0135C23.5036 17.7036 24.1289 19.4479 23.4388 20.9095C22.7487 22.371 21.0044 22.9963 19.5428 22.3062C18.0812 21.6161 17.4559 19.8718 18.1461 18.4102ZM18.3991 43.9118C15.4132 43.6691 13.0658 41.4108 13.0658 38.6702V24.2624C14.2739 26.0619 16.2384 27.2101 18.3991 27.3796V43.9118ZM18.8596 26.3297C15.7988 26.292 13.2199 23.9114 13.0795 21.0428C13.0861 20.9956 13.0926 20.9478 13.1036 20.8963C13.2799 20.0261 14.0446 19.4004 14.9326 19.4C15.7353 19.4017 16.4476 19.915 16.7031 20.676C16.7561 20.8309 16.8785 20.9521 17.0339 21.0036C17.7693 23.0836 20.0517 24.1736 22.1316 23.4381C23.4183 22.9831 24.3838 21.9027 24.6916 20.5731L39.31 19.6604L27.3004 23.5755C27.2928 23.578 27.2878 23.5841 27.2804 23.5869C27.2461 23.6016 27.2135 23.6201 27.1831 23.642C27.0643 23.704 26.9815 23.818 26.9593 23.9501C26.9478 23.9861 26.9403 24.0232 26.937 24.0608C26.9366 24.0686 26.9325 24.0751 26.9325 24.0829V26.8667C26.9325 27.1613 26.6938 27.4 26.3992 27.4C26.1046 27.4 25.8659 27.1613 25.8659 26.8667V24.7812C25.8659 24.4866 25.6271 24.2479 25.3326 24.2479C25.038 24.2479 24.7993 24.4867 24.7993 24.7812V38.0665C24.7993 38.3611 24.5605 38.5999 24.266 38.5999C23.9714 38.5999 23.7327 38.3611 23.7327 38.0665V25.4744C23.7193 25.4201 23.7105 25.3646 23.7063 25.3088C23.7039 25.3014 23.698 25.2964 23.6952 25.2891C23.6807 25.2553 23.6625 25.2231 23.6411 25.1932C23.614 25.1346 23.5692 25.086 23.5129 25.0544C23.4657 25.0085 23.405 24.9787 23.3398 24.9695C23.301 24.9567 23.2608 24.9486 23.22 24.9453C23.2128 24.945 23.2067 24.9411 23.1993 24.9411C23.1716 24.9444 23.1442 24.9499 23.1173 24.9577C23.0893 24.9587 23.0614 24.9621 23.034 24.9677L18.8596 26.3297ZM19.4658 35.7317V33.6533L22.6658 32.6091V34.6876L19.4658 35.7317ZM22.6658 35.8091V37.8887L19.4658 38.9315V36.8532L22.6658 35.8091ZM19.4658 32.5318V27.2533L22.6658 26.2092V31.4876L19.4658 32.5318ZM42.9324 36.3482L19.4658 43.8051V40.0538L22.9216 38.9277C23.3957 39.6715 24.3831 39.8903 25.127 39.4162C25.588 39.1223 25.8667 38.6132 25.8658 38.0665V37.9684L42.9324 32.4018V36.3482ZM42.9324 31.2792L25.8658 36.8459V34.7684L42.9324 29.2018V31.2792ZM42.9324 28.0792L25.8658 33.6459V31.5685L42.9324 26.0019V28.0792ZM42.9324 24.8792L25.8658 30.446V28.3683C26.0366 28.4315 26.217 28.4648 26.3991 28.4666C27.2823 28.4657 27.9981 27.7499 27.9991 26.8666V24.4701L42.9323 19.6016V24.8792H42.9324Z" fill="#FAF0F1"/>
</g>
<defs>
<linearGradient id="paint0_linear" x1="67.7342" y1="0.0168208" x2="237.231" y2="33.745" gradientUnits="userSpaceOnUse">
<stop stop-color="#8E0821" stop-opacity="0.9"/>
<stop offset="1" stop-color="#EA6585"/>
</linearGradient>
<linearGradient id="paint1_linear" x1="-1.34908e-06" y1="0.0195213" x2="57.9253" y2="55.9474" gradientUnits="userSpaceOnUse">
<stop stop-color="#8E0821"/>
<stop offset="1" stop-color="#EA6585"/>
</linearGradient>
<clipPath id="clip0">
<rect width="32" height="32" fill="white" transform="translate(12 13)"/>
</clipPath>
</defs>
</svg>
