<svg width="264" height="106" viewBox="0 0 264 106" fill="none" xmlns="http://www.w3.org/2000/svg">
<path d="M100.51 74.958H98.9504V78H98.0274V71.162H98.9504V74.165H100.523L102.928 71.162H103.929L101.238 74.477L104.124 78H103.032L100.51 74.958ZM107.901 78.065C107.242 78.065 106.649 77.9177 106.12 77.623C105.591 77.3197 105.175 76.9037 104.872 76.375C104.569 75.8463 104.417 75.2483 104.417 74.581C104.417 73.9137 104.569 73.3157 104.872 72.787C105.175 72.2583 105.591 71.8467 106.12 71.552C106.649 71.2573 107.242 71.11 107.901 71.11C108.56 71.11 109.153 71.2573 109.682 71.552C110.211 71.8467 110.622 72.2583 110.917 72.787C111.22 73.3157 111.372 73.9137 111.372 74.581C111.372 75.2483 111.22 75.8463 110.917 76.375C110.622 76.9037 110.211 77.3197 109.682 77.623C109.153 77.9177 108.56 78.065 107.901 78.065ZM107.901 77.246C108.386 77.246 108.82 77.1377 109.201 76.921C109.591 76.6957 109.894 76.3793 110.111 75.972C110.328 75.5647 110.436 75.101 110.436 74.581C110.436 74.061 110.328 73.5973 110.111 73.19C109.894 72.7827 109.591 72.4707 109.201 72.254C108.82 72.0287 108.386 71.916 107.901 71.916C107.416 71.916 106.978 72.0287 106.588 72.254C106.207 72.4707 105.903 72.7827 105.678 73.19C105.461 73.5973 105.353 74.061 105.353 74.581C105.353 75.101 105.461 75.5647 105.678 75.972C105.903 76.3793 106.207 76.6957 106.588 76.921C106.978 77.1377 107.416 77.246 107.901 77.246ZM113.085 71.162H114.008V74.191H118.311V71.162H119.234V78H118.311V74.984H114.008V78H113.085V71.162ZM128.266 77.194V79.651H127.395V78H121.272V79.651H120.401V77.194H120.791C121.25 77.168 121.562 76.83 121.727 76.18C121.892 75.53 122.004 74.62 122.065 73.45L122.156 71.162H127.2V77.194H128.266ZM122.91 73.502C122.867 74.4727 122.784 75.2743 122.663 75.907C122.542 76.531 122.325 76.96 122.013 77.194H126.277V71.981H122.988L122.91 73.502ZM129.805 71.162H130.728V76.596L135.291 71.162H136.11V78H135.187V72.566L130.637 78H129.805V71.162ZM143.305 71.981H140.718V78H139.795V71.981H137.208V71.162H143.305V71.981ZM150.042 74.867H144.322C144.374 75.5777 144.647 76.154 145.141 76.596C145.635 77.0293 146.259 77.246 147.013 77.246C147.438 77.246 147.828 77.1723 148.183 77.025C148.538 76.869 148.846 76.6437 149.106 76.349L149.626 76.947C149.323 77.311 148.941 77.5883 148.482 77.779C148.031 77.9697 147.533 78.065 146.987 78.065C146.285 78.065 145.661 77.9177 145.115 77.623C144.578 77.3197 144.157 76.9037 143.854 76.375C143.551 75.8463 143.399 75.2483 143.399 74.581C143.399 73.9137 143.542 73.3157 143.828 72.787C144.123 72.2583 144.521 71.8467 145.024 71.552C145.535 71.2573 146.107 71.11 146.74 71.11C147.373 71.11 147.94 71.2573 148.443 71.552C148.946 71.8467 149.34 72.2583 149.626 72.787C149.912 73.307 150.055 73.905 150.055 74.581L150.042 74.867ZM146.74 71.903C146.081 71.903 145.527 72.1153 145.076 72.54C144.634 72.956 144.383 73.502 144.322 74.178H149.171C149.11 73.502 148.855 72.956 148.404 72.54C147.962 72.1153 147.407 71.903 146.74 71.903ZM155.361 71.11C156.003 71.11 156.583 71.2573 157.103 71.552C157.623 71.838 158.031 72.2453 158.325 72.774C158.62 73.3027 158.767 73.905 158.767 74.581C158.767 75.2657 158.62 75.8723 158.325 76.401C158.031 76.9297 157.623 77.3413 157.103 77.636C156.592 77.922 156.011 78.065 155.361 78.065C154.807 78.065 154.304 77.9523 153.853 77.727C153.411 77.493 153.047 77.155 152.761 76.713V80.522H151.838V71.162H152.722V72.514C153 72.0633 153.364 71.7167 153.814 71.474C154.274 71.2313 154.789 71.11 155.361 71.11ZM155.296 77.246C155.773 77.246 156.206 77.1377 156.596 76.921C156.986 76.6957 157.29 76.3793 157.506 75.972C157.732 75.5647 157.844 75.101 157.844 74.581C157.844 74.061 157.732 73.6017 157.506 73.203C157.29 72.7957 156.986 72.4793 156.596 72.254C156.206 72.0287 155.773 71.916 155.296 71.916C154.811 71.916 154.373 72.0287 153.983 72.254C153.602 72.4793 153.299 72.7957 153.073 73.203C152.857 73.6017 152.748 74.061 152.748 74.581C152.748 75.101 152.857 75.5647 153.073 75.972C153.299 76.3793 153.602 76.6957 153.983 76.921C154.373 77.1377 154.811 77.246 155.296 77.246ZM163.35 78.065C162.674 78.065 162.068 77.9177 161.53 77.623C161.002 77.3283 160.586 76.9167 160.282 76.388C159.979 75.8507 159.827 75.2483 159.827 74.581C159.827 73.9137 159.979 73.3157 160.282 72.787C160.586 72.2583 161.002 71.8467 161.53 71.552C162.068 71.2573 162.674 71.11 163.35 71.11C163.94 71.11 164.464 71.227 164.923 71.461C165.391 71.6863 165.76 72.02 166.028 72.462L165.339 72.93C165.114 72.592 164.828 72.3407 164.481 72.176C164.135 72.0027 163.758 71.916 163.35 71.916C162.856 71.916 162.41 72.0287 162.011 72.254C161.621 72.4707 161.314 72.7827 161.088 73.19C160.872 73.5973 160.763 74.061 160.763 74.581C160.763 75.1097 160.872 75.5777 161.088 75.985C161.314 76.3837 161.621 76.6957 162.011 76.921C162.41 77.1377 162.856 77.246 163.35 77.246C163.758 77.246 164.135 77.1637 164.481 76.999C164.828 76.8343 165.114 76.583 165.339 76.245L166.028 76.713C165.76 77.155 165.391 77.493 164.923 77.727C164.455 77.9523 163.931 78.065 163.35 78.065ZM170.494 73.58C171.352 73.5887 172.002 73.7793 172.444 74.152C172.894 74.5247 173.12 75.062 173.12 75.764C173.12 76.492 172.877 77.051 172.392 77.441C171.915 77.831 171.222 78.0217 170.312 78.013L167.556 78V71.162H168.479V73.554L170.494 73.58ZM170.26 77.311C170.892 77.3197 171.369 77.194 171.69 76.934C172.019 76.6653 172.184 76.2753 172.184 75.764C172.184 75.2613 172.023 74.8887 171.703 74.646C171.382 74.4033 170.901 74.2777 170.26 74.269L168.479 74.243V77.285L170.26 77.311ZM177.104 74.958H175.544V78H174.621V71.162H175.544V74.165H177.117L179.522 71.162H180.523L177.832 74.477L180.718 78H179.626L177.104 74.958ZM184.14 71.11C185.033 71.11 185.718 71.3353 186.194 71.786C186.671 72.228 186.909 72.8867 186.909 73.762V78H186.025V76.934C185.817 77.2893 185.51 77.5667 185.102 77.766C184.704 77.9653 184.227 78.065 183.672 78.065C182.91 78.065 182.303 77.883 181.852 77.519C181.402 77.155 181.176 76.674 181.176 76.076C181.176 75.4953 181.384 75.0273 181.8 74.672C182.225 74.3167 182.897 74.139 183.815 74.139H185.986V73.723C185.986 73.1337 185.822 72.6873 185.492 72.384C185.163 72.072 184.682 71.916 184.049 71.916C183.616 71.916 183.2 71.9897 182.801 72.137C182.403 72.2757 182.06 72.4707 181.774 72.722L181.358 72.033C181.705 71.7383 182.121 71.513 182.606 71.357C183.092 71.1923 183.603 71.11 184.14 71.11ZM183.815 77.337C184.335 77.337 184.782 77.22 185.154 76.986C185.527 76.7433 185.804 76.3967 185.986 75.946V74.828H183.841C182.671 74.828 182.086 75.2353 182.086 76.05C182.086 76.4487 182.238 76.765 182.541 76.999C182.845 77.2243 183.269 77.337 183.815 77.337ZM199.893 71.162V78H199.048V72.592L196.279 77.168H195.863L193.094 72.579V78H192.249V71.162H193.185L196.084 76.089L199.035 71.162H199.893ZM204.612 71.11C205.505 71.11 206.19 71.3353 206.666 71.786C207.143 72.228 207.381 72.8867 207.381 73.762V78H206.497V76.934C206.289 77.2893 205.982 77.5667 205.574 77.766C205.176 77.9653 204.699 78.065 204.144 78.065C203.382 78.065 202.775 77.883 202.324 77.519C201.874 77.155 201.648 76.674 201.648 76.076C201.648 75.4953 201.856 75.0273 202.272 74.672C202.697 74.3167 203.369 74.139 204.287 74.139H206.458V73.723C206.458 73.1337 206.294 72.6873 205.964 72.384C205.635 72.072 205.154 71.916 204.521 71.916C204.088 71.916 203.672 71.9897 203.273 72.137C202.875 72.2757 202.532 72.4707 202.246 72.722L201.83 72.033C202.177 71.7383 202.593 71.513 203.078 71.357C203.564 71.1923 204.075 71.11 204.612 71.11ZM204.287 77.337C204.807 77.337 205.254 77.22 205.626 76.986C205.999 76.7433 206.276 76.3967 206.458 75.946V74.828H204.313C203.143 74.828 202.558 75.2353 202.558 76.05C202.558 76.4487 202.71 76.765 203.013 76.999C203.317 77.2243 203.741 77.337 204.287 77.337ZM209.579 71.162H210.502V76.596L215.065 71.162H215.884V78H214.961V72.566L210.411 78H209.579V71.162ZM212.686 70.174C212.096 70.174 211.628 70.0267 211.282 69.732C210.935 69.4373 210.757 69.0213 210.749 68.484H211.412C211.42 68.822 211.542 69.095 211.776 69.303C212.01 69.5023 212.313 69.602 212.686 69.602C213.058 69.602 213.362 69.5023 213.596 69.303C213.838 69.095 213.964 68.822 213.973 68.484H214.636C214.627 69.0213 214.445 69.4373 214.09 69.732C213.743 70.0267 213.275 70.174 212.686 70.174ZM221.129 78.065C220.453 78.065 219.846 77.9177 219.309 77.623C218.78 77.3283 218.364 76.9167 218.061 76.388C217.757 75.8507 217.606 75.2483 217.606 74.581C217.606 73.9137 217.757 73.3157 218.061 72.787C218.364 72.2583 218.78 71.8467 219.309 71.552C219.846 71.2573 220.453 71.11 221.129 71.11C221.718 71.11 222.242 71.227 222.702 71.461C223.17 71.6863 223.538 72.02 223.807 72.462L223.118 72.93C222.892 72.592 222.606 72.3407 222.26 72.176C221.913 72.0027 221.536 71.916 221.129 71.916C220.635 71.916 220.188 72.0287 219.79 72.254C219.4 72.4707 219.092 72.7827 218.867 73.19C218.65 73.5973 218.542 74.061 218.542 74.581C218.542 75.1097 218.65 75.5777 218.867 75.985C219.092 76.3837 219.4 76.6957 219.79 76.921C220.188 77.1377 220.635 77.246 221.129 77.246C221.536 77.246 221.913 77.1637 222.26 76.999C222.606 76.8343 222.892 76.583 223.118 76.245L223.807 76.713C223.538 77.155 223.17 77.493 222.702 77.727C222.234 77.9523 221.709 78.065 221.129 78.065ZM230.017 71.981H227.43V78H226.507V71.981H223.92V71.162H230.017V71.981ZM236.754 74.867H231.034C231.086 75.5777 231.359 76.154 231.853 76.596C232.347 77.0293 232.971 77.246 233.725 77.246C234.15 77.246 234.54 77.1723 234.895 77.025C235.25 76.869 235.558 76.6437 235.818 76.349L236.338 76.947C236.035 77.311 235.653 77.5883 235.194 77.779C234.743 77.9697 234.245 78.065 233.699 78.065C232.997 78.065 232.373 77.9177 231.827 77.623C231.29 77.3197 230.869 76.9037 230.566 76.375C230.263 75.8463 230.111 75.2483 230.111 74.581C230.111 73.9137 230.254 73.3157 230.54 72.787C230.835 72.2583 231.233 71.8467 231.736 71.552C232.247 71.2573 232.819 71.11 233.452 71.11C234.085 71.11 234.652 71.2573 235.155 71.552C235.658 71.8467 236.052 72.2583 236.338 72.787C236.624 73.307 236.767 73.905 236.767 74.581L236.754 74.867ZM233.452 71.903C232.793 71.903 232.239 72.1153 231.788 72.54C231.346 72.956 231.095 73.502 231.034 74.178H235.883C235.822 73.502 235.567 72.956 235.116 72.54C234.674 72.1153 234.119 71.903 233.452 71.903ZM242.073 71.11C242.715 71.11 243.295 71.2573 243.815 71.552C244.335 71.838 244.743 72.2453 245.037 72.774C245.332 73.3027 245.479 73.905 245.479 74.581C245.479 75.2657 245.332 75.8723 245.037 76.401C244.743 76.9297 244.335 77.3413 243.815 77.636C243.304 77.922 242.723 78.065 242.073 78.065C241.519 78.065 241.016 77.9523 240.565 77.727C240.123 77.493 239.759 77.155 239.473 76.713V80.522H238.55V71.162H239.434V72.514C239.712 72.0633 240.076 71.7167 240.526 71.474C240.986 71.2313 241.501 71.11 242.073 71.11ZM242.008 77.246C242.485 77.246 242.918 77.1377 243.308 76.921C243.698 76.6957 244.002 76.3793 244.218 75.972C244.444 75.5647 244.556 75.101 244.556 74.581C244.556 74.061 244.444 73.6017 244.218 73.203C244.002 72.7957 243.698 72.4793 243.308 72.254C242.918 72.0287 242.485 71.916 242.008 71.916C241.523 71.916 241.085 72.0287 240.695 72.254C240.314 72.4793 240.011 72.7957 239.785 73.203C239.569 73.6017 239.46 74.061 239.46 74.581C239.46 75.101 239.569 75.5647 239.785 75.972C240.011 76.3793 240.314 76.6957 240.695 76.921C241.085 77.1377 241.523 77.246 242.008 77.246ZM247.202 71.162H248.125V74.191H252.428V71.162H253.351V78H252.428V74.984H248.125V78H247.202V71.162ZM260.967 71.162V78H260.122V75.738H257.977H257.717L256.131 78H255.13L256.833 75.608C256.304 75.4607 255.897 75.2093 255.611 74.854C255.325 74.4987 255.182 74.048 255.182 73.502C255.182 72.7393 255.442 72.1587 255.962 71.76C256.482 71.3613 257.192 71.162 258.094 71.162H260.967ZM256.118 73.528C256.118 74.542 256.763 75.049 258.055 75.049H260.122V71.981H258.12C256.785 71.981 256.118 72.4967 256.118 73.528Z" fill="#673F3E"/>
<path d="M102.04 63.12L102.08 63C102.08 62.7333 101.853 62.5867 101.4 62.56C100.84 62.2133 100.24 61.6267 99.6 60.8C98.96 59.9467 98.56 59.2933 98.4 58.84C98.32 58.6267 98.28 58.48 98.28 58.4C98.28 58.2667 98.3333 58.1733 98.44 58.12C98.5467 58.04 98.68 57.9733 98.84 57.92C99 57.84 99.12 57.7867 99.2 57.76C99.68 57.44 100.04 57.28 100.28 57.28C100.547 57.28 100.773 57.4533 100.96 57.8C101.333 58.4667 101.933 59.0267 102.76 59.48C103.587 59.9067 104.507 60.12 105.52 60.12C106.427 60.12 107.24 59.96 107.96 59.64C108.653 59.32 109 58.8533 109 58.24C109 57.7867 108.8 57.24 108.4 56.6C108.347 56.44 108.253 56.2933 108.12 56.16C107.987 56.0267 107.827 55.8933 107.64 55.76C107.213 55.44 106.747 55.0267 106.24 54.52C105.813 54.36 105.373 54.1467 104.92 53.88L104.08 53.48C103.413 53.16 102.667 52.6533 101.84 51.96C101.013 51.24 100.44 50.5733 100.12 49.96C99.5333 49.4 99.24 48.5467 99.24 47.4C99.24 46.1467 99.5333 44.9733 100.12 43.88C100.44 43.16 101.213 42.0533 102.44 40.56C103.667 39.0667 104.573 38.1333 105.16 37.76L106.2 36.76C106.227 36.6533 106.267 36.6 106.32 36.6C106.373 36.5733 106.413 36.56 106.44 36.56C106.52 36.5067 106.8 36.3867 107.28 36.2C107.76 35.9867 108.267 35.6267 108.8 35.12C110.427 34.32 111.867 33.76 113.12 33.44C114.4 33.0933 115.467 32.92 116.32 32.92C117.36 32.9733 118.32 33.3467 119.2 34.04C120.107 34.7333 120.627 35.5333 120.76 36.44C120.813 36.7067 120.84 36.92 120.84 37.08C120.84 38.0667 120.44 39.1733 119.64 40.4C118.84 41.6267 117.987 42.4933 117.08 43C116.68 43.1867 116.293 43.28 115.92 43.28C115.467 43.28 115.093 43.16 114.8 42.92C114.533 42.68 114.413 42.3733 114.44 42C114.44 41.76 114.52 41.4933 114.68 41.2C114.867 40.88 115.267 40.3733 115.88 39.68C116.787 38.3467 117.24 37.3867 117.24 36.8C117.24 36.4 117 36.16 116.52 36.08C116.227 36 115.427 36.12 114.12 36.44C112.84 36.7333 112.2 36.9467 112.2 37.08C112.2 37.1067 112.187 37.16 112.16 37.24C112.16 37.2933 112.12 37.3067 112.04 37.28C111.933 37.2533 111.173 37.6933 109.76 38.6C108.373 39.5067 107.653 40.0267 107.6 40.16C107.573 40.2933 107.467 40.44 107.28 40.6C107.12 40.7333 106.92 40.8533 106.68 40.96C106.2 41.2533 105.76 41.6533 105.36 42.16C104.987 42.6667 104.493 43.4667 103.88 44.56C103.56 45.0133 103.293 45.5067 103.08 46.04C102.893 46.5733 102.8 47.0533 102.8 47.48C102.8 47.7733 102.84 48.0267 102.92 48.24C103.027 48.64 103.307 49.0133 103.76 49.36C104.24 49.68 105.147 50.24 106.48 51.04C107.84 51.8133 109.067 52.64 110.16 53.52C111.253 54.3733 111.92 55.0533 112.16 55.56C112.587 56.1733 112.8 56.9733 112.8 57.96C112.8 58.7333 112.693 59.4667 112.48 60.16C112.24 60.6667 111.933 61.1333 111.56 61.56C111.187 62.0133 110.853 62.2267 110.56 62.2C110.293 62.28 110.067 62.3733 109.88 62.48C109.693 62.6133 109.533 62.7067 109.4 62.76C109.08 62.9467 108.253 63.1333 106.92 63.32C105.613 63.5333 104.52 63.6267 103.64 63.6L102.04 63.12ZM122.394 59.8C121.994 59.8 121.594 59.5067 121.194 58.92C120.794 58.3067 120.474 57.56 120.234 56.68C120.02 55.7733 119.94 54.9067 119.994 54.08C119.994 53.12 120.06 52.32 120.194 51.68C120.327 51.04 120.407 50.64 120.434 50.48C120.487 50.3467 120.54 50.12 120.594 49.8C120.647 49.4533 120.754 48.9733 120.914 48.36C121.1 47.5867 121.314 47.0133 121.554 46.64C121.927 46.1067 122.42 45.84 123.034 45.84C123.354 45.84 123.634 45.9333 123.874 46.12C124.14 46.28 124.287 46.52 124.314 46.84C124.474 47 124.554 47.3867 124.554 48C124.554 48.4533 124.514 48.8933 124.434 49.32C124.354 49.7467 124.247 50.0533 124.114 50.24C124.034 50.4 123.914 51.1733 123.754 52.56C123.647 53.5733 123.567 54.2267 123.514 54.52C123.487 54.6267 123.474 54.7733 123.474 54.96C123.474 55.3067 123.567 55.48 123.754 55.48C124.154 55.48 124.887 54.6933 125.954 53.12C126.674 52.0533 127.14 51.2933 127.354 50.84C127.594 50.36 127.887 49.64 128.234 48.68C128.5 47.8533 128.74 47.32 128.954 47.08C129.22 46.7067 129.594 46.52 130.074 46.52C130.527 46.52 130.954 46.6667 131.354 46.96C131.754 47.36 131.954 47.88 131.954 48.52C131.954 49 131.82 49.5067 131.554 50.04C131.234 50.7067 130.94 51.52 130.674 52.48C130.407 53.44 130.274 54.2267 130.274 54.84C130.274 55.32 130.327 55.6267 130.434 55.76C130.567 55.8667 130.767 55.92 131.034 55.92C131.327 55.92 131.607 55.8133 131.874 55.6C132.167 55.3867 132.62 54.9733 133.234 54.36C133.687 53.9067 134.314 53.0533 135.114 51.8C135.914 50.5467 136.314 49.8 136.314 49.56C136.314 49.4 136.434 49.1733 136.674 48.88C136.807 48.6933 136.927 48.5333 137.034 48.4C137.167 48.2667 137.354 48.1333 137.594 48C137.754 47.9467 137.887 47.92 137.994 47.92C138.367 47.92 138.7 48.0667 138.994 48.36C139.1 48.4667 139.194 48.72 139.274 49.12C139.354 49.52 139.394 49.8933 139.394 50.24C138.834 52.32 138.394 53.5333 138.074 53.88C137.567 54.28 137.14 54.7733 136.794 55.36C136.154 56.1333 135.647 56.68 135.274 57C134.927 57.2933 134.7 57.4933 134.594 57.6C134.007 58.1867 133.327 58.6533 132.554 59C131.78 59.3467 131.06 59.52 130.394 59.52C129.86 59.52 129.434 59.4 129.114 59.16C128.287 58.7333 127.874 58.0133 127.874 57C127.874 56.8133 127.847 56.64 127.794 56.48C127.74 56.32 127.7 56.2133 127.674 56.16C127.274 56.16 126.954 56.3733 126.714 56.8C126.34 57.44 125.647 58.1067 124.634 58.8C123.647 59.4667 122.9 59.8 122.394 59.8ZM149.178 61C147.658 61 146.431 60.5733 145.498 59.72C144.564 58.8667 144.098 57.6533 144.098 56.08C144.098 55.4667 144.138 54.7867 144.218 54.04C144.271 53.4 144.524 52.52 144.978 51.4C145.458 50.28 146.098 49.1867 146.898 48.12C147.724 47.0533 148.684 46.2667 149.778 45.76C150.284 45.52 150.711 45.36 151.058 45.28C151.404 45.1733 151.804 45.12 152.258 45.12C153.351 45.12 154.231 45.32 154.898 45.72C155.591 46.12 156.071 46.5733 156.338 47.08C156.631 47.5867 156.778 48.0267 156.778 48.4V48.6V48.72C156.778 49.04 156.591 49.6267 156.218 50.48C155.844 51.3333 155.244 52.1333 154.418 52.88C153.618 53.6267 152.578 54.04 151.298 54.12C150.658 54.12 150.031 54.0667 149.418 53.96C148.831 53.8267 148.458 53.76 148.298 53.76C147.898 53.76 147.644 53.9067 147.538 54.2C147.431 54.4933 147.378 54.9867 147.378 55.68C147.458 56.4267 147.658 56.9467 147.978 57.24C148.324 57.5333 148.818 57.68 149.458 57.68C149.778 57.68 150.151 57.5867 150.578 57.4C151.004 57.1867 151.511 56.8533 152.098 56.4C152.418 56.1333 152.671 55.9467 152.858 55.84C153.044 55.7333 153.271 55.68 153.538 55.68C153.778 55.68 154.058 55.84 154.378 56.16C154.698 56.48 154.871 56.7867 154.898 57.08C154.844 57.4 154.551 57.88 154.018 58.52C153.484 59.16 152.791 59.7333 151.938 60.24C151.084 60.7467 150.164 61 149.178 61ZM150.578 51.36C151.084 51.36 151.431 51.3067 151.618 51.2C151.884 51.0667 152.284 50.7333 152.818 50.2C153.378 49.64 153.671 49.2533 153.698 49.04C153.698 48.7733 153.578 48.56 153.338 48.4C153.124 48.2133 152.818 48.0933 152.418 48.04H151.978C151.631 48.04 151.124 48.3333 150.458 48.92C149.818 49.48 149.258 50.1333 148.778 50.88C148.804 51.0133 149.004 51.1333 149.378 51.24C149.751 51.32 150.151 51.36 150.578 51.36ZM165.657 61.72C162.617 61.72 161.097 59.9867 161.097 56.52C161.097 55.2667 161.404 53.8533 162.017 52.28C162.657 50.68 163.444 49.2533 164.377 48C165.337 46.72 166.284 45.8667 167.217 45.44C167.724 45.1733 168.311 45.04 168.977 45.04C170.177 45.04 171.217 45.3067 172.097 45.84C173.004 46.3467 173.457 47.32 173.457 48.76C173.457 49.5867 173.177 50.4933 172.617 51.48C172.057 52.4667 171.351 53.3067 170.497 54C169.671 54.6667 168.857 55 168.057 55C166.857 55 165.844 54.6133 165.017 53.84C164.564 54.7467 164.337 55.6133 164.337 56.44C164.337 57.1067 164.417 57.6267 164.577 58C164.737 58.3467 165.111 58.52 165.697 58.52C166.257 58.52 166.711 58.44 167.057 58.28C167.404 58.12 167.724 57.9333 168.017 57.72C168.311 57.5067 168.537 57.3467 168.697 57.24L168.857 57.16H168.817C169.297 56.8933 169.644 56.6933 169.857 56.56C170.097 56.4 170.297 56.2933 170.457 56.24C170.857 56.24 171.231 56.36 171.577 56.6C171.924 56.84 172.097 57.1333 172.097 57.48C172.097 57.7467 171.857 58.1867 171.377 58.8C170.897 59.3867 170.404 59.8 169.897 60.04L169.417 60.28H169.457C169.217 60.6 168.977 60.76 168.737 60.76H168.417C168.311 60.9733 167.951 61.1867 167.337 61.4C166.751 61.6133 166.191 61.72 165.657 61.72ZM167.737 52.08C168.484 52.08 169.097 51.76 169.577 51.12C170.084 50.48 170.337 49.84 170.337 49.2C170.337 48.9067 170.257 48.64 170.097 48.4C169.964 48.16 169.777 48.04 169.537 48.04C169.084 48.04 168.577 48.2533 168.017 48.68C167.457 49.1067 166.964 49.6667 166.537 50.36L166.017 51.2C166.124 51.1467 166.204 51.12 166.257 51.12C166.471 51.12 166.631 51.2133 166.737 51.4C166.844 51.5867 166.964 51.7467 167.097 51.88C167.231 52.0133 167.444 52.08 167.737 52.08ZM184.177 61.24C183.59 61.08 182.83 60.5867 181.897 59.76C181.443 59.1733 181.177 58.6533 181.097 58.2C181.017 57.72 180.977 56.7867 180.977 55.4C180.977 54.76 181.297 53.16 181.937 50.6C181.963 50.4933 182.057 50.1333 182.217 49.52C182.297 49.2267 182.19 49.04 181.897 48.96C181.603 48.88 181.19 48.84 180.657 48.84C180.203 48.84 179.937 48.8133 179.857 48.76C179.777 48.7333 179.723 48.6133 179.697 48.4C179.697 48.1867 179.697 48.04 179.697 47.96C179.697 47.88 179.63 47.8 179.497 47.72C179.39 47.64 179.31 47.56 179.257 47.48C179.177 47.3733 179.243 47.1733 179.457 46.88C179.67 46.5867 179.91 46.4133 180.177 46.36C180.337 46.3333 180.683 46.2933 181.217 46.24C181.75 46.1867 182.257 46.08 182.737 45.92C183.243 45.76 183.617 45.5333 183.857 45.24C184.203 44.3333 184.603 43.3733 185.057 42.36C185.537 41.3467 185.87 40.7467 186.057 40.56C186.483 40.3467 186.87 40.24 187.217 40.24C187.803 40.24 188.257 40.48 188.577 40.96C188.657 41.0667 188.75 41.1733 188.857 41.28C188.963 41.3867 189.017 41.5067 189.017 41.64C189.017 41.8267 188.923 42.12 188.737 42.52C188.577 42.92 188.243 43.5733 187.737 44.48L187.217 45.48C187.297 45.5067 187.483 45.52 187.777 45.52C188.07 45.52 188.31 45.5067 188.497 45.48C189.083 45.3733 189.537 45.32 189.857 45.32C190.097 45.32 190.27 45.3333 190.377 45.36C191.497 45.36 192.11 45.9733 192.217 47.2C192.27 47.52 192.15 47.7867 191.857 48C191.59 48.1867 191.11 48.28 190.417 48.28C187.67 48.3867 186.283 48.5067 186.257 48.64C186.123 48.72 185.91 49.1333 185.617 49.88C185.323 50.6267 185.083 51.3333 184.897 52C184.577 53.3867 184.417 54.6933 184.417 55.92C184.417 57.0933 184.59 57.8533 184.937 58.2C185.043 58.3067 185.19 58.36 185.377 58.36C185.857 58.36 186.537 58 187.417 57.28C187.71 57.0133 188.03 56.88 188.377 56.88C188.67 56.88 188.897 56.9867 189.057 57.2C189.243 57.4133 189.337 57.6933 189.337 58.04C189.337 58.44 189.203 58.8267 188.937 59.2C188.537 59.8133 187.937 60.32 187.137 60.72C186.337 61.12 185.577 61.32 184.857 61.32C184.537 61.32 184.31 61.2933 184.177 61.24ZM210.186 62.2C209.786 62.0667 209.48 61.8267 209.266 61.48C209.08 61.1333 208.986 60.6267 208.986 59.96C208.986 58.8667 209.093 57.8 209.306 56.76L209.346 56.44C209.373 56.28 209.413 56.0267 209.466 55.68C209.52 55.3067 209.56 55.2 209.586 55.36L209.826 54.28C210.013 53.5333 210.186 52.84 210.346 52.2C210.533 51.56 210.68 51.0933 210.786 50.8L211.226 49.4C212.026 46.8133 212.773 45.0667 213.466 44.16C213.493 44.0533 213.533 43.96 213.586 43.88C213.64 43.7733 213.68 43.6667 213.706 43.56C213.706 43.1333 213.786 42.8 213.946 42.56C214.186 42.16 214.386 41.8 214.546 41.48L214.706 41.04L215.826 38.76C215.906 38.4933 216.066 38.2 216.306 37.88C216.573 37.56 216.84 37.3467 217.106 37.24L217.066 37.2C217.2 36.9867 217.44 36.8 217.786 36.64C218.16 36.48 218.48 36.4 218.746 36.4C219.093 36.4 219.373 36.5067 219.586 36.72C219.8 36.9333 219.906 37.2267 219.906 37.6V38C219.906 38.24 219.88 38.4267 219.826 38.56C219.8 38.6933 219.72 38.8533 219.586 39.04H219.626C219.653 39.0667 219.626 39.16 219.546 39.32C219.493 39.4533 219.44 39.5867 219.386 39.72C219.2 40.2 219.066 40.4667 218.986 40.52C218.8 40.76 218.186 41.8933 217.146 43.92C216.106 45.92 215.44 47.3067 215.146 48.08L214.986 48.68L214.906 48.92C214.613 49.56 214.453 49.9067 214.426 49.96L213.786 52.44L213.626 53.28L213.266 54.2L213.026 54.96C212.973 55.0933 212.92 55.2667 212.866 55.48C212.84 55.6933 212.8 55.8267 212.746 55.88L212.706 56.08C212.68 56.1867 212.586 56.4933 212.426 57C212.186 57.7467 212.013 58.3733 211.906 58.88C211.8 59.36 211.733 59.88 211.706 60.44L211.666 60.6C211.586 61.1867 211.413 61.6267 211.146 61.92C210.906 62.2133 210.586 62.3067 210.186 62.2ZM227.696 44.36C227.376 44.36 226.989 44.2133 226.536 43.92C226.082 43.6267 225.682 43.2533 225.336 42.8C225.016 42.32 224.856 41.84 224.856 41.36C224.856 41.2 225.136 40.7067 225.696 39.88C226.069 39.3733 226.256 39.0667 226.256 38.96C226.442 38.96 226.682 39 226.976 39.08C227.269 39.16 227.522 39.2533 227.736 39.36C227.896 39.7333 228.216 40.2133 228.696 40.8C229.016 41.2 229.242 41.5333 229.376 41.8C229.536 42.0667 229.616 42.3467 229.616 42.64C229.616 43.2267 229.456 43.6667 229.136 43.96C228.842 44.2267 228.362 44.36 227.696 44.36ZM222.256 59.68C222.176 59.68 221.976 59.6133 221.656 59.48C221.362 59.3467 221.162 59.2533 221.056 59.2C221.056 59.12 221.016 58.9867 220.936 58.8C220.882 58.5867 220.856 58.4533 220.856 58.4C220.616 58.2933 220.416 58.12 220.256 57.88C220.122 57.6133 220.096 57.3467 220.176 57.08C220.549 56.44 221.216 54.9733 222.176 52.68C223.162 50.36 223.709 49.0267 223.816 48.68C223.816 48.0933 224.002 47.68 224.376 47.44C224.562 47.3067 224.749 47.24 224.936 47.24C225.389 47.24 225.816 47.5467 226.216 48.16C226.616 48.7733 226.816 49.4933 226.816 50.32C226.816 50.64 226.509 51.56 225.896 53.08C225.309 54.5733 224.642 56.08 223.896 57.6C223.469 58.4533 223.149 59.0133 222.936 59.28C222.749 59.5467 222.522 59.68 222.256 59.68ZM234.747 65.84C234.587 65.9467 234.214 65.8133 233.627 65.44C233.067 65.0933 232.601 64.7067 232.227 64.28C232.067 64.12 231.961 63.96 231.907 63.8C231.854 63.6667 231.827 63.48 231.827 63.24L231.907 62.24C232.041 61.84 232.107 61.3733 232.107 60.84C232.107 60.6267 232.201 59.96 232.387 58.84C232.574 57.6933 232.721 56.8667 232.827 56.36L232.947 55.88C233.161 55 233.321 54.1867 233.427 53.44C233.641 52.7733 233.814 52.12 233.947 51.48C234.107 50.8133 234.187 50.36 234.187 50.12C234.187 49.64 234.374 49.2933 234.747 49.08C234.774 48.8667 234.974 48.4267 235.347 47.76C235.987 45.9467 236.454 44.6533 236.747 43.88C237.067 43.08 237.401 42.3867 237.747 41.8C238.227 40.4667 238.614 39.6267 238.907 39.28C239.094 38.8267 239.601 38.16 240.427 37.28C241.254 36.4 241.987 35.6933 242.627 35.16C243.961 34.4667 245.081 34.12 245.987 34.12C246.761 34.12 247.654 34.6 248.667 35.56C249.041 35.96 249.254 36.2267 249.307 36.36C249.361 36.4933 249.387 36.7467 249.387 37.12C249.281 37.6267 248.814 38.52 247.987 39.8C247.161 41.08 246.641 41.7333 246.427 41.76C246.107 41.8667 245.894 41.92 245.787 41.92C245.547 41.92 245.347 41.84 245.187 41.68C245.027 41.52 244.947 41.28 244.947 40.96C244.947 40.4533 245.107 39.8667 245.427 39.2C245.747 38.7733 245.907 38.4 245.907 38.08C245.907 37.6267 245.547 37.4 244.827 37.4C244.614 37.5067 244.187 37.8933 243.547 38.56C242.934 39.2 242.627 39.6 242.627 39.76C242.601 39.8133 242.521 39.96 242.387 40.2C242.281 40.4133 242.107 40.6667 241.867 40.96C241.387 41.6267 241.147 42.04 241.147 42.2C241.147 42.5467 241.067 42.72 240.907 42.72C240.881 42.7733 240.814 42.9333 240.707 43.2C240.627 43.44 240.507 43.7067 240.347 44C240.241 44.24 240.107 44.5067 239.947 44.8C239.787 45.0933 239.654 45.2933 239.547 45.4H239.587C239.507 45.5867 239.361 45.9467 239.147 46.48C238.934 46.9867 238.827 47.28 238.827 47.36C238.827 47.4667 238.987 47.52 239.307 47.52C239.894 47.52 240.721 47.3733 241.787 47.08C242.134 46.9733 242.387 46.92 242.547 46.92C242.734 46.92 243.001 46.9733 243.347 47.08C243.641 47.2667 243.881 47.68 244.067 48.32C244.254 48.96 244.294 49.36 244.187 49.52C244.161 49.6267 243.867 49.7733 243.307 49.96C242.774 50.1467 242.214 50.2933 241.627 50.4L239.987 50.76C238.467 51.08 237.707 51.2933 237.707 51.4C237.601 51.4 237.507 51.4533 237.427 51.56C237.347 51.6667 237.307 51.7733 237.307 51.88C237.307 52.2533 237.254 52.5333 237.147 52.72C237.014 53.0933 236.787 53.9867 236.467 55.4C236.174 56.8133 236.027 57.68 236.027 58C235.814 58.2667 235.707 58.7467 235.707 59.44C235.547 59.7333 235.467 60.0667 235.467 60.44C235.467 60.6 235.454 60.7333 235.427 60.84C235.427 60.9733 235.401 61.2933 235.347 61.8C235.294 62.3067 235.267 62.7733 235.267 63.2L235.147 64.36C235.121 64.68 235.081 64.9733 235.027 65.24C234.974 65.5067 234.881 65.7067 234.747 65.84ZM253.779 61C252.259 61 251.033 60.5733 250.099 59.72C249.166 58.8667 248.699 57.6533 248.699 56.08C248.699 55.4667 248.739 54.7867 248.819 54.04C248.873 53.4 249.126 52.52 249.579 51.4C250.059 50.28 250.699 49.1867 251.499 48.12C252.326 47.0533 253.286 46.2667 254.379 45.76C254.886 45.52 255.313 45.36 255.659 45.28C256.006 45.1733 256.406 45.12 256.859 45.12C257.953 45.12 258.833 45.32 259.499 45.72C260.193 46.12 260.673 46.5733 260.939 47.08C261.233 47.5867 261.379 48.0267 261.379 48.4V48.6V48.72C261.379 49.04 261.193 49.6267 260.819 50.48C260.446 51.3333 259.846 52.1333 259.019 52.88C258.219 53.6267 257.179 54.04 255.899 54.12C255.259 54.12 254.633 54.0667 254.019 53.96C253.433 53.8267 253.059 53.76 252.899 53.76C252.499 53.76 252.246 53.9067 252.139 54.2C252.033 54.4933 251.979 54.9867 251.979 55.68C252.059 56.4267 252.259 56.9467 252.579 57.24C252.926 57.5333 253.419 57.68 254.059 57.68C254.379 57.68 254.753 57.5867 255.179 57.4C255.606 57.1867 256.113 56.8533 256.699 56.4C257.019 56.1333 257.273 55.9467 257.459 55.84C257.646 55.7333 257.873 55.68 258.139 55.68C258.379 55.68 258.659 55.84 258.979 56.16C259.299 56.48 259.473 56.7867 259.499 57.08C259.446 57.4 259.153 57.88 258.619 58.52C258.086 59.16 257.393 59.7333 256.539 60.24C255.686 60.7467 254.766 61 253.779 61ZM255.179 51.36C255.686 51.36 256.033 51.3067 256.219 51.2C256.486 51.0667 256.886 50.7333 257.419 50.2C257.979 49.64 258.273 49.2533 258.299 49.04C258.299 48.7733 258.179 48.56 257.939 48.4C257.726 48.2133 257.419 48.0933 257.019 48.04H256.579C256.233 48.04 255.726 48.3333 255.059 48.92C254.419 49.48 253.859 50.1333 253.379 50.88C253.406 51.0133 253.606 51.1333 253.979 51.24C254.353 51.32 254.753 51.36 255.179 51.36Z" fill="url(#paint0_linear)"/>
<g filter="url(#filter0_d)">
<rect x="25" y="23" width="56" height="58" rx="15" fill="url(#paint1_linear)"/>
</g>
<g clip-path="url(#clip0)">
<path d="M68.99 41.8218C68.9909 41.8035 68.9907 41.785 68.9896 41.7667C68.9834 41.7472 68.9759 41.7282 68.9674 41.7097C68.9368 41.6185 68.8842 41.5362 68.8143 41.4702C68.7882 41.4486 68.76 41.4296 68.7302 41.4135C68.7038 41.3963 68.6758 41.3817 68.6466 41.3697C68.6102 41.3582 68.5727 41.3507 68.5347 41.3472C68.5121 41.3409 68.489 41.3363 68.4657 41.3332C68.46 41.3332 68.4553 41.3363 68.4497 41.3364C68.4437 41.3365 68.4384 41.3339 68.4323 41.3342L49.7905 42.4981C49.7203 40.8677 48.6669 39.4432 47.1285 38.8985C47.2009 38.5408 47.3534 38.2042 47.5745 37.914C48.1439 37.301 48.9661 36.9877 49.799 37.0666C50.0936 37.0666 50.3323 36.8279 50.3323 36.5333C50.3323 36.2387 50.0936 36 49.7991 36C48.4298 36 47.4007 36.4203 46.7402 37.2489C46.4145 37.6698 46.1895 38.1597 46.0823 38.681C45.9884 38.6744 45.8947 38.6666 45.799 38.6666C43.8247 38.67 42.1478 40.1125 41.8494 42.0642C41.3215 41.594 40.6394 41.3339 39.9324 41.3333C38.6205 41.3369 37.4711 42.2123 37.1187 43.4759C37.0435 43.567 37.0013 43.6808 36.999 43.7989V61.6702C36.9991 65.1603 40.1093 67.9998 43.9325 67.9998C43.9643 67.9965 43.9957 67.9901 44.0264 67.9809C44.1183 68.0083 44.2166 68.0061 44.3072 67.9748L68.6272 60.2467C68.6353 60.2442 68.6407 60.2378 68.6486 60.2349C68.6834 60.2203 68.7166 60.2019 68.7473 60.18C68.8659 60.1175 68.949 60.0037 68.9722 59.8716C68.9834 59.8361 68.9908 59.7995 68.9942 59.7625C68.9946 59.754 68.9991 59.7469 68.9991 59.7384V41.8667C68.999 41.8507 68.9914 41.8373 68.99 41.8218ZM43.1461 41.4102C43.6306 40.3842 44.6645 39.7307 45.7992 39.7333C45.8562 39.7333 45.9119 39.7386 45.9681 39.7419C45.9638 40.1371 46.0011 40.5317 46.0794 40.9192C46.1349 41.1613 46.3502 41.333 46.5986 41.3333C46.6389 41.3334 46.6791 41.3288 46.7184 41.3197C47.0055 41.2538 47.1848 40.9678 47.119 40.6807C47.119 40.6807 47.119 40.6807 47.119 40.6807C47.0772 40.4604 47.0515 40.2374 47.042 40.0135C48.5036 40.7036 49.1289 42.4479 48.4388 43.9095C47.7487 45.371 46.0044 45.9963 44.5428 45.3062C43.0812 44.6161 42.4559 42.8718 43.1461 41.4102ZM43.3991 66.9118C40.4132 66.6691 38.0658 64.4108 38.0658 61.6702V47.2624C39.2739 49.0619 41.2384 50.2101 43.3991 50.3796V66.9118ZM43.8596 49.3297C40.7988 49.292 38.2199 46.9114 38.0795 44.0428C38.0861 43.9956 38.0926 43.9478 38.1036 43.8963C38.2799 43.0261 39.0446 42.4004 39.9326 42.4C40.7353 42.4017 41.4476 42.915 41.7031 43.676C41.7561 43.8309 41.8785 43.9521 42.0339 44.0036C42.7693 46.0836 45.0517 47.1736 47.1316 46.4381C48.4183 45.9831 49.3838 44.9027 49.6916 43.5731L64.31 42.6604L52.3004 46.5755C52.2928 46.578 52.2878 46.5841 52.2804 46.5869C52.2461 46.6016 52.2135 46.6201 52.1831 46.642C52.0643 46.704 51.9815 46.818 51.9593 46.9501C51.9478 46.9861 51.9403 47.0232 51.937 47.0608C51.9366 47.0686 51.9325 47.0751 51.9325 47.0829V49.8667C51.9325 50.1613 51.6938 50.4 51.3992 50.4C51.1046 50.4 50.8659 50.1613 50.8659 49.8667V47.7812C50.8659 47.4866 50.6271 47.2479 50.3326 47.2479C50.038 47.2479 49.7993 47.4867 49.7993 47.7812V61.0665C49.7993 61.3611 49.5605 61.5999 49.266 61.5999C48.9714 61.5999 48.7327 61.3611 48.7327 61.0665V48.4744C48.7193 48.4201 48.7105 48.3646 48.7063 48.3088C48.7039 48.3014 48.698 48.2964 48.6952 48.2891C48.6807 48.2553 48.6625 48.2231 48.6411 48.1932C48.614 48.1346 48.5692 48.086 48.5129 48.0544C48.4657 48.0085 48.405 47.9787 48.3398 47.9695C48.301 47.9567 48.2608 47.9486 48.22 47.9453C48.2128 47.945 48.2067 47.9411 48.1993 47.9411C48.1716 47.9444 48.1442 47.9499 48.1173 47.9577C48.0893 47.9587 48.0614 47.9621 48.034 47.9677L43.8596 49.3297ZM44.4658 58.7317V56.6533L47.6658 55.6091V57.6876L44.4658 58.7317ZM47.6658 58.8091V60.8887L44.4658 61.9315V59.8532L47.6658 58.8091ZM44.4658 55.5318V50.2533L47.6658 49.2092V54.4876L44.4658 55.5318ZM67.9324 59.3482L44.4658 66.8051V63.0538L47.9216 61.9277C48.3957 62.6715 49.3831 62.8903 50.127 62.4162C50.588 62.1223 50.8667 61.6132 50.8658 61.0665V60.9684L67.9324 55.4018V59.3482ZM67.9324 54.2792L50.8658 59.8459V57.7684L67.9324 52.2018V54.2792ZM67.9324 51.0792L50.8658 56.6459V54.5685L67.9324 49.0019V51.0792ZM67.9324 47.8792L50.8658 53.446V51.3683C51.0366 51.4315 51.217 51.4648 51.3991 51.4666C52.2823 51.4657 52.9981 50.7499 52.9991 49.8666V47.4701L67.9323 42.6016V47.8792H67.9324Z" fill="#FAF0F1"/>
</g>
<defs>
<filter id="filter0_d" x="0" y="-2" width="106" height="108" filterUnits="userSpaceOnUse" color-interpolation-filters="sRGB">
<feFlood flood-opacity="0" result="BackgroundImageFix"/>
<feColorMatrix in="SourceAlpha" type="matrix" values="0 0 0 0 0 0 0 0 0 0 0 0 0 0 0 0 0 0 127 0"/>
<feOffset/>
<feGaussianBlur stdDeviation="12.5"/>
<feColorMatrix type="matrix" values="0 0 0 0 0.937255 0 0 0 0 0.227451 0 0 0 0 0.298039 0 0 0 0.56 0"/>
<feBlend mode="normal" in2="BackgroundImageFix" result="effect1_dropShadow"/>
<feBlend mode="normal" in="SourceGraphic" in2="effect1_dropShadow" result="shape"/>
</filter>
<linearGradient id="paint0_linear" x1="92.7342" y1="23.0168" x2="262.231" y2="56.745" gradientUnits="userSpaceOnUse">
<stop stop-color="#8E0821" stop-opacity="0.9"/>
<stop offset="1" stop-color="#EA6585"/>
</linearGradient>
<linearGradient id="paint1_linear" x1="25" y1="23.0195" x2="82.9253" y2="78.9474" gradientUnits="userSpaceOnUse">
<stop stop-color="#8E0821"/>
<stop offset="1" stop-color="#EA6585"/>
</linearGradient>
<clipPath id="clip0">
<rect width="32" height="32" fill="white" transform="translate(37 36)"/>
</clipPath>
</defs>
</svg>
