<svg width="30" height="30" viewBox="0 0 30 30" fill="none" xmlns="http://www.w3.org/2000/svg">
<g clip-path="url(#clip0)">
<path d="M29.375 5.625H0.62502C0.28002 5.625 0 5.90502 0 6.25002C0 6.59502 0.28002 6.87504 0.62502 6.87504H29.375C29.72 6.87504 30.0001 6.59502 30.0001 6.25002C30.0001 5.90502 29.72 5.625 29.375 5.625Z" fill="#8E0821"/>
<path d="M29.375 14.3749H0.62502C0.28002 14.3749 0 14.655 0 15C0 15.345 0.28002 15.625 0.62502 15.625H29.375C29.72 15.625 30.0001 15.345 30.0001 15C30.0001 14.655 29.72 14.3749 29.375 14.3749Z" fill="#8E0821"/>
<path d="M29.375 23.125H0.62502C0.28002 23.125 0 23.405 0 23.75C0 24.095 0.28002 24.375 0.62502 24.375H29.375C29.72 24.375 30.0001 24.095 30.0001 23.75C30 23.405 29.72 23.125 29.375 23.125Z" fill="#8E0821"/>
</g>
<defs>
<clipPath id="clip0">
<rect width="30" height="30" fill="white"/>
</clipPath>
</defs>
</svg>
