<svg width="30" height="30" viewBox="0 0 30 30" fill="none" xmlns="http://www.w3.org/2000/svg">
<g clip-path="url(#clip0)">
<path d="M23.7088 18.584C23.0946 17.9445 22.3538 17.6026 21.5687 17.6026C20.7899 17.6026 20.0428 17.9382 19.4033 18.5777L17.4024 20.5722C17.2378 20.4835 17.0732 20.4012 16.9149 20.3189C16.687 20.2049 16.4717 20.0973 16.2881 19.9833C14.4139 18.793 12.7106 17.2417 11.0771 15.2345C10.2856 14.2341 9.75374 13.392 9.3675 12.5372C9.8867 12.0624 10.3679 11.5685 10.8365 11.0936C11.0137 10.9163 11.191 10.7327 11.3683 10.5554C12.698 9.22576 12.698 7.50354 11.3683 6.17388L9.63977 4.44532C9.44348 4.24904 9.24087 4.04642 9.05092 3.84381C8.67101 3.45124 8.27212 3.04601 7.86056 2.66611C7.24638 2.05827 6.5119 1.73535 5.73944 1.73535C4.96697 1.73535 4.21983 2.05827 3.58666 2.66611C3.58032 2.67244 3.58032 2.67244 3.57399 2.67878L1.42121 4.85055C0.610755 5.66101 0.14854 6.64876 0.0472332 7.79479C-0.104728 9.64365 0.439799 11.3659 0.857691 12.4929C1.88343 15.2599 3.4157 17.8242 5.70145 20.5722C8.47473 23.8837 11.8115 26.4987 15.6232 28.3412C17.0795 29.0313 19.0234 29.8481 21.1951 29.9874C21.3281 29.9938 21.4674 30.0001 21.594 30.0001C23.0566 30.0001 24.285 29.4746 25.2474 28.4298C25.2537 28.4172 25.2664 28.4108 25.2727 28.3982C25.602 27.9993 25.9819 27.6384 26.3808 27.2521C26.6531 26.9925 26.9317 26.7203 27.2039 26.4353C27.8308 25.7832 28.16 25.0234 28.16 24.2446C28.16 23.4594 27.8244 22.706 27.1849 22.0728L23.7088 18.584ZM25.9756 25.2513C25.9692 25.2513 25.9692 25.2576 25.9756 25.2513C25.7286 25.5172 25.4754 25.7578 25.2031 26.0238C24.7915 26.4163 24.3736 26.8279 23.9811 27.2901C23.3416 27.9739 22.5881 28.2969 21.6004 28.2969C21.5054 28.2969 21.4041 28.2969 21.3091 28.2905C19.4286 28.1702 17.681 27.4357 16.3704 26.8089C12.7866 25.074 9.63977 22.611 7.02477 19.4895C4.86566 16.8871 3.42203 14.4811 2.46594 11.8977C1.8771 10.3211 1.66182 9.09279 1.75679 7.93409C1.82011 7.19328 2.10504 6.57911 2.63057 6.05358L4.78968 3.89446C5.09993 3.6032 5.42918 3.44491 5.7521 3.44491C6.151 3.44491 6.47391 3.68552 6.67653 3.88813C6.68286 3.89446 6.68919 3.9008 6.69552 3.90713C7.08176 4.26803 7.449 4.6416 7.83523 5.0405C8.03151 5.24312 8.23413 5.44573 8.43674 5.65468L10.1653 7.38323C10.8365 8.05439 10.8365 8.6749 10.1653 9.34606C9.98168 9.52968 9.80439 9.7133 9.62077 9.89059C9.08891 10.4351 8.58237 10.9417 8.03151 11.4355C8.01885 11.4482 8.00619 11.4545 7.99985 11.4672C7.45533 12.0117 7.55663 12.5436 7.67061 12.9045C7.67694 12.9235 7.68327 12.9425 7.6896 12.9615C8.13915 14.0505 8.77232 15.0763 9.73474 16.2983L9.74107 16.3046C11.4886 18.4574 13.3312 20.1353 15.3636 21.4206C15.6232 21.5852 15.8892 21.7182 16.1424 21.8449C16.3704 21.9588 16.5856 22.0665 16.7693 22.1804C16.7946 22.1931 16.8199 22.2121 16.8452 22.2248C17.0605 22.3324 17.2631 22.383 17.4721 22.383C17.9976 22.383 18.3269 22.0538 18.4345 21.9462L20.5999 19.7807C20.8152 19.5654 21.1571 19.3058 21.556 19.3058C21.9486 19.3058 22.2715 19.5528 22.4678 19.768C22.4741 19.7744 22.4741 19.7744 22.4805 19.7807L25.9692 23.2695C26.6214 23.9153 26.6214 24.5801 25.9756 25.2513Z" fill="#BA2D4A"/>
<path d="M16.2127 7.13611C17.8717 7.4147 19.3786 8.19983 20.5816 9.40286C21.7847 10.6059 22.5635 12.1128 22.8484 13.7717C22.918 14.1896 23.2789 14.4809 23.6905 14.4809C23.7412 14.4809 23.7855 14.4746 23.8361 14.4682C24.3047 14.3922 24.6149 13.949 24.539 13.4805C24.197 11.4733 23.2473 9.64346 21.7973 8.1935C20.3474 6.74354 18.5175 5.79379 16.5103 5.45187C16.0418 5.37589 15.6049 5.68615 15.5226 6.14836C15.4403 6.61058 15.7442 7.06013 16.2127 7.13611Z" fill="#BA2D4A"/>
<path d="M29.9652 13.2336C29.4016 9.92848 27.844 6.92092 25.4507 4.52754C23.0573 2.13415 20.0497 0.576553 16.7446 0.0130316C16.2823 -0.0692806 15.8455 0.247305 15.7631 0.709519C15.6872 1.17807 15.9974 1.61495 16.466 1.69727C19.4165 2.19747 22.1075 3.59678 24.2476 5.73056C26.3878 7.87068 27.7807 10.5617 28.2809 13.5122C28.3506 13.9301 28.7115 14.2214 29.1231 14.2214C29.1737 14.2214 29.218 14.215 29.2687 14.2087C29.7309 14.1391 30.0475 13.6958 29.9652 13.2336Z" fill="#BA2D4A"/>
</g>
<defs>
<clipPath id="clip0">
<rect width="30" height="30" fill="white"/>
</clipPath>
</defs>
</svg>
