<svg width="30" height="30" viewBox="0 0 30 30" fill="none" xmlns="http://www.w3.org/2000/svg">
<g clip-path="url(#clip0)">
<path d="M9.56993 23.3345C7.84017 23.3345 6.43799 24.7367 6.43799 26.4664C6.43799 28.1962 7.84024 29.5984 9.56993 29.5984C11.2997 29.5984 12.7019 28.1961 12.7019 26.4664C12.7019 24.7367 11.2997 23.3345 9.56993 23.3345ZM9.56993 28.2064C8.60897 28.2064 7.82998 27.4274 7.82998 26.4665C7.82998 25.5055 8.60897 24.7265 9.56993 24.7265C10.5309 24.7265 11.3099 25.5055 11.3099 26.4665C11.31 27.4274 10.5309 28.2064 9.56993 28.2064Z" fill="#8E0821"/>
<path d="M22.7938 23.3345C21.064 23.3345 19.6619 24.7367 19.6619 26.4664C19.6619 28.1962 21.0641 29.5984 22.7938 29.5984C24.5235 29.5984 25.9258 28.1961 25.9258 26.4664C25.9258 24.7367 24.5236 23.3345 22.7938 23.3345ZM22.7938 28.2064C21.8328 28.2064 21.0539 27.4274 21.0539 26.4665C21.0539 25.5055 21.8328 24.7265 22.7938 24.7265C23.7548 24.7265 24.5338 25.5055 24.5338 26.4665C24.5338 27.4274 23.7548 28.2064 22.7938 28.2064Z" fill="#8E0821"/>
<path d="M29.8581 5.0647C29.7132 4.90637 29.5149 4.80726 29.3014 4.78628L6.64676 4.47308L6.02037 2.55908C5.57909 1.27959 4.38093 0.41581 3.02757 0.401489H0.695996C0.311596 0.401489 0 0.713085 0 1.09748C0 1.48188 0.311596 1.79348 0.695996 1.79348H3.02757C3.78431 1.8102 4.45067 2.29611 4.69799 3.01149L9.11755 16.3398L8.76959 17.1401C8.38146 18.141 8.49802 19.2675 9.08278 20.1677C9.66195 21.0519 10.6363 21.5975 11.6928 21.6293H25.2299C25.6143 21.6293 25.9259 21.3177 25.9259 20.9333C25.9259 20.5489 25.6143 20.2373 25.2299 20.2373H11.6927C11.0961 20.2224 10.5469 19.9085 10.2311 19.4021C9.91886 18.9019 9.85471 18.2856 10.0571 17.7317L10.3356 17.1053L24.9862 15.5741C26.5955 15.3969 27.9193 14.2264 28.2922 12.6509L29.9627 5.65619C30.0379 5.45476 29.998 5.22823 29.8581 5.0647ZM26.935 12.3378C26.7091 13.352 25.848 14.1001 24.8123 14.1822L10.3356 15.6785L7.09917 5.86508L28.4314 6.17827L26.935 12.3378Z" fill="#8E0821"/>
</g>
<defs>
<clipPath id="clip0">
<rect width="30" height="30" fill="white"/>
</clipPath>
</defs>
</svg>
