<svg width="33" height="33" viewBox="0 0 33 33" fill="none" xmlns="http://www.w3.org/2000/svg">
<g clip-path="url(#clip0)">
<path d="M10.5269 25.668C8.62413 25.668 7.08173 27.2104 7.08173 29.1131C7.08173 31.0158 8.6242 32.5582 10.5269 32.5582C12.4296 32.5582 13.972 31.0158 13.972 29.1131C13.9721 27.2104 12.4296 25.668 10.5269 25.668ZM10.5269 31.0271C9.4698 31.0271 8.61292 30.1702 8.61292 29.1132C8.61292 28.0561 9.4698 27.1992 10.5269 27.1992C11.5839 27.1992 12.4408 28.0561 12.4408 29.1132C12.4409 30.1702 11.5839 31.0271 10.5269 31.0271Z" fill="#BA2D4A"/>
<path d="M25.0732 25.668C23.1705 25.668 21.6281 27.2104 21.6281 29.1131C21.6281 31.0158 23.1705 32.5582 25.0732 32.5582C26.9759 32.5582 28.5183 31.0158 28.5183 29.1131C28.5183 27.2104 26.9759 25.668 25.0732 25.668ZM25.0732 31.0271C24.0161 31.0271 23.1593 30.1702 23.1593 29.1132C23.1593 28.0561 24.0161 27.1992 25.0732 27.1992C26.1303 27.1992 26.9872 28.0561 26.9872 29.1132C26.9872 30.1702 26.1303 31.0271 25.0732 31.0271Z" fill="#BA2D4A"/>
<path d="M32.844 5.57119C32.6845 5.39702 32.4664 5.288 32.2315 5.26492L7.31144 4.9204L6.62241 2.815C6.137 1.40756 4.81902 0.457403 3.33033 0.44165H0.765595C0.342756 0.44165 0 0.784406 0 1.20725C0 1.63008 0.342756 1.97284 0.765595 1.97284H3.33033C4.16275 1.99123 4.89574 2.52573 5.16779 3.31265L10.0293 17.9738L9.64655 18.8542C9.2196 19.9551 9.34783 21.1943 9.99106 22.1845C10.6281 23.1571 11.6999 23.7573 12.8621 23.7923H27.7529C28.1757 23.7923 28.5185 23.4495 28.5185 23.0267C28.5185 22.6038 28.1757 22.2611 27.7529 22.2611H12.862C12.2057 22.2447 11.6016 21.8994 11.2542 21.3423C10.9107 20.7921 10.8402 20.1142 11.0629 19.5049L11.3691 18.8159L27.4849 17.1315C29.2551 16.9366 30.7112 15.6491 31.1215 13.916L32.9589 6.22182C33.0417 6.00025 32.9978 5.75106 32.844 5.57119ZM29.6285 13.5716C29.38 14.6872 28.4328 15.5101 27.2935 15.6004L11.3691 17.2464L7.80909 6.45159L31.2745 6.79611L29.6285 13.5716Z" fill="#BA2D4A"/>
</g>
<defs>
<clipPath id="clip0">
<rect width="33" height="33" fill="white"/>
</clipPath>
</defs>
</svg>
