<svg width="139" height="44" viewBox="0 0 139 44" fill="none" xmlns="http://www.w3.org/2000/svg">
<path d="M2.92 39.66H1.72V42H1.01V36.74H1.72V39.05H2.93L4.78 36.74H5.55L3.48 39.29L5.7 42H4.86L2.92 39.66ZM8.805 42.05C8.29833 42.05 7.84167 41.9367 7.435 41.71C7.02833 41.4767 6.70833 41.1567 6.475 40.75C6.24167 40.3433 6.125 39.8833 6.125 39.37C6.125 38.8567 6.24167 38.3967 6.475 37.99C6.70833 37.5833 7.02833 37.2667 7.435 37.04C7.84167 36.8133 8.29833 36.7 8.805 36.7C9.31167 36.7 9.76833 36.8133 10.175 37.04C10.5817 37.2667 10.8983 37.5833 11.125 37.99C11.3583 38.3967 11.475 38.8567 11.475 39.37C11.475 39.8833 11.3583 40.3433 11.125 40.75C10.8983 41.1567 10.5817 41.4767 10.175 41.71C9.76833 41.9367 9.31167 42.05 8.805 42.05ZM8.805 41.42C9.17833 41.42 9.51167 41.3367 9.805 41.17C10.105 40.9967 10.3383 40.7533 10.505 40.44C10.6717 40.1267 10.755 39.77 10.755 39.37C10.755 38.97 10.6717 38.6133 10.505 38.3C10.3383 37.9867 10.105 37.7467 9.805 37.58C9.51167 37.4067 9.17833 37.32 8.805 37.32C8.43167 37.32 8.095 37.4067 7.795 37.58C7.50167 37.7467 7.26833 37.9867 7.095 38.3C6.92833 38.6133 6.845 38.97 6.845 39.37C6.845 39.77 6.92833 40.1267 7.095 40.44C7.26833 40.7533 7.50167 40.9967 7.795 41.17C8.095 41.3367 8.43167 41.42 8.805 41.42ZM12.9924 36.74H13.7024V39.07H17.0124V36.74H17.7224V42H17.0124V39.68H13.7024V42H12.9924V36.74ZM24.8705 41.38V43.27H24.2005V42H19.4905V43.27H18.8205V41.38H19.1205C19.4738 41.36 19.7138 41.1 19.8405 40.6C19.9671 40.1 20.0538 39.4 20.1005 38.5L20.1705 36.74H24.0505V41.38H24.8705ZM20.7505 38.54C20.7171 39.2867 20.6538 39.9033 20.5605 40.39C20.4671 40.87 20.3005 41.2 20.0605 41.38H23.3405V37.37H20.8105L20.7505 38.54ZM26.2541 36.74H26.9641V40.92L30.4741 36.74H31.1041V42H30.3941V37.82L26.8941 42H26.2541V36.74ZM36.8389 37.37H34.8489V42H34.1389V37.37H32.1489V36.74H36.8389V37.37ZM42.2213 39.59H37.8213C37.8613 40.1367 38.0713 40.58 38.4513 40.92C38.8313 41.2533 39.3113 41.42 39.8913 41.42C40.218 41.42 40.518 41.3633 40.7913 41.25C41.0647 41.13 41.3013 40.9567 41.5013 40.73L41.9013 41.19C41.668 41.47 41.3747 41.6833 41.0213 41.83C40.6747 41.9767 40.2913 42.05 39.8713 42.05C39.3313 42.05 38.8513 41.9367 38.4313 41.71C38.018 41.4767 37.6947 41.1567 37.4613 40.75C37.228 40.3433 37.1113 39.8833 37.1113 39.37C37.1113 38.8567 37.2213 38.3967 37.4413 37.99C37.668 37.5833 37.9747 37.2667 38.3613 37.04C38.7547 36.8133 39.1947 36.7 39.6813 36.7C40.168 36.7 40.6047 36.8133 40.9913 37.04C41.378 37.2667 41.6813 37.5833 41.9013 37.99C42.1213 38.39 42.2313 38.85 42.2313 39.37L42.2213 39.59ZM39.6813 37.31C39.1747 37.31 38.748 37.4733 38.4013 37.8C38.0613 38.12 37.868 38.54 37.8213 39.06H41.5513C41.5047 38.54 41.308 38.12 40.9613 37.8C40.6213 37.4733 40.1947 37.31 39.6813 37.31ZM46.513 36.7C47.0063 36.7 47.453 36.8133 47.853 37.04C48.253 37.26 48.5663 37.5733 48.793 37.98C49.0196 38.3867 49.133 38.85 49.133 39.37C49.133 39.8967 49.0196 40.3633 48.793 40.77C48.5663 41.1767 48.253 41.4933 47.853 41.72C47.4596 41.94 47.013 42.05 46.513 42.05C46.0863 42.05 45.6996 41.9633 45.353 41.79C45.013 41.61 44.733 41.35 44.513 41.01V43.94H43.803V36.74H44.483V37.78C44.6963 37.4333 44.9763 37.1667 45.323 36.98C45.6763 36.7933 46.073 36.7 46.513 36.7ZM46.463 41.42C46.8296 41.42 47.163 41.3367 47.463 41.17C47.763 40.9967 47.9963 40.7533 48.163 40.44C48.3363 40.1267 48.423 39.77 48.423 39.37C48.423 38.97 48.3363 38.6167 48.163 38.31C47.9963 37.9967 47.763 37.7533 47.463 37.58C47.163 37.4067 46.8296 37.32 46.463 37.32C46.0896 37.32 45.753 37.4067 45.453 37.58C45.1596 37.7533 44.9263 37.9967 44.753 38.31C44.5863 38.6167 44.503 38.97 44.503 39.37C44.503 39.77 44.5863 40.1267 44.753 40.44C44.9263 40.7533 45.1596 40.9967 45.453 41.17C45.753 41.3367 46.0896 41.42 46.463 41.42ZM52.8584 42.05C52.3384 42.05 51.8718 41.9367 51.4584 41.71C51.0518 41.4833 50.7318 41.1667 50.4984 40.76C50.2651 40.3467 50.1484 39.8833 50.1484 39.37C50.1484 38.8567 50.2651 38.3967 50.4984 37.99C50.7318 37.5833 51.0518 37.2667 51.4584 37.04C51.8718 36.8133 52.3384 36.7 52.8584 36.7C53.3118 36.7 53.7151 36.79 54.0684 36.97C54.4284 37.1433 54.7118 37.4 54.9184 37.74L54.3884 38.1C54.2151 37.84 53.9951 37.6467 53.7284 37.52C53.4618 37.3867 53.1718 37.32 52.8584 37.32C52.4784 37.32 52.1351 37.4067 51.8284 37.58C51.5284 37.7467 51.2918 37.9867 51.1184 38.3C50.9518 38.6133 50.8684 38.97 50.8684 39.37C50.8684 39.7767 50.9518 40.1367 51.1184 40.45C51.2918 40.7567 51.5284 40.9967 51.8284 41.17C52.1351 41.3367 52.4784 41.42 52.8584 41.42C53.1718 41.42 53.4618 41.3567 53.7284 41.23C53.9951 41.1033 54.2151 40.91 54.3884 40.65L54.9184 41.01C54.7118 41.35 54.4284 41.61 54.0684 41.79C53.7084 41.9633 53.3051 42.05 52.8584 42.05ZM58.5532 38.6C59.2132 38.6067 59.7132 38.7533 60.0532 39.04C60.3999 39.3267 60.5732 39.74 60.5732 40.28C60.5732 40.84 60.3865 41.27 60.0132 41.57C59.6465 41.87 59.1132 42.0167 58.4132 42.01L56.2932 42V36.74H57.0032V38.58L58.5532 38.6ZM58.3732 41.47C58.8599 41.4767 59.2265 41.38 59.4732 41.18C59.7265 40.9733 59.8532 40.6733 59.8532 40.28C59.8532 39.8933 59.7299 39.6067 59.4832 39.42C59.2365 39.2333 58.8665 39.1367 58.3732 39.13L57.0032 39.11V41.45L58.3732 41.47ZM63.838 39.66H62.638V42H61.928V36.74H62.638V39.05H63.848L65.698 36.74H66.468L64.398 39.29L66.618 42H65.778L63.838 39.66ZM69.4509 36.7C70.1375 36.7 70.6642 36.8733 71.0309 37.22C71.3975 37.56 71.5809 38.0667 71.5809 38.74V42H70.9009V41.18C70.7409 41.4533 70.5042 41.6667 70.1909 41.82C69.8842 41.9733 69.5175 42.05 69.0909 42.05C68.5042 42.05 68.0375 41.91 67.6909 41.63C67.3442 41.35 67.1709 40.98 67.1709 40.52C67.1709 40.0733 67.3309 39.7133 67.6509 39.44C67.9775 39.1667 68.4942 39.03 69.2009 39.03H70.8709V38.71C70.8709 38.2567 70.7442 37.9133 70.4909 37.68C70.2375 37.44 69.8675 37.32 69.3809 37.32C69.0475 37.32 68.7275 37.3767 68.4209 37.49C68.1142 37.5967 67.8509 37.7467 67.6309 37.94L67.3109 37.41C67.5775 37.1833 67.8975 37.01 68.2709 36.89C68.6442 36.7633 69.0375 36.7 69.4509 36.7ZM69.2009 41.49C69.6009 41.49 69.9442 41.4 70.2309 41.22C70.5175 41.0333 70.7309 40.7667 70.8709 40.42V39.56H69.2209C68.3209 39.56 67.8709 39.8733 67.8709 40.5C67.8709 40.8067 67.9875 41.05 68.2209 41.23C68.4542 41.4033 68.7809 41.49 69.2009 41.49ZM81.9681 36.74V42H81.3181V37.84L79.1881 41.36H78.8681L76.7381 37.83V42H76.0881V36.74H76.8081L79.0381 40.53L81.3081 36.74H81.9681ZM85.7985 36.7C86.4852 36.7 87.0118 36.8733 87.3785 37.22C87.7452 37.56 87.9285 38.0667 87.9285 38.74V42H87.2485V41.18C87.0885 41.4533 86.8518 41.6667 86.5385 41.82C86.2318 41.9733 85.8652 42.05 85.4385 42.05C84.8518 42.05 84.3852 41.91 84.0385 41.63C83.6918 41.35 83.5185 40.98 83.5185 40.52C83.5185 40.0733 83.6785 39.7133 83.9985 39.44C84.3252 39.1667 84.8418 39.03 85.5485 39.03H87.2185V38.71C87.2185 38.2567 87.0918 37.9133 86.8385 37.68C86.5852 37.44 86.2152 37.32 85.7285 37.32C85.3952 37.32 85.0752 37.3767 84.7685 37.49C84.4618 37.5967 84.1985 37.7467 83.9785 37.94L83.6585 37.41C83.9252 37.1833 84.2452 37.01 84.6185 36.89C84.9918 36.7633 85.3852 36.7 85.7985 36.7ZM85.5485 41.49C85.9485 41.49 86.2918 41.4 86.5785 41.22C86.8652 41.0333 87.0785 40.7667 87.2185 40.42V39.56H85.5685C84.6685 39.56 84.2185 39.8733 84.2185 40.5C84.2185 40.8067 84.3352 41.05 84.5685 41.23C84.8018 41.4033 85.1285 41.49 85.5485 41.49ZM89.8186 36.74H90.5286V40.92L94.0386 36.74H94.6686V42H93.9586V37.82L90.4586 42H89.8186V36.74ZM92.2086 35.98C91.7553 35.98 91.3953 35.8667 91.1286 35.64C90.8619 35.4133 90.7253 35.0933 90.7186 34.68H91.2286C91.2353 34.94 91.3286 35.15 91.5086 35.31C91.6886 35.4633 91.9219 35.54 92.2086 35.54C92.4953 35.54 92.7286 35.4633 92.9086 35.31C93.0953 35.15 93.1919 34.94 93.1986 34.68H93.7086C93.7019 35.0933 93.5619 35.4133 93.2886 35.64C93.0219 35.8667 92.6619 35.98 92.2086 35.98ZM98.9034 42.05C98.3834 42.05 97.9167 41.9367 97.5034 41.71C97.0967 41.4833 96.7767 41.1667 96.5434 40.76C96.31 40.3467 96.1934 39.8833 96.1934 39.37C96.1934 38.8567 96.31 38.3967 96.5434 37.99C96.7767 37.5833 97.0967 37.2667 97.5034 37.04C97.9167 36.8133 98.3834 36.7 98.9034 36.7C99.3567 36.7 99.76 36.79 100.113 36.97C100.473 37.1433 100.757 37.4 100.963 37.74L100.433 38.1C100.26 37.84 100.04 37.6467 99.7734 37.52C99.5067 37.3867 99.2167 37.32 98.9034 37.32C98.5234 37.32 98.18 37.4067 97.8734 37.58C97.5734 37.7467 97.3367 37.9867 97.1634 38.3C96.9967 38.6133 96.9134 38.97 96.9134 39.37C96.9134 39.7767 96.9967 40.1367 97.1634 40.45C97.3367 40.7567 97.5734 40.9967 97.8734 41.17C98.18 41.3367 98.5234 41.42 98.9034 41.42C99.2167 41.42 99.5067 41.3567 99.7734 41.23C100.04 41.1033 100.26 40.91 100.433 40.65L100.963 41.01C100.757 41.35 100.473 41.61 100.113 41.79C99.7534 41.9633 99.35 42.05 98.9034 42.05ZM105.94 37.37H103.95V42H103.24V37.37H101.25V36.74H105.94V37.37ZM111.323 39.59H106.923C106.963 40.1367 107.173 40.58 107.553 40.92C107.933 41.2533 108.413 41.42 108.993 41.42C109.32 41.42 109.62 41.3633 109.893 41.25C110.166 41.13 110.403 40.9567 110.603 40.73L111.003 41.19C110.77 41.47 110.476 41.6833 110.123 41.83C109.776 41.9767 109.393 42.05 108.973 42.05C108.433 42.05 107.953 41.9367 107.533 41.71C107.12 41.4767 106.796 41.1567 106.563 40.75C106.33 40.3433 106.213 39.8833 106.213 39.37C106.213 38.8567 106.323 38.3967 106.543 37.99C106.77 37.5833 107.076 37.2667 107.463 37.04C107.856 36.8133 108.296 36.7 108.783 36.7C109.27 36.7 109.706 36.8133 110.093 37.04C110.48 37.2667 110.783 37.5833 111.003 37.99C111.223 38.39 111.333 38.85 111.333 39.37L111.323 39.59ZM108.783 37.31C108.276 37.31 107.85 37.4733 107.503 37.8C107.163 38.12 106.97 38.54 106.923 39.06H110.653C110.606 38.54 110.41 38.12 110.063 37.8C109.723 37.4733 109.296 37.31 108.783 37.31ZM115.615 36.7C116.108 36.7 116.555 36.8133 116.955 37.04C117.355 37.26 117.668 37.5733 117.895 37.98C118.121 38.3867 118.235 38.85 118.235 39.37C118.235 39.8967 118.121 40.3633 117.895 40.77C117.668 41.1767 117.355 41.4933 116.955 41.72C116.561 41.94 116.115 42.05 115.615 42.05C115.188 42.05 114.801 41.9633 114.455 41.79C114.115 41.61 113.835 41.35 113.615 41.01V43.94H112.905V36.74H113.585V37.78C113.798 37.4333 114.078 37.1667 114.425 36.98C114.778 36.7933 115.175 36.7 115.615 36.7ZM115.565 41.42C115.931 41.42 116.265 41.3367 116.565 41.17C116.865 40.9967 117.098 40.7533 117.265 40.44C117.438 40.1267 117.525 39.77 117.525 39.37C117.525 38.97 117.438 38.6167 117.265 38.31C117.098 37.9967 116.865 37.7533 116.565 37.58C116.265 37.4067 115.931 37.32 115.565 37.32C115.191 37.32 114.855 37.4067 114.555 37.58C114.261 37.7533 114.028 37.9967 113.855 38.31C113.688 38.6167 113.605 38.97 113.605 39.37C113.605 39.77 113.688 40.1267 113.855 40.44C114.028 40.7533 114.261 40.9967 114.555 41.17C114.855 41.3367 115.191 41.42 115.565 41.42ZM119.76 36.74H120.47V39.07H123.78V36.74H124.49V42H123.78V39.68H120.47V42H119.76V36.74ZM130.548 36.74V42H129.898V40.26H128.248H128.048L126.828 42H126.058L127.368 40.16C126.961 40.0467 126.648 39.8533 126.428 39.58C126.208 39.3067 126.098 38.96 126.098 38.54C126.098 37.9533 126.298 37.5067 126.698 37.2C127.098 36.8933 127.645 36.74 128.338 36.74H130.548ZM126.818 38.56C126.818 39.34 127.315 39.73 128.308 39.73H129.898V37.37H128.358C127.331 37.37 126.818 37.7667 126.818 38.56Z" fill="#8E0821"/>
<path d="M35.2327 24.06L35.2527 24C35.2527 23.8667 35.1393 23.7933 34.9127 23.78C34.6327 23.6067 34.3327 23.3133 34.0127 22.9C33.6927 22.4733 33.4927 22.1467 33.4127 21.92C33.3727 21.8133 33.3527 21.74 33.3527 21.7C33.3527 21.6333 33.3793 21.5867 33.4327 21.56C33.486 21.52 33.5527 21.4867 33.6327 21.46C33.7127 21.42 33.7727 21.3933 33.8127 21.38C34.0527 21.22 34.2327 21.14 34.3527 21.14C34.486 21.14 34.5993 21.2267 34.6927 21.4C34.8793 21.7333 35.1793 22.0133 35.5927 22.24C36.006 22.4533 36.466 22.56 36.9727 22.56C37.426 22.56 37.8327 22.48 38.1927 22.32C38.5393 22.16 38.7127 21.9267 38.7127 21.62C38.7127 21.3933 38.6127 21.12 38.4127 20.8C38.386 20.72 38.3393 20.6467 38.2727 20.58C38.206 20.5133 38.126 20.4467 38.0327 20.38C37.8193 20.22 37.586 20.0133 37.3327 19.76C37.1193 19.68 36.8993 19.5733 36.6727 19.44L36.2527 19.24C35.9193 19.08 35.546 18.8267 35.1327 18.48C34.7193 18.12 34.4327 17.7867 34.2727 17.48C33.9793 17.2 33.8327 16.7733 33.8327 16.2C33.8327 15.5733 33.9793 14.9867 34.2727 14.44C34.4327 14.08 34.8193 13.5267 35.4327 12.78C36.046 12.0333 36.4993 11.5667 36.7927 11.38L37.3127 10.88C37.326 10.8267 37.346 10.8 37.3727 10.8C37.3993 10.7867 37.4193 10.78 37.4327 10.78C37.4727 10.7533 37.6127 10.6933 37.8527 10.6C38.0927 10.4933 38.346 10.3133 38.6127 10.06C39.426 9.66 40.146 9.38 40.7727 9.22C41.4127 9.04667 41.946 8.96 42.3727 8.96C42.8927 8.98667 43.3727 9.17333 43.8127 9.52C44.266 9.86667 44.526 10.2667 44.5927 10.72C44.6193 10.8533 44.6327 10.96 44.6327 11.04C44.6327 11.5333 44.4327 12.0867 44.0327 12.7C43.6327 13.3133 43.206 13.7467 42.7527 14C42.5527 14.0933 42.3593 14.14 42.1727 14.14C41.946 14.14 41.7593 14.08 41.6127 13.96C41.4793 13.84 41.4193 13.6867 41.4327 13.5C41.4327 13.38 41.4727 13.2467 41.5527 13.1C41.646 12.94 41.846 12.6867 42.1527 12.34C42.606 11.6733 42.8327 11.1933 42.8327 10.9C42.8327 10.7 42.7127 10.58 42.4727 10.54C42.326 10.5 41.926 10.56 41.2727 10.72C40.6327 10.8667 40.3127 10.9733 40.3127 11.04C40.3127 11.0533 40.306 11.08 40.2927 11.12C40.2927 11.1467 40.2727 11.1533 40.2327 11.14C40.1793 11.1267 39.7993 11.3467 39.0927 11.8C38.3993 12.2533 38.0393 12.5133 38.0127 12.58C37.9993 12.6467 37.946 12.72 37.8527 12.8C37.7727 12.8667 37.6727 12.9267 37.5527 12.98C37.3127 13.1267 37.0927 13.3267 36.8927 13.58C36.706 13.8333 36.4593 14.2333 36.1527 14.78C35.9927 15.0067 35.8593 15.2533 35.7527 15.52C35.6593 15.7867 35.6127 16.0267 35.6127 16.24C35.6127 16.3867 35.6327 16.5133 35.6727 16.62C35.726 16.82 35.866 17.0067 36.0927 17.18C36.3327 17.34 36.786 17.62 37.4527 18.02C38.1327 18.4067 38.746 18.82 39.2927 19.26C39.8393 19.6867 40.1727 20.0267 40.2927 20.28C40.506 20.5867 40.6127 20.9867 40.6127 21.48C40.6127 21.8667 40.5593 22.2333 40.4527 22.58C40.3327 22.8333 40.1793 23.0667 39.9927 23.28C39.806 23.5067 39.6393 23.6133 39.4927 23.6C39.3593 23.64 39.246 23.6867 39.1527 23.74C39.0593 23.8067 38.9793 23.8533 38.9127 23.88C38.7527 23.9733 38.3393 24.0667 37.6727 24.16C37.0193 24.2667 36.4727 24.3133 36.0327 24.3L35.2327 24.06ZM47.0096 22.4C46.8096 22.4 46.6096 22.2533 46.4096 21.96C46.2096 21.6533 46.0496 21.28 45.9296 20.84C45.8229 20.3867 45.7829 19.9533 45.8096 19.54C45.8096 19.06 45.8429 18.66 45.9096 18.34C45.9762 18.02 46.0162 17.82 46.0296 17.74C46.0562 17.6733 46.0829 17.56 46.1096 17.4C46.1362 17.2267 46.1896 16.9867 46.2696 16.68C46.3629 16.2933 46.4696 16.0067 46.5896 15.82C46.7762 15.5533 47.0229 15.42 47.3296 15.42C47.4896 15.42 47.6296 15.4667 47.7496 15.56C47.8829 15.64 47.9562 15.76 47.9696 15.92C48.0496 16 48.0896 16.1933 48.0896 16.5C48.0896 16.7267 48.0696 16.9467 48.0296 17.16C47.9896 17.3733 47.9362 17.5267 47.8696 17.62C47.8296 17.7 47.7696 18.0867 47.6896 18.78C47.6362 19.2867 47.5962 19.6133 47.5696 19.76C47.5562 19.8133 47.5496 19.8867 47.5496 19.98C47.5496 20.1533 47.5962 20.24 47.6896 20.24C47.8896 20.24 48.2562 19.8467 48.7896 19.06C49.1496 18.5267 49.3829 18.1467 49.4896 17.92C49.6096 17.68 49.7562 17.32 49.9296 16.84C50.0629 16.4267 50.1829 16.16 50.2896 16.04C50.4229 15.8533 50.6096 15.76 50.8496 15.76C51.0762 15.76 51.2896 15.8333 51.4896 15.98C51.6896 16.18 51.7896 16.44 51.7896 16.76C51.7896 17 51.7229 17.2533 51.5896 17.52C51.4296 17.8533 51.2829 18.26 51.1496 18.74C51.0162 19.22 50.9496 19.6133 50.9496 19.92C50.9496 20.16 50.9762 20.3133 51.0296 20.38C51.0962 20.4333 51.1962 20.46 51.3296 20.46C51.4762 20.46 51.6162 20.4067 51.7496 20.3C51.8962 20.1933 52.1229 19.9867 52.4296 19.68C52.6562 19.4533 52.9696 19.0267 53.3696 18.4C53.7696 17.7733 53.9696 17.4 53.9696 17.28C53.9696 17.2 54.0296 17.0867 54.1496 16.94C54.2162 16.8467 54.2762 16.7667 54.3296 16.7C54.3962 16.6333 54.4896 16.5667 54.6096 16.5C54.6896 16.4733 54.7562 16.46 54.8096 16.46C54.9962 16.46 55.1629 16.5333 55.3096 16.68C55.3629 16.7333 55.4096 16.86 55.4496 17.06C55.4896 17.26 55.5096 17.4467 55.5096 17.62C55.2296 18.66 55.0096 19.2667 54.8496 19.44C54.5962 19.64 54.3829 19.8867 54.2096 20.18C53.8896 20.5667 53.6362 20.84 53.4496 21C53.2762 21.1467 53.1629 21.2467 53.1096 21.3C52.8162 21.5933 52.4762 21.8267 52.0896 22C51.7029 22.1733 51.3429 22.26 51.0096 22.26C50.7429 22.26 50.5296 22.2 50.3696 22.08C49.9562 21.8667 49.7496 21.5067 49.7496 21C49.7496 20.9067 49.7362 20.82 49.7096 20.74C49.6829 20.66 49.6629 20.6067 49.6496 20.58C49.4496 20.58 49.2896 20.6867 49.1696 20.9C48.9829 21.22 48.6362 21.5533 48.1296 21.9C47.6362 22.2333 47.2629 22.4 47.0096 22.4ZM62.0016 23C61.2416 23 60.6283 22.7867 60.1616 22.36C59.6949 21.9333 59.4616 21.3267 59.4616 20.54C59.4616 20.2333 59.4816 19.8933 59.5216 19.52C59.5483 19.2 59.6749 18.76 59.9016 18.2C60.1416 17.64 60.4616 17.0933 60.8616 16.56C61.2749 16.0267 61.7549 15.6333 62.3016 15.38C62.5549 15.26 62.7683 15.18 62.9416 15.14C63.1149 15.0867 63.3149 15.06 63.5416 15.06C64.0883 15.06 64.5283 15.16 64.8616 15.36C65.2083 15.56 65.4483 15.7867 65.5816 16.04C65.7283 16.2933 65.8016 16.5133 65.8016 16.7V16.8V16.86C65.8016 17.02 65.7083 17.3133 65.5216 17.74C65.3349 18.1667 65.0349 18.5667 64.6216 18.94C64.2216 19.3133 63.7016 19.52 63.0616 19.56C62.7416 19.56 62.4283 19.5333 62.1216 19.48C61.8283 19.4133 61.6416 19.38 61.5616 19.38C61.3616 19.38 61.2349 19.4533 61.1816 19.6C61.1283 19.7467 61.1016 19.9933 61.1016 20.34C61.1416 20.7133 61.2416 20.9733 61.4016 21.12C61.5749 21.2667 61.8216 21.34 62.1416 21.34C62.3016 21.34 62.4883 21.2933 62.7016 21.2C62.9149 21.0933 63.1683 20.9267 63.4616 20.7C63.6216 20.5667 63.7483 20.4733 63.8416 20.42C63.9349 20.3667 64.0483 20.34 64.1816 20.34C64.3016 20.34 64.4416 20.42 64.6016 20.58C64.7616 20.74 64.8483 20.8933 64.8616 21.04C64.8349 21.2 64.6883 21.44 64.4216 21.76C64.1549 22.08 63.8083 22.3667 63.3816 22.62C62.9549 22.8733 62.4949 23 62.0016 23ZM62.7016 18.18C62.9549 18.18 63.1283 18.1533 63.2216 18.1C63.3549 18.0333 63.5549 17.8667 63.8216 17.6C64.1016 17.32 64.2483 17.1267 64.2616 17.02C64.2616 16.8867 64.2016 16.78 64.0816 16.7C63.9749 16.6067 63.8216 16.5467 63.6216 16.52H63.4016C63.2283 16.52 62.9749 16.6667 62.6416 16.96C62.3216 17.24 62.0416 17.5667 61.8016 17.94C61.8149 18.0067 61.9149 18.0667 62.1016 18.12C62.2883 18.16 62.4883 18.18 62.7016 18.18ZM71.8413 23.36C70.3213 23.36 69.5613 22.4933 69.5613 20.76C69.5613 20.1333 69.7146 19.4267 70.0213 18.64C70.3413 17.84 70.7346 17.1267 71.2013 16.5C71.6813 15.86 72.1546 15.4333 72.6213 15.22C72.8746 15.0867 73.1679 15.02 73.5013 15.02C74.1013 15.02 74.6213 15.1533 75.0613 15.42C75.5146 15.6733 75.7413 16.16 75.7413 16.88C75.7413 17.2933 75.6013 17.7467 75.3213 18.24C75.0413 18.7333 74.6879 19.1533 74.2613 19.5C73.8479 19.8333 73.4413 20 73.0413 20C72.4413 20 71.9346 19.8067 71.5213 19.42C71.2946 19.8733 71.1813 20.3067 71.1813 20.72C71.1813 21.0533 71.2213 21.3133 71.3013 21.5C71.3813 21.6733 71.5679 21.76 71.8613 21.76C72.1413 21.76 72.3679 21.72 72.5413 21.64C72.7146 21.56 72.8746 21.4667 73.0213 21.36C73.1679 21.2533 73.2813 21.1733 73.3613 21.12L73.4413 21.08H73.4213C73.6613 20.9467 73.8346 20.8467 73.9413 20.78C74.0613 20.7 74.1613 20.6467 74.2413 20.62C74.4413 20.62 74.6279 20.68 74.8013 20.8C74.9746 20.92 75.0613 21.0667 75.0613 21.24C75.0613 21.3733 74.9413 21.5933 74.7013 21.9C74.4613 22.1933 74.2146 22.4 73.9613 22.52L73.7213 22.64H73.7413C73.6213 22.8 73.5013 22.88 73.3813 22.88H73.2213C73.1679 22.9867 72.9879 23.0933 72.6813 23.2C72.3879 23.3067 72.1079 23.36 71.8413 23.36ZM72.8813 18.54C73.2546 18.54 73.5613 18.38 73.8013 18.06C74.0546 17.74 74.1813 17.42 74.1813 17.1C74.1813 16.9533 74.1413 16.82 74.0613 16.7C73.9946 16.58 73.9013 16.52 73.7813 16.52C73.5546 16.52 73.3013 16.6267 73.0213 16.84C72.7413 17.0533 72.4946 17.3333 72.2813 17.68L72.0213 18.1C72.0746 18.0733 72.1146 18.06 72.1413 18.06C72.2479 18.06 72.3279 18.1067 72.3813 18.2C72.4346 18.2933 72.4946 18.3733 72.5613 18.44C72.6279 18.5067 72.7346 18.54 72.8813 18.54ZM82.701 23.12C82.4076 23.04 82.0276 22.7933 81.561 22.38C81.3343 22.0867 81.201 21.8267 81.161 21.6C81.121 21.36 81.101 20.8933 81.101 20.2C81.101 19.88 81.261 19.08 81.581 17.8C81.5943 17.7467 81.641 17.5667 81.721 17.26C81.761 17.1133 81.7076 17.02 81.561 16.98C81.4143 16.94 81.2076 16.92 80.941 16.92C80.7143 16.92 80.581 16.9067 80.541 16.88C80.501 16.8667 80.4743 16.8067 80.461 16.7C80.461 16.5933 80.461 16.52 80.461 16.48C80.461 16.44 80.4276 16.4 80.361 16.36C80.3076 16.32 80.2676 16.28 80.241 16.24C80.201 16.1867 80.2343 16.0867 80.341 15.94C80.4476 15.7933 80.5676 15.7067 80.701 15.68C80.781 15.6667 80.9543 15.6467 81.221 15.62C81.4876 15.5933 81.741 15.54 81.981 15.46C82.2343 15.38 82.421 15.2667 82.541 15.12C82.7143 14.6667 82.9143 14.1867 83.141 13.68C83.381 13.1733 83.5476 12.8733 83.641 12.78C83.8543 12.6733 84.0476 12.62 84.221 12.62C84.5143 12.62 84.741 12.74 84.901 12.98C84.941 13.0333 84.9876 13.0867 85.041 13.14C85.0943 13.1933 85.121 13.2533 85.121 13.32C85.121 13.4133 85.0743 13.56 84.981 13.76C84.901 13.96 84.7343 14.2867 84.481 14.74L84.221 15.24C84.261 15.2533 84.3543 15.26 84.501 15.26C84.6476 15.26 84.7676 15.2533 84.861 15.24C85.1543 15.1867 85.381 15.16 85.541 15.16C85.661 15.16 85.7476 15.1667 85.801 15.18C86.361 15.18 86.6676 15.4867 86.721 16.1C86.7476 16.26 86.6876 16.3933 86.541 16.5C86.4076 16.5933 86.1676 16.64 85.821 16.64C84.4476 16.6933 83.7543 16.7533 83.741 16.82C83.6743 16.86 83.5676 17.0667 83.421 17.44C83.2743 17.8133 83.1543 18.1667 83.061 18.5C82.901 19.1933 82.821 19.8467 82.821 20.46C82.821 21.0467 82.9076 21.4267 83.081 21.6C83.1343 21.6533 83.2076 21.68 83.301 21.68C83.541 21.68 83.881 21.5 84.321 21.14C84.4676 21.0067 84.6276 20.94 84.801 20.94C84.9476 20.94 85.061 20.9933 85.141 21.1C85.2343 21.2067 85.281 21.3467 85.281 21.52C85.281 21.72 85.2143 21.9133 85.081 22.1C84.881 22.4067 84.581 22.66 84.181 22.86C83.781 23.06 83.401 23.16 83.041 23.16C82.881 23.16 82.7676 23.1467 82.701 23.12ZM98.9058 23.6C98.7058 23.5333 98.5525 23.4133 98.4458 23.24C98.3525 23.0667 98.3058 22.8133 98.3058 22.48C98.3058 21.9333 98.3591 21.4 98.4658 20.88L98.4858 20.72C98.4991 20.64 98.5191 20.5133 98.5458 20.34C98.5725 20.1533 98.5925 20.1 98.6058 20.18L98.7258 19.64C98.8191 19.2667 98.9058 18.92 98.9858 18.6C99.0791 18.28 99.1525 18.0467 99.2058 17.9L99.4258 17.2C99.8258 15.9067 100.199 15.0333 100.546 14.58C100.559 14.5267 100.579 14.48 100.606 14.44C100.632 14.3867 100.652 14.3333 100.666 14.28C100.666 14.0667 100.706 13.9 100.786 13.78C100.906 13.58 101.006 13.4 101.086 13.24L101.166 13.02L101.726 11.88C101.766 11.7467 101.846 11.6 101.966 11.44C102.099 11.28 102.232 11.1733 102.366 11.12L102.346 11.1C102.412 10.9933 102.532 10.9 102.706 10.82C102.892 10.74 103.052 10.7 103.186 10.7C103.359 10.7 103.499 10.7533 103.606 10.86C103.712 10.9667 103.766 11.1133 103.766 11.3V11.5C103.766 11.62 103.752 11.7133 103.726 11.78C103.712 11.8467 103.672 11.9267 103.606 12.02H103.626C103.639 12.0333 103.626 12.08 103.586 12.16C103.559 12.2267 103.532 12.2933 103.506 12.36C103.412 12.6 103.346 12.7333 103.306 12.76C103.212 12.88 102.906 13.4467 102.386 14.46C101.866 15.46 101.532 16.1533 101.386 16.54L101.306 16.84L101.266 16.96C101.119 17.28 101.039 17.4533 101.026 17.48L100.706 18.72L100.626 19.14L100.446 19.6L100.326 19.98C100.299 20.0467 100.272 20.1333 100.246 20.24C100.232 20.3467 100.212 20.4133 100.186 20.44L100.166 20.54C100.152 20.5933 100.106 20.7467 100.026 21C99.9058 21.3733 99.8191 21.6867 99.7658 21.94C99.7125 22.18 99.6791 22.44 99.6658 22.72L99.6458 22.8C99.6058 23.0933 99.5191 23.3133 99.3858 23.46C99.2658 23.6067 99.1058 23.6533 98.9058 23.6ZM109.26 14.68C109.1 14.68 108.907 14.6067 108.68 14.46C108.454 14.3133 108.254 14.1267 108.08 13.9C107.92 13.66 107.84 13.42 107.84 13.18C107.84 13.1 107.98 12.8533 108.26 12.44C108.447 12.1867 108.54 12.0333 108.54 11.98C108.634 11.98 108.754 12 108.9 12.04C109.047 12.08 109.174 12.1267 109.28 12.18C109.36 12.3667 109.52 12.6067 109.76 12.9C109.92 13.1 110.034 13.2667 110.1 13.4C110.18 13.5333 110.22 13.6733 110.22 13.82C110.22 14.1133 110.14 14.3333 109.98 14.48C109.834 14.6133 109.594 14.68 109.26 14.68ZM106.54 22.34C106.5 22.34 106.4 22.3067 106.24 22.24C106.094 22.1733 105.994 22.1267 105.94 22.1C105.94 22.06 105.92 21.9933 105.88 21.9C105.854 21.7933 105.84 21.7267 105.84 21.7C105.72 21.6467 105.62 21.56 105.54 21.44C105.474 21.3067 105.46 21.1733 105.5 21.04C105.687 20.72 106.02 19.9867 106.5 18.84C106.994 17.68 107.267 17.0133 107.32 16.84C107.32 16.5467 107.414 16.34 107.6 16.22C107.694 16.1533 107.787 16.12 107.88 16.12C108.107 16.12 108.32 16.2733 108.52 16.58C108.72 16.8867 108.82 17.2467 108.82 17.66C108.82 17.82 108.667 18.28 108.36 19.04C108.067 19.7867 107.734 20.54 107.36 21.3C107.147 21.7267 106.987 22.0067 106.88 22.14C106.787 22.2733 106.674 22.34 106.54 22.34ZM114.386 25.42C114.306 25.4733 114.12 25.4067 113.826 25.22C113.546 25.0467 113.313 24.8533 113.126 24.64C113.046 24.56 112.993 24.48 112.966 24.4C112.94 24.3333 112.926 24.24 112.926 24.12L112.966 23.62C113.033 23.42 113.066 23.1867 113.066 22.92C113.066 22.8133 113.113 22.48 113.206 21.92C113.3 21.3467 113.373 20.9333 113.426 20.68L113.486 20.44C113.593 20 113.673 19.5933 113.726 19.22C113.833 18.8867 113.92 18.56 113.986 18.24C114.066 17.9067 114.106 17.68 114.106 17.56C114.106 17.32 114.2 17.1467 114.386 17.04C114.4 16.9333 114.5 16.7133 114.686 16.38C115.006 15.4733 115.24 14.8267 115.386 14.44C115.546 14.04 115.713 13.6933 115.886 13.4C116.126 12.7333 116.32 12.3133 116.466 12.14C116.56 11.9133 116.813 11.58 117.226 11.14C117.64 10.7 118.006 10.3467 118.326 10.08C118.993 9.73333 119.553 9.56 120.006 9.56C120.393 9.56 120.84 9.8 121.346 10.28C121.533 10.48 121.64 10.6133 121.666 10.68C121.693 10.7467 121.706 10.8733 121.706 11.06C121.653 11.3133 121.42 11.76 121.006 12.4C120.593 13.04 120.333 13.3667 120.226 13.38C120.066 13.4333 119.96 13.46 119.906 13.46C119.786 13.46 119.686 13.42 119.606 13.34C119.526 13.26 119.486 13.14 119.486 12.98C119.486 12.7267 119.566 12.4333 119.726 12.1C119.886 11.8867 119.966 11.7 119.966 11.54C119.966 11.3133 119.786 11.2 119.426 11.2C119.32 11.2533 119.106 11.4467 118.786 11.78C118.48 12.1 118.326 12.3 118.326 12.38C118.313 12.4067 118.273 12.48 118.206 12.6C118.153 12.7067 118.066 12.8333 117.946 12.98C117.706 13.3133 117.586 13.52 117.586 13.6C117.586 13.7733 117.546 13.86 117.466 13.86C117.453 13.8867 117.42 13.9667 117.366 14.1C117.326 14.22 117.266 14.3533 117.186 14.5C117.133 14.62 117.066 14.7533 116.986 14.9C116.906 15.0467 116.84 15.1467 116.786 15.2H116.806C116.766 15.2933 116.693 15.4733 116.586 15.74C116.48 15.9933 116.426 16.14 116.426 16.18C116.426 16.2333 116.506 16.26 116.666 16.26C116.96 16.26 117.373 16.1867 117.906 16.04C118.08 15.9867 118.206 15.96 118.286 15.96C118.38 15.96 118.513 15.9867 118.686 16.04C118.833 16.1333 118.953 16.34 119.046 16.66C119.14 16.98 119.16 17.18 119.106 17.26C119.093 17.3133 118.946 17.3867 118.666 17.48C118.4 17.5733 118.12 17.6467 117.826 17.7L117.006 17.88C116.246 18.04 115.866 18.1467 115.866 18.2C115.813 18.2 115.766 18.2267 115.726 18.28C115.686 18.3333 115.666 18.3867 115.666 18.44C115.666 18.6267 115.64 18.7667 115.586 18.86C115.52 19.0467 115.406 19.4933 115.246 20.2C115.1 20.9067 115.026 21.34 115.026 21.5C114.92 21.6333 114.866 21.8733 114.866 22.22C114.786 22.3667 114.746 22.5333 114.746 22.72C114.746 22.8 114.74 22.8667 114.726 22.92C114.726 22.9867 114.713 23.1467 114.686 23.4C114.66 23.6533 114.646 23.8867 114.646 24.1L114.586 24.68C114.573 24.84 114.553 24.9867 114.526 25.12C114.5 25.2533 114.453 25.3533 114.386 25.42ZM125.502 23C124.742 23 124.129 22.7867 123.662 22.36C123.196 21.9333 122.962 21.3267 122.962 20.54C122.962 20.2333 122.982 19.8933 123.022 19.52C123.049 19.2 123.176 18.76 123.402 18.2C123.642 17.64 123.962 17.0933 124.362 16.56C124.776 16.0267 125.256 15.6333 125.802 15.38C126.056 15.26 126.269 15.18 126.442 15.14C126.616 15.0867 126.816 15.06 127.042 15.06C127.589 15.06 128.029 15.16 128.362 15.36C128.709 15.56 128.949 15.7867 129.082 16.04C129.229 16.2933 129.302 16.5133 129.302 16.7V16.8V16.86C129.302 17.02 129.209 17.3133 129.022 17.74C128.836 18.1667 128.536 18.5667 128.122 18.94C127.722 19.3133 127.202 19.52 126.562 19.56C126.242 19.56 125.929 19.5333 125.622 19.48C125.329 19.4133 125.142 19.38 125.062 19.38C124.862 19.38 124.736 19.4533 124.682 19.6C124.629 19.7467 124.602 19.9933 124.602 20.34C124.642 20.7133 124.742 20.9733 124.902 21.12C125.076 21.2667 125.322 21.34 125.642 21.34C125.802 21.34 125.989 21.2933 126.202 21.2C126.416 21.0933 126.669 20.9267 126.962 20.7C127.122 20.5667 127.249 20.4733 127.342 20.42C127.436 20.3667 127.549 20.34 127.682 20.34C127.802 20.34 127.942 20.42 128.102 20.58C128.262 20.74 128.349 20.8933 128.362 21.04C128.336 21.2 128.189 21.44 127.922 21.76C127.656 22.08 127.309 22.3667 126.882 22.62C126.456 22.8733 125.996 23 125.502 23ZM126.202 18.18C126.456 18.18 126.629 18.1533 126.722 18.1C126.856 18.0333 127.056 17.8667 127.322 17.6C127.602 17.32 127.749 17.1267 127.762 17.02C127.762 16.8867 127.702 16.78 127.582 16.7C127.476 16.6067 127.322 16.5467 127.122 16.52H126.902C126.729 16.52 126.476 16.6667 126.142 16.96C125.822 17.24 125.542 17.5667 125.302 17.94C125.316 18.0067 125.416 18.0667 125.602 18.12C125.789 18.16 125.989 18.18 126.202 18.18Z" fill="#8E0821"/>
<rect width="31" height="32" rx="7" fill="url(#paint0_linear)"/>
<path d="M25.9934 11.0007C25.9939 10.9912 25.9939 10.9817 25.9932 10.9723C25.9892 10.9622 25.9846 10.9524 25.9792 10.9429C25.9601 10.8959 25.9273 10.8535 25.8836 10.8194C25.8673 10.8083 25.8496 10.7985 25.831 10.7902C25.8145 10.7814 25.797 10.7739 25.7788 10.7677C25.756 10.7617 25.7326 10.7578 25.7088 10.756C25.6947 10.7528 25.6803 10.7504 25.6657 10.7489C25.6621 10.7489 25.6592 10.7504 25.6557 10.7505C25.6519 10.7506 25.6486 10.7492 25.6448 10.7494L13.9937 11.3493C13.9498 10.5089 13.2915 9.77472 12.33 9.49394C12.3752 9.30958 12.4705 9.13611 12.6087 8.98651C12.9646 8.67056 13.4784 8.50911 13.999 8.54976C14.1831 8.54976 14.3323 8.4267 14.3323 8.27488C14.3323 8.12306 14.1832 8 13.9991 8C13.1433 8 12.5 8.21664 12.0873 8.64373C11.8837 8.86065 11.7431 9.11314 11.6761 9.38184C11.6174 9.37842 11.5588 9.37443 11.499 9.37443C10.2651 9.3762 9.21702 10.1197 9.03053 11.1256C8.70057 10.8833 8.27425 10.7492 7.83237 10.7489C7.01246 10.7508 6.29406 11.2019 6.07383 11.8532C6.0268 11.9002 6.00043 11.9588 5.99902 12.0197V21.231C5.9991 23.0298 7.94296 24.4934 10.3324 24.4934C10.3523 24.4917 10.372 24.4884 10.3911 24.4836C10.4486 24.4978 10.51 24.4967 10.5667 24.4805L25.7666 20.4973C25.7717 20.496 25.7751 20.4927 25.78 20.4912C25.8018 20.4837 25.8225 20.4742 25.8417 20.4629C25.9158 20.4307 25.9678 20.372 25.9823 20.304C25.9893 20.2857 25.9939 20.2668 25.996 20.2477C25.9962 20.2434 25.9991 20.2397 25.9991 20.2353V11.0238C25.999 11.0156 25.9942 11.0087 25.9934 11.0007ZM9.84092 10.7885C10.1437 10.2597 10.7899 9.92287 11.4991 9.92422C11.5347 9.92422 11.5696 9.92696 11.6047 9.92863C11.602 10.1324 11.6253 10.3358 11.6742 10.5355C11.709 10.6602 11.8435 10.7488 11.9988 10.7489C12.024 10.749 12.0491 10.7466 12.0736 10.7419C12.2531 10.7079 12.3651 10.5605 12.324 10.4125C12.324 10.4125 12.324 10.4125 12.324 10.4125C12.2979 10.299 12.2818 10.1841 12.2759 10.0686C13.1894 10.4243 13.5802 11.3234 13.1489 12.0767C12.7175 12.83 11.6274 13.1523 10.7139 12.7966C9.80041 12.4409 9.40955 11.5419 9.84092 10.7885ZM9.99908 23.9326C8.13288 23.8075 6.66578 22.6435 6.66578 21.231V13.8049C7.42081 14.7324 8.64866 15.3242 9.99908 15.4116V23.9326ZM10.2869 14.8704C8.3739 14.851 6.76207 13.624 6.67429 12.1455C6.67847 12.1211 6.68254 12.0965 6.68941 12.0699C6.79957 11.6214 7.27753 11.2989 7.83249 11.2987C8.33421 11.2996 8.77936 11.5642 8.93909 11.9564C8.97221 12.0362 9.0487 12.0987 9.14581 12.1253C9.60545 13.1973 11.0319 13.7591 12.3319 13.38C13.1361 13.1455 13.7395 12.5886 13.9319 11.9033L23.0684 11.4329L15.5624 13.4508C15.5577 13.4521 15.5545 13.4553 15.5499 13.4567C15.5284 13.4643 15.508 13.4738 15.4891 13.4851C15.4148 13.5171 15.3631 13.5758 15.3492 13.6439C15.342 13.6625 15.3373 13.6816 15.3352 13.701C15.335 13.705 15.3325 13.7083 15.3325 13.7124V15.1472C15.3325 15.299 15.1832 15.4221 14.9991 15.4221C14.815 15.4221 14.6658 15.299 14.6658 15.1472V14.0723C14.6658 13.9205 14.5166 13.7974 14.3325 13.7974C14.1484 13.7974 13.9992 13.9205 13.9992 14.0723V20.9198C13.9992 21.0717 13.85 21.1947 13.6659 21.1947C13.4818 21.1947 13.3325 21.0717 13.3325 20.9198V14.4296C13.3242 14.4016 13.3187 14.373 13.3161 14.3442C13.3146 14.3404 13.3109 14.3379 13.3091 14.3341C13.3 14.3167 13.2887 14.3001 13.2753 14.2846C13.2584 14.2544 13.2304 14.2294 13.1952 14.2131C13.1657 14.1894 13.1278 14.1741 13.087 14.1693C13.0628 14.1627 13.0376 14.1585 13.0122 14.1569C13.0076 14.1567 13.0038 14.1547 12.9992 14.1547C12.9819 14.1564 12.9648 14.1592 12.948 14.1633C12.9305 14.1638 12.913 14.1655 12.8959 14.1684L10.2869 14.8704ZM10.6658 19.7164V18.6451L12.6658 18.107V19.1783L10.6658 19.7164ZM12.6658 19.7563V20.8282L10.6658 21.3657V20.2945L12.6658 19.7563ZM10.6658 18.0671V15.3465L12.6658 14.8083V17.5289L10.6658 18.0671ZM25.3324 20.0342L10.6658 23.8776V21.9441L12.8256 21.3637C13.122 21.7471 13.7391 21.8598 14.204 21.6155C14.4921 21.464 14.6663 21.2016 14.6657 20.9198V20.8692L25.3324 18.0001V20.0342ZM25.3324 17.4215L14.6657 20.2907V19.2199L25.3324 16.3508V17.4215ZM25.3324 15.7722L14.6657 18.6414V17.5706L25.3324 14.7014V15.7722ZM25.3324 14.1228L14.6657 16.992V15.9212C14.7725 15.9538 14.8853 15.9709 14.9991 15.9718C15.5511 15.9713 15.9985 15.6024 15.9991 15.1472V13.912L25.3323 11.4026V14.1228H25.3324Z" fill="#FAF0F1"/>
<defs>
<linearGradient id="paint0_linear" x1="-7.46814e-07" y1="0.0107704" x2="31.9623" y2="30.9743" gradientUnits="userSpaceOnUse">
<stop stop-color="#8E0821"/>
<stop offset="1" stop-color="#EA6585"/>
</linearGradient>
</defs>
</svg>
