<svg width="30" height="30" viewBox="0 0 30 30" fill="none" xmlns="http://www.w3.org/2000/svg">
<g clip-path="url(#clip0)">
<path d="M29.7432 0.260932C29.4938 0.0114856 29.11 -0.0588711 28.7902 0.0818424L0.519562 12.471C0.218947 12.6053 0.0206684 12.8932 0.0014802 13.2194C-0.017708 13.5456 0.154986 13.8526 0.436413 14.0125L10.2928 19.6026L16.1452 29.5613C16.2987 29.8236 16.5865 29.9899 16.8871 29.9899C16.9063 29.9899 16.9191 29.9899 16.9383 29.9899C17.2645 29.9707 17.5459 29.7724 17.6802 29.4718L29.9287 1.21395C30.0694 0.887747 29.9991 0.510379 29.7432 0.260932ZM25.2468 3.51653L10.7789 17.8885L2.79017 13.3601L25.2468 3.51653ZM16.772 27.2204L12.0069 19.1038L26.558 4.64864L16.772 27.2204Z" fill="#BA2D4A"/>
</g>
<defs>
<clipPath id="clip0">
<rect width="30" height="30" fill="white"/>
</clipPath>
</defs>
</svg>
