<svg width="30" height="30" viewBox="0 0 30 30" fill="none" xmlns="http://www.w3.org/2000/svg">
<g clip-path="url(#clip0)">
<path d="M28.9438 17.3662C29.8388 9.83241 28.5138 5.07616 26.1238 2.92491L26.125 2.92366C22.2675 -0.750091 9.24004 -1.29384 4.62504 3.08866C2.55254 5.23241 1.82254 8.37866 1.74254 12.2737C1.66254 16.1699 1.56754 23.4687 8.36879 25.4487H8.37504L8.36879 28.4724C8.36879 28.4724 8.32254 29.6974 9.10504 29.9437C10 30.2337 10.405 29.6649 13.1888 26.3399C17.8438 26.7437 21.4188 25.8187 21.825 25.6837C22.765 25.3687 28.0838 24.6649 28.9438 17.3662ZM13.6475 24.2124C13.6475 24.2124 10.7013 27.8862 9.78504 28.8399C9.48504 29.1499 9.15629 29.1212 9.16129 28.5062C9.16129 28.1024 9.18379 23.4862 9.18379 23.4862C3.41754 21.8337 3.75754 15.6187 3.82004 12.3674C3.88254 9.11491 4.47754 6.45116 6.23254 4.65741C10.2813 0.861159 21.7025 1.70991 24.6125 4.44491C28.17 7.59866 26.9038 16.5087 26.9113 16.8124C26.18 22.9049 21.87 23.2912 21.0775 23.5549C20.7388 23.6674 17.595 24.4762 13.6475 24.2124Z" fill="#BA2D4A"/>
<path d="M15.2775 5.37109C14.7963 5.37109 14.7963 6.12109 15.2775 6.12734C19.0113 6.15609 22.0863 8.75859 22.12 13.5323C22.12 14.0361 22.8575 14.0298 22.8513 13.5261H22.85C22.81 8.38234 19.4525 5.39984 15.2775 5.37109Z" fill="#BA2D4A"/>
<path d="M20.1888 12.7413C20.1775 13.2388 20.9138 13.2626 20.9201 12.7588C20.9813 9.92255 19.2325 7.5863 15.9463 7.34005C15.465 7.30505 15.415 8.0613 15.895 8.0963C18.745 8.31255 20.2463 10.2575 20.1888 12.7413Z" fill="#BA2D4A"/>
<path d="M19.4012 15.9676C18.7837 15.6101 18.155 15.8326 17.895 16.1839L17.3512 16.8876C17.075 17.2451 16.5587 17.1976 16.5587 17.1976C12.7912 16.2014 11.7837 12.2589 11.7837 12.2589C11.7837 12.2589 11.7375 11.7251 12.0825 11.4389L12.7625 10.8764C13.1025 10.6064 13.3175 9.95638 12.9712 9.31763C12.0462 7.64638 11.425 7.07013 11.1087 6.62763C10.7762 6.21138 10.2762 6.11763 9.75621 6.39888H9.74496C8.66371 7.03138 7.47996 8.21513 7.85871 9.43388C8.50496 10.7189 9.69246 14.8151 13.4775 17.9101C15.2562 19.3739 18.0712 20.8739 19.2662 21.2201L19.2775 21.2376C20.455 21.6301 21.5999 20.4001 22.2112 19.2864V19.2776C22.4824 18.7389 22.3924 18.2289 21.9962 17.8951C21.2937 17.2101 20.2337 16.4539 19.4012 15.9676Z" fill="#BA2D4A"/>
<path d="M16.4612 10.1301C17.6625 10.2001 18.245 10.8276 18.3075 12.1164C18.33 12.6201 19.0612 12.5851 19.0387 12.0814C18.9587 10.3988 18.0812 9.46135 16.5012 9.37385C16.02 9.3451 15.975 10.1013 16.4612 10.1301Z" fill="#BA2D4A"/>
</g>
<defs>
<clipPath id="clip0">
<rect width="30" height="30" fill="white"/>
</clipPath>
</defs>
</svg>
